<?xml version="1.0" encoding="UTF-8"?>
<svg width="86px" height="86px" viewBox="0 0 86 86" version="1.1" xmlns="http://www.w3.org/2000/svg" xmlns:xlink="http://www.w3.org/1999/xlink">
    <!-- Generator: Sketch 52 (66869) - http://www.bohemiancoding.com/sketch -->
    <title>adviceme-icon</title>
    <desc>Created with Sketch.</desc>
    <defs>
        <linearGradient x1="50%" y1="-24.6940417%" x2="115.069288%" y2="111.338703%" id="linearGradient-1">
            <stop stop-color="#393B47" offset="0%"></stop>
            <stop stop-color="#111112" offset="100%"></stop>
        </linearGradient>
        <linearGradient x1="60.8976448%" y1="95.6553131%" x2="32.0031325%" y2="-19.4520717%" id="linearGradient-2">
            <stop stop-color="#57D2FE" offset="0%"></stop>
            <stop stop-color="#57EFFE" offset="100%"></stop>
        </linearGradient>
        <linearGradient x1="21.1792304%" y1="82.488474%" x2="82.938937%" y2="12.4960098%" id="linearGradient-3">
            <stop stop-color="#017DDA" offset="4%"></stop>
            <stop stop-color="#015ED5" offset="100%"></stop>
        </linearGradient>
        <linearGradient x1="95.0579738%" y1="53.9983641%" x2="21.7639232%" y2="47.4561843%" id="linearGradient-4">
            <stop stop-color="#57D2FE" offset="0%"></stop>
            <stop stop-color="#019CFE" offset="100%"></stop>
        </linearGradient>
        <linearGradient x1="-3.17774032e-14%" y1="49.9390456%" x2="100%" y2="49.9390456%" id="linearGradient-5">
            <stop stop-color="#017DDA" offset="4%"></stop>
            <stop stop-color="#015ED5" offset="100%"></stop>
        </linearGradient>
    </defs>
    <g id="Mobile-app" stroke="none" stroke-width="1" fill="none" fill-rule="evenodd">
        <g id="Artboard" transform="translate(-70.000000, -53.000000)">
            <g id="adviceme-icon" transform="translate(70.000000, 53.000000)">
                <rect id="Rectangle" fill="url(#linearGradient-1)" x="0" y="0" width="86" height="86" rx="25"></rect>
                <g id="SVG-(1)" transform="translate(17.000000, 18.000000)">
                    <path d="M7.8490566,24.5283019 L10.7924528,19.6226415" id="Path"></path>
                    <path d="M43.2411517,49.0566038 C40.1137064,49.0533724 37.2254548,47.4205246 35.663849,44.7728416 L31.5937888,37.8956667 L25.509434,27.597271 L30.1186142,19.7591441 C30.1612641,19.6731389 30.2128822,19.5916633 30.2726485,19.5160116 C31.4666351,17.7051447 33.5384511,16.6312767 35.7424493,16.6808929 C37.9464476,16.730509 39.9654522,17.8964693 41.0728227,19.7591441 L44.0350208,24.7607258 L50.8243788,36.2111062 C52.3906583,38.8595322 52.3919542,42.1232654 50.8277785,44.7728782 C49.2636027,47.422491 46.3715933,49.05544 43.2411517,49.0566038 Z" id="Path" fill="url(#linearGradient-2)"></path>
                    <path d="M8.76175935,49.0566011 C11.8890198,49.054565 14.7773641,47.4223533 16.3378181,44.7753485 L20.4072101,37.9022026 L26.490566,27.6098401 L21.9117596,19.7763051 C21.8669307,19.6915422 21.81544,19.610302 21.7577506,19.5333151 C20.5663557,17.7126042 18.4884467,16.6312243 16.276707,16.6808848 C14.0649673,16.7305453 12.0401306,17.9040447 10.9356558,19.7763051 L7.97394402,24.7749567 L1.17977721,36.218629 C-0.39020179,38.8650199 -0.393458396,42.1289071 1.17123665,44.7782818 C2.73593169,47.4276565 5.63027923,49.0590254 8.76175935,49.0566011 Z" id="Path" fill="url(#linearGradient-3)"></path>
                    <path d="M8.76175935,49.0566011 C11.8890198,49.054565 14.7773641,47.4223533 16.3378181,44.7753485 L20.4072101,37.9022026 L26.490566,27.6098401 L21.9117596,19.7763051 C21.8669307,19.6915422 21.81544,19.610302 21.7577506,19.5333151 C20.5663557,17.7126042 18.4884467,16.6312243 16.276707,16.6808848 C14.0649673,16.7305453 12.0401306,17.9040447 10.9356558,19.7763051 L7.97394402,24.7749567 L1.17977721,36.218629 C-0.39020179,38.8650199 -0.393458396,42.1289071 1.17123665,44.7782818 C2.73593169,47.4276565 5.63027923,49.0590254 8.76175935,49.0566011 Z" id="Path" fill="url(#linearGradient-3)"></path>
                    <path d="M41.2075472,20.502094 C40.1295841,18.6018219 38.1533514,17.4107652 35.9947021,17.3603617 C33.8360527,17.3099582 31.8080217,18.4075171 30.6452249,20.2554685 C30.5869029,20.3322071 30.5365321,20.4148532 30.4949127,20.502094 L26.0202343,28.4528302 L21.5050873,20.502094 C20.4022034,18.5557943 18.3596959,17.3561685 16.1487701,17.3561685 C13.9378442,17.3561685 11.8953367,18.5557943 10.7924528,20.502094 L16.1632231,11.106837 L20.6552453,3.15022878 C21.758957,1.20134224 23.8037975,3.60597074e-16 26.0173437,0 C28.23089,-3.60597074e-16 30.2757305,1.20134224 31.3794422,3.15022878 L35.8945892,11.0833489 L41.2075472,20.502094 Z" id="Path" fill="url(#linearGradient-4)"></path>
                    <path d="M21.1000439,19.8014255 C21.0568736,19.7158151 21.0072881,19.6337626 20.9517332,19.5560058 C19.1894444,16.7424016 15.5783691,15.8465828 12.754717,17.5225281 C18.6928477,14.4898415 21.7902589,34.3396226 21.7902589,34.3396226 L25.509434,27.7366633 L21.1000439,19.8014255 Z" id="Path" fill="url(#linearGradient-5)" opacity="0.6" style="mix-blend-mode: multiply;"></path>
                </g>
            </g>
        </g>
    </g>
</svg>