<?xml version="1.0" encoding="UTF-8"?>
<svg width="374px" height="51px" viewBox="0 0 374 51" version="1.1" xmlns="http://www.w3.org/2000/svg" xmlns:xlink="http://www.w3.org/1999/xlink">
    <!-- Generator: Sketch 52 (66869) - http://www.bohemiancoding.com/sketch -->
    <title>advice</title>
    <desc>Created with Sketch.</desc>
    <defs>
        <linearGradient x1="60.8976448%" y1="95.6553131%" x2="32.0031325%" y2="-19.4520717%" id="linearGradient-1">
            <stop stop-color="#57D2FE" offset="0%"></stop>
            <stop stop-color="#57EFFE" offset="100%"></stop>
        </linearGradient>
        <linearGradient x1="21.1792304%" y1="82.488474%" x2="82.938937%" y2="12.4960098%" id="linearGradient-2">
            <stop stop-color="#017DDA" offset="4%"></stop>
            <stop stop-color="#015ED5" offset="100%"></stop>
        </linearGradient>
        <linearGradient x1="95.0579738%" y1="53.9983641%" x2="21.7639232%" y2="47.4561843%" id="linearGradient-3">
            <stop stop-color="#57D2FE" offset="0%"></stop>
            <stop stop-color="#019CFE" offset="100%"></stop>
        </linearGradient>
        <linearGradient x1="-3.17774032e-14%" y1="49.9390456%" x2="100%" y2="49.9390456%" id="linearGradient-4">
            <stop stop-color="#017DDA" offset="4%"></stop>
            <stop stop-color="#015ED5" offset="100%"></stop>
        </linearGradient>
    </defs>
    <g id="Page-1" stroke="none" stroke-width="1" fill="none" fill-rule="evenodd">
        <g id="advice">
            <g id="Logo-AdviceMe" transform="translate(69.000000, 0.000000)">
                <path d="M33.866113,25.57 L33.866113,48.39 C33.866113,49.51 33.306113,50 32.186113,50 L27.006113,50 C25.886113,50 25.466113,49.44 25.396113,48.67 L25.116113,44.89 C23.576113,47.27 20.146113,50.63 12.376113,50.63 C5.166113,50.63 0.406113,46.85 0.406113,39.92 C0.406113,29.63 10.346113,27.88 24.836113,27.6 L24.836113,25.99 C24.836113,21.65 22.456113,19.62 16.856113,19.62 C12.656113,19.62 9.226113,20.6 6.356113,21.72 C5.306113,22.07 4.676113,21.72 4.326113,20.74 L3.066113,16.89 C2.786113,15.98 3.206113,15.35 4.046113,14.93 C7.476113,13.46 12.866113,12.27 18.046113,12.27 C28.966113,12.27 33.866113,16.89 33.866113,25.57 Z M24.836113,36.07 L24.836113,33.06 C15.526113,33.34 9.226113,34.18 9.226113,39.36 C9.226113,42.23 11.396113,44.26 15.386113,44.26 C21.826113,44.26 24.836113,40.62 24.836113,36.07 Z M66.656113,31.52 C66.656113,23.47 63.366113,19.76 57.556113,19.76 C51.816113,19.76 48.736113,23.05 48.736113,31.52 C48.736113,39.99 51.816113,43.28 57.556113,43.28 C63.366113,43.28 66.656113,39.57 66.656113,31.52 Z M67.076113,48.67 L66.866113,44.82 C64.836113,48.81 59.866113,50.77 54.896113,50.77 C45.166113,50.77 39.286113,44.47 39.286113,31.52 C39.286113,18.64 45.166113,12.27 54.896113,12.27 C59.796113,12.27 64.626113,14.3 66.586113,18.08 L66.586113,2.26 C66.586113,1.14 67.076113,0.72 68.196113,0.72 L74.216113,0.72 C75.336113,0.72 75.896113,1.14 75.896113,2.26 L75.896113,48.39 C75.896113,49.51 75.336113,50 74.216113,50 L68.756113,50 C67.636113,50 67.146113,49.44 67.076113,48.67 Z M101.126113,50 L94.266113,50 C93.216113,50 92.586113,49.58 92.236113,48.67 L80.196113,14.93 C79.846113,13.88 80.266113,13.11 81.456113,13.11 L87.616113,13.11 C88.736113,13.11 89.226113,13.67 89.506113,14.65 L94.756113,30.54 L97.626113,40.76 L97.836113,40.76 L100.706113,30.54 L105.886113,14.65 C106.166113,13.67 106.656113,13.11 107.776113,13.11 L114.076113,13.11 C115.196113,13.11 115.616113,13.88 115.266113,14.93 L103.156113,48.67 C102.806113,49.58 102.176113,50 101.126113,50 Z M128.806113,14.72 L128.806113,48.39 C128.806113,49.51 128.316113,50 127.196113,50 L121.106113,50 C119.986113,50 119.496113,49.51 119.496113,48.39 L119.496113,14.72 C119.496113,13.6 119.986113,13.11 121.106113,13.11 L127.196113,13.11 C128.316113,13.11 128.806113,13.6 128.806113,14.72 Z M128.806113,2.47 L128.806113,7.37 C128.806113,8.49 128.386113,8.98 127.266113,8.98 L121.036113,8.98 C119.916113,8.98 119.496113,8.49 119.496113,7.37 L119.496113,2.47 C119.496113,1.35 119.916113,0.86 121.036113,0.86 L127.266113,0.86 C128.386113,0.86 128.806113,1.35 128.806113,2.47 Z M134.646113,31.45 C134.646113,18.78 142.136113,12.27 153.126113,12.27 C157.816113,12.27 161.876113,13.39 163.906113,14.65 C164.886113,15.21 165.236113,15.84 164.816113,16.82 L163.136113,20.6 C162.716113,21.51 162.016113,21.86 160.826113,21.37 C159.076113,20.6 156.976113,20.04 154.246113,20.04 C148.016113,20.04 144.096113,23.54 144.096113,31.45 C144.096113,39.43 148.086113,43.07 154.106113,43.07 C157.046113,43.07 159.566113,42.3 161.316113,41.39 C162.436113,40.9 163.136113,41.25 163.486113,42.16 L165.166113,46.01 C165.586113,46.99 165.166113,47.55 164.186113,48.18 C162.156113,49.44 157.816113,50.77 153.476113,50.77 C142.206113,50.77 134.646113,44.12 134.646113,31.45 Z M189.136113,43.98 C192.706113,43.98 195.646113,43.14 198.306113,41.81 C199.356113,41.32 200.056113,41.81 200.406113,42.79 L201.596113,46.08 C201.876113,47.06 201.526113,47.62 200.546113,48.11 C197.606113,49.58 193.406113,50.84 188.366113,50.84 C175.976113,50.84 168.626113,43.7 168.626113,31.59 C168.626113,19.2 175.626113,12.27 186.476113,12.27 C197.396113,12.27 203.346113,19.48 203.346113,29.84 L203.346113,33.27 C203.346113,34.46 202.856113,34.95 201.666113,34.95 L177.796113,34.95 C178.496113,40.48 182.626113,43.98 189.136113,43.98 Z M186.616113,19.13 C181.156113,19.13 178.076113,22.35 177.586113,29.07 L194.946113,29.07 L194.946113,28.65 C194.946113,22.84 192.146113,19.13 186.616113,19.13 Z" id="advice" fill="#FFFFFF"></path>
                <path d="M241.726111,27.95 L241.726111,48.39 C241.726111,49.51 241.236111,50 240.116111,50 L234.166111,50 C233.116111,50 232.556111,49.51 232.556111,48.39 L232.556111,27.25 C232.556111,22.77 231.086111,20.18 226.676111,20.18 C221.706111,20.18 218.906111,23.61 218.906111,28.37 L218.906111,48.39 C218.906111,49.51 218.416111,50 217.296111,50 L211.346111,50 C210.226111,50 209.666111,49.51 209.666111,48.39 L209.666111,14.72 C209.666111,13.6 210.226111,13.11 211.346111,13.11 L216.876111,13.11 C217.996111,13.11 218.486111,13.67 218.556111,14.51 L218.906111,18.15 C220.376111,15.42 223.946111,12.27 230.036111,12.27 C235.706111,12.27 239.066111,14.44 240.676111,18.5 C242.706111,15.07 246.416111,12.27 252.856111,12.27 C260.906111,12.27 264.616111,17.31 264.616111,25.71 L264.616111,48.39 C264.616111,49.51 264.126111,50 263.006111,50 L256.986111,50 C255.936111,50 255.376111,49.51 255.376111,48.39 L255.376111,27.32 C255.376111,22.77 253.836111,20.18 249.356111,20.18 C244.526111,20.18 241.726111,23.61 241.726111,27.95 Z M290.546111,43.98 C294.116111,43.98 297.056111,43.14 299.716111,41.81 C300.766111,41.32 301.466111,41.81 301.816111,42.79 L303.006111,46.08 C303.286111,47.06 302.936111,47.62 301.956111,48.11 C299.016111,49.58 294.816111,50.84 289.776111,50.84 C277.386111,50.84 270.036111,43.7 270.036111,31.59 C270.036111,19.2 277.036111,12.27 287.886111,12.27 C298.806111,12.27 304.756111,19.48 304.756111,29.84 L304.756111,33.27 C304.756111,34.46 304.266111,34.95 303.076111,34.95 L279.206111,34.95 C279.906111,40.48 284.036111,43.98 290.546111,43.98 Z M288.026111,19.13 C282.566111,19.13 279.486111,22.35 278.996111,29.07 L296.356111,29.07 L296.356111,28.65 C296.356111,22.84 293.556111,19.13 288.026111,19.13 Z" id="me" fill="#03A0FF"></path>
            </g>
            <g id="SVG-(1)" transform="translate(0.000000, 9.000000)">
                <path d="M7,21 L9,17" id="Path"></path>
                <path d="M36.7259138,41 C34.1286194,40.9973053 31.7299717,39.6356472 30.4330826,37.4277019 L27.0529614,31.6927151 L22,23.1047173 L25.827852,16.5683771 C25.8632721,16.4966561 25.9061401,16.4287123 25.955775,16.3656251 C26.9473622,14.8555141 28.6679729,13.9599982 30.4983589,14.0013739 C32.3287449,14.0427497 34.0054966,15.0150627 34.9251505,16.5683771 L37.3852096,20.7392766 L43.0236651,30.287933 C44.3244356,32.496498 44.3255118,35.2181776 43.0264884,37.4277323 C41.7274649,39.6372871 39.3256964,40.9990295 36.7259138,41 Z" id="Path" fill="url(#linearGradient-1)"></path>
                <path d="M7.27650385,41.9999977 C9.87364467,41.9982998 12.2723694,40.6371723 13.5683019,38.4297924 L16.9478682,32.6981654 L22,24.1151988 L18.197373,17.582688 C18.1601433,17.5120029 18.1173811,17.4442554 18.069471,17.3800547 C17.0800361,15.8617346 15.3543653,14.9599545 13.5175501,15.0013672 C11.6807349,15.0427799 9.9991398,16.0213799 9.08189078,17.582688 L6.62223556,21.7511439 L0.979786483,31.2942063 C-0.324056472,33.5010743 -0.326761032,36.2228824 0.972693684,38.4322385 C2.2721484,40.6415946 4.67585867,42.0020194 7.27650385,41.9999977 Z" id="Path" fill="url(#linearGradient-2)"></path>
                <path d="M7.27650385,40.9999977 C9.87364467,40.9982998 12.2723694,39.6371723 13.5683019,37.4297924 L16.9478682,31.6981654 L22,23.1151988 L18.197373,16.582688 C18.1601433,16.5120029 18.1173811,16.4442554 18.069471,16.3800547 C17.0800361,14.8617346 15.3543653,13.9599545 13.5175501,14.0013672 C11.6807349,14.0427799 9.9991398,15.0213799 9.08189078,16.582688 L6.62223556,20.7511439 L0.979786483,30.2942063 C-0.324056472,32.5010743 -0.326761032,35.2228824 0.972693684,37.4322385 C2.2721484,39.6415946 4.67585867,41.0020194 7.27650385,40.9999977 Z" id="Path" fill="url(#linearGradient-2)"></path>
                <path d="M35,16.5729792 C34.0785154,15.0368839 32.3891552,14.0740867 30.5438582,14.0333428 C28.6985612,13.9925988 26.9649218,14.8798166 25.9709181,16.3736181 C25.9210621,16.4356502 25.8780032,16.5024576 25.8424254,16.5729792 L22.0172971,23 L18.1575746,16.5729792 C17.2147868,14.9996772 15.4687723,14.0299532 13.5787873,14.0299532 C11.6888023,14.0299532 9.9427878,14.9996772 9,16.5729792 L13.5911424,8.9782721 L17.4310967,2.54650457 C18.3745922,0.971111536 20.1226011,2.91490605e-16 22.0148261,0 C23.9070511,-2.91490605e-16 25.6550599,0.971111536 26.5985554,2.54650457 L30.4582779,8.95928533 L35,16.5729792 Z" id="Path" fill="url(#linearGradient-3)"></path>
                <path d="M18.1972272,16.6518518 C18.159996,16.5791379 18.1172322,16.5094458 18.0693202,16.4434024 C16.5494765,14.0536424 13.4351911,13.2927706 11,14.7162498 C16.1211986,12.1404102 18.7924866,29 18.7924866,29 L22,23.3917173 L18.1972272,16.6518518 Z" id="Path" fill="url(#linearGradient-4)" opacity="0.6" style="mix-blend-mode: multiply;"></path>
            </g>
        </g>
    </g>
</svg>