<?xml version="1.0" encoding="UTF-8"?>
<svg width="204px" height="33px" viewBox="0 0 204 33" version="1.1" xmlns="http://www.w3.org/2000/svg" xmlns:xlink="http://www.w3.org/1999/xlink">
    <!-- Generator: Sketch 52 (66869) - http://www.bohemiancoding.com/sketch -->
    <title>Artboard</title>
    <desc>Created with Sketch.</desc>
    <defs>
        <linearGradient x1="27.0641524%" y1="50%" x2="139.24628%" y2="50%" id="linearGradient-1">
            <stop stop-color="#111216" offset="0%"></stop>
            <stop stop-color="#111216" stop-opacity="0" offset="100%"></stop>
        </linearGradient>
    </defs>
    <g id="Artboard" stroke="none" stroke-width="1" fill="none" fill-rule="evenodd">
        <g id="Group-6" transform="translate(0.000000, 0.500000)">
            <g id="Por-c">
                <rect id="Rectangle" fill="#F2F3F4" opacity="0.0753348214" x="0" y="0" width="67" height="31.70947" rx="4"></rect>
                <path d="M15.109375,21.7265625 C12.328125,21.7265625 10.671875,19.46875 10.671875,15.8515625 C10.671875,12.25 12.34375,10 15.109375,10 C17.8671875,10 19.53125,12.234375 19.53125,15.84375 C19.53125,19.453125 17.8828125,21.7265625 15.109375,21.7265625 Z M15.109375,20.078125 C16.6328125,20.078125 17.5,18.5234375 17.5,15.8515625 C17.5,13.2109375 16.6171875,11.6484375 15.109375,11.6484375 C13.59375,11.6484375 12.703125,13.21875 12.703125,15.84375 C12.703125,18.515625 13.578125,20.078125 15.109375,20.078125 Z M23.4760417,16.4453125 L23.4760417,14.9453125 L24.7651042,14.9453125 C26.0072917,14.9453125 26.8354167,14.234375 26.8354167,13.234375 C26.8354167,12.2421875 26.1791667,11.6015625 24.9369792,11.6015625 C23.7494792,11.6015625 22.8979167,12.234375 22.8276042,13.296875 L20.9526042,13.296875 C21.0854167,11.28125 22.6713542,10 24.9369792,10 C27.2729167,10 28.7729167,11.21875 28.7729167,12.9609375 C28.7729167,14.3828125 27.7651042,15.3203125 26.4057292,15.6015625 L26.4057292,15.640625 C28.0697917,15.796875 29.1713542,16.796875 29.1713542,18.3671875 C29.1713542,20.3671875 27.4213542,21.7265625 24.9526042,21.7265625 C22.4838542,21.7265625 20.8119792,20.375 20.7104167,18.3828125 L22.6401042,18.3828125 C22.7182292,19.40625 23.6166667,20.078125 24.9526042,20.078125 C26.2416667,20.078125 27.1244792,19.3515625 27.1244792,18.3203125 C27.1322917,17.1171875 26.2572917,16.4453125 24.8119792,16.4453125 L23.4760417,16.4453125 Z M37.31875,21.6640625 C34.8890625,21.6640625 33.3109375,20.046875 33.3109375,17.359375 C33.3109375,14.6875 34.9046875,13.046875 37.31875,13.046875 C39.7328125,13.046875 41.3265625,14.6796875 41.3265625,17.359375 C41.3265625,20.046875 39.7484375,21.6640625 37.31875,21.6640625 Z M37.31875,20.125 C38.553125,20.125 39.35,19.125 39.35,17.359375 C39.35,15.6015625 38.553125,14.59375 37.31875,14.59375 C36.0921875,14.59375 35.2875,15.6015625 35.2875,17.359375 C35.2875,19.125 36.084375,20.125 37.31875,20.125 Z M49.7401042,16.171875 L47.9041667,16.171875 C47.7479167,15.2890625 47.1307292,14.625 46.0916667,14.625 C44.8651042,14.625 44.0760417,15.65625 44.0760417,17.359375 C44.0760417,19.09375 44.8729167,20.09375 46.1072917,20.09375 C47.0916667,20.09375 47.7322917,19.53125 47.9119792,18.59375 L49.7479167,18.59375 C49.5916667,20.4453125 48.1619792,21.6640625 46.0838542,21.6640625 C43.6619792,21.6640625 42.0994792,20.046875 42.0994792,17.359375 C42.0994792,14.7109375 43.6619792,13.046875 46.0682292,13.046875 C48.2557292,13.046875 49.6072917,14.4296875 49.7401042,16.171875 Z M51.3098959,11.28125 L53.2552084,11.28125 L53.2552084,13.21875 L54.8177084,13.21875 L54.8177084,14.71875 L53.2552084,14.71875 L53.2552084,19.0234375 C53.2552084,19.703125 53.5677084,20.015625 54.2552084,20.015625 C54.4348959,20.015625 54.6848959,20 54.8098959,19.9765625 L54.8098959,21.4609375 C54.5989584,21.5078125 54.2161459,21.5390625 53.8020834,21.5390625 C52.0130209,21.5390625 51.3098959,20.90625 51.3098959,19.296875 L51.3098959,14.71875 L50.1223959,14.71875 L50.1223959,13.21875 L51.3098959,13.21875 L51.3098959,11.28125 Z" id="03-oct" fill="#393939" opacity="0.781668527"></path>
            </g>
            <g id="Por-c" transform="translate(74.000000, 0.000000)">
                <rect id="Rectangle" fill="#F2F3F4" opacity="0.112095424" x="0.5" y="0" width="67" height="31.70947" rx="4"></rect>
                <path d="M15.109375,21.7265625 C12.328125,21.7265625 10.671875,19.46875 10.671875,15.8515625 C10.671875,12.25 12.34375,10 15.109375,10 C17.8671875,10 19.53125,12.234375 19.53125,15.84375 C19.53125,19.453125 17.8828125,21.7265625 15.109375,21.7265625 Z M15.109375,20.078125 C16.6328125,20.078125 17.5,18.5234375 17.5,15.8515625 C17.5,13.2109375 16.6171875,11.6484375 15.109375,11.6484375 C13.59375,11.6484375 12.703125,13.21875 12.703125,15.84375 C12.703125,18.515625 13.578125,20.078125 15.109375,20.078125 Z M26.2729167,21.5 L26.2729167,19.3359375 L20.6479167,19.3359375 L20.6479167,17.6171875 C21.6244792,15.78125 22.8822917,13.78125 25.3276042,10.2265625 L28.1947917,10.2265625 L28.1947917,17.6796875 L29.7260417,17.6796875 L29.7260417,19.3359375 L28.1947917,19.3359375 L28.1947917,21.5 L26.2729167,21.5 Z M22.4604167,17.671875 L22.4604167,17.7265625 L26.3041667,17.7265625 L26.3041667,11.7265625 L26.2729167,11.7265625 C24.4526042,14.3359375 23.3588542,16.03125 22.4604167,17.671875 Z M37.5765625,21.6640625 C35.146875,21.6640625 33.56875,20.046875 33.56875,17.359375 C33.56875,14.6875 35.1625,13.046875 37.5765625,13.046875 C39.990625,13.046875 41.584375,14.6796875 41.584375,17.359375 C41.584375,20.046875 40.00625,21.6640625 37.5765625,21.6640625 Z M37.5765625,20.125 C38.8109375,20.125 39.6078125,19.125 39.6078125,17.359375 C39.6078125,15.6015625 38.8109375,14.59375 37.5765625,14.59375 C36.35,14.59375 35.5453125,15.6015625 35.5453125,17.359375 C35.5453125,19.125 36.3421875,20.125 37.5765625,20.125 Z M49.9979167,16.171875 L48.1619792,16.171875 C48.0057292,15.2890625 47.3885417,14.625 46.3494792,14.625 C45.1229167,14.625 44.3338542,15.65625 44.3338542,17.359375 C44.3338542,19.09375 45.1307292,20.09375 46.3651042,20.09375 C47.3494792,20.09375 47.9901042,19.53125 48.1697917,18.59375 L50.0057292,18.59375 C49.8494792,20.4453125 48.4197917,21.6640625 46.3416667,21.6640625 C43.9197917,21.6640625 42.3572917,20.046875 42.3572917,17.359375 C42.3572917,14.7109375 43.9197917,13.046875 46.3260417,13.046875 C48.5135417,13.046875 49.8651042,14.4296875 49.9979167,16.171875 Z M51.5677084,11.28125 L53.5130209,11.28125 L53.5130209,13.21875 L55.0755209,13.21875 L55.0755209,14.71875 L53.5130209,14.71875 L53.5130209,19.0234375 C53.5130209,19.703125 53.8255209,20.015625 54.5130209,20.015625 C54.6927084,20.015625 54.9427084,20 55.0677084,19.9765625 L55.0677084,21.4609375 C54.8567709,21.5078125 54.4739584,21.5390625 54.0598959,21.5390625 C52.2708334,21.5390625 51.5677084,20.90625 51.5677084,19.296875 L51.5677084,14.71875 L50.3802084,14.71875 L50.3802084,13.21875 L51.5677084,13.21875 L51.5677084,11.28125 Z" id="04-oct" fill="#FFFFFF"></path>
            </g>
            <g id="Por-c" transform="translate(149.000000, 0.000000)">
                <rect id="Rectangle" fill="#F2F3F4" opacity="0.0753348214" x="0" y="0" width="67" height="31.70947" rx="4"></rect>
                <path d="M15.109375,21.7265625 C12.328125,21.7265625 10.671875,19.46875 10.671875,15.8515625 C10.671875,12.25 12.34375,10 15.109375,10 C17.8671875,10 19.53125,12.234375 19.53125,15.84375 C19.53125,19.453125 17.8828125,21.7265625 15.109375,21.7265625 Z M15.109375,20.078125 C16.6328125,20.078125 17.5,18.5234375 17.5,15.8515625 C17.5,13.2109375 16.6171875,11.6484375 15.109375,11.6484375 C13.59375,11.6484375 12.703125,13.21875 12.703125,15.84375 C12.703125,18.515625 13.578125,20.078125 15.109375,20.078125 Z M25.0229167,21.7265625 C22.7026042,21.7265625 21.0151042,20.328125 20.9291667,18.328125 L22.8197917,18.328125 C22.9447917,19.3828125 23.8510417,20.09375 25.0385417,20.09375 C26.3822917,20.09375 27.3119792,19.1640625 27.3119792,17.8359375 C27.3119792,16.515625 26.3744792,15.5859375 25.0463542,15.5859375 C24.0776042,15.5859375 23.3197917,16.015625 22.8901042,16.78125 L21.1322917,16.78125 L21.6713542,10.2265625 L28.5932292,10.2265625 L28.5932292,11.875 L23.2807292,11.875 L22.9682292,15.2734375 L23.0072917,15.2734375 C23.4994792,14.515625 24.4291667,14.0703125 25.5619792,14.0703125 C27.7104167,14.0703125 29.2572917,15.6328125 29.2572917,17.78125 C29.2572917,20.1171875 27.5229167,21.7265625 25.0229167,21.7265625 Z M37.1859375,21.6640625 C34.75625,21.6640625 33.178125,20.046875 33.178125,17.359375 C33.178125,14.6875 34.771875,13.046875 37.1859375,13.046875 C39.6,13.046875 41.19375,14.6796875 41.19375,17.359375 C41.19375,20.046875 39.615625,21.6640625 37.1859375,21.6640625 Z M37.1859375,20.125 C38.4203125,20.125 39.2171875,19.125 39.2171875,17.359375 C39.2171875,15.6015625 38.4203125,14.59375 37.1859375,14.59375 C35.959375,14.59375 35.1546875,15.6015625 35.1546875,17.359375 C35.1546875,19.125 35.9515625,20.125 37.1859375,20.125 Z M49.6072917,16.171875 L47.7713542,16.171875 C47.6151042,15.2890625 46.9979167,14.625 45.9588542,14.625 C44.7322917,14.625 43.9432292,15.65625 43.9432292,17.359375 C43.9432292,19.09375 44.7401042,20.09375 45.9744792,20.09375 C46.9588542,20.09375 47.5994792,19.53125 47.7791667,18.59375 L49.6151042,18.59375 C49.4588542,20.4453125 48.0291667,21.6640625 45.9510417,21.6640625 C43.5291667,21.6640625 41.9666667,20.046875 41.9666667,17.359375 C41.9666667,14.7109375 43.5291667,13.046875 45.9354167,13.046875 C48.1229167,13.046875 49.4744792,14.4296875 49.6072917,16.171875 Z M51.1770834,11.28125 L53.1223959,11.28125 L53.1223959,13.21875 L54.6848959,13.21875 L54.6848959,14.71875 L53.1223959,14.71875 L53.1223959,19.0234375 C53.1223959,19.703125 53.4348959,20.015625 54.1223959,20.015625 C54.3020834,20.015625 54.5520834,20 54.6770834,19.9765625 L54.6770834,21.4609375 C54.4661459,21.5078125 54.0833334,21.5390625 53.6692709,21.5390625 C51.8802084,21.5390625 51.1770834,20.90625 51.1770834,19.296875 L51.1770834,14.71875 L49.9895834,14.71875 L49.9895834,13.21875 L51.1770834,13.21875 L51.1770834,11.28125 Z" id="05-oct" fill="#393939" opacity="0.781668527"></path>
            </g>
        </g>
        <rect id="Rectangle" fill="url(#linearGradient-1)" x="0" y="-3" width="38" height="38"></rect>
        <rect id="Rectangle" fill="url(#linearGradient-1)" transform="translate(186.000000, 16.000000) scale(-1, 1) translate(-186.000000, -16.000000) " x="167" y="-3" width="38" height="38"></rect>
    </g>
</svg>