<?xml version="1.0" encoding="UTF-8"?>
<svg width="532px" height="530px" viewBox="0 0 532 530" version="1.1" xmlns="http://www.w3.org/2000/svg" xmlns:xlink="http://www.w3.org/1999/xlink">
    <!-- Generator: Sketch 52 (66869) - http://www.bohemiancoding.com/sketch -->
    <title>Artboard</title>
    <desc>Created with Sketch.</desc>
    <defs>
        <linearGradient x1="9.33726339%" y1="13.7459449%" x2="125.189931%" y2="93.1071421%" id="linearGradient-1">
            <stop stop-color="#07CEFF" offset="0%"></stop>
            <stop stop-color="#03A0FF" offset="100%"></stop>
        </linearGradient>
    </defs>
    <g id="Artboard" stroke="none" stroke-width="1" fill="none" fill-rule="evenodd">
        <g id="Group-7" transform="translate(62.000000, 8.000000)">
            <rect id="Rectangle" stroke="#393D4F" stroke-width="2.6" fill-opacity="0.53" fill="#111111" x="1.3" y="1.3" width="168.399999" height="168.399999" rx="52"></rect>
            <path d="M54.7546387,117 L54.7546387,68.6064453 L54.5056152,68.6064453 L39.2321777,78.9824219 L39.2321777,67.859375 L54.7131348,57.1098633 L67.1643066,57.1098633 L67.1643066,117 L54.7546387,117 Z M103.563232,118.328125 C90.7385254,118.328125 81.4416504,110.691406 81.1096191,99.8173828 L92.689209,99.8173828 C93.3947754,105.005371 97.8356934,108.408691 103.604736,108.408691 C110.203857,108.408691 114.769287,103.884766 114.769287,97.3686523 C114.769287,90.9355469 110.203857,86.4116211 103.64624,86.4116211 C98.8317871,86.4116211 95.0964355,88.652832 93.0627441,92.2636719 L82.1472168,92.2636719 L84.8864746,57.1098633 L123.111572,57.1098633 L123.111572,67.0708008 L94.8474121,67.0708008 L93.3947754,83.9213867 L93.6437988,83.9213867 C96.1340332,79.8955078 101.072998,77.4467773 107.132568,77.4467773 C118.546143,77.4467773 126.722412,85.6645508 126.722412,97.078125 C126.722412,109.736816 117.301025,118.328125 103.563232,118.328125 Z" id="15" fill="#393D4F"></path>
            <rect id="Rectangle" stroke="url(#linearGradient-1)" stroke-width="2.6" fill-opacity="0.52918365" fill="#3E3E3E" x="231.3" y="1.3" width="168.399999" height="168.399999" rx="52"></rect>
            <path d="M279.578369,89.6450195 L279.578369,80.7216797 L286.260498,80.7216797 C292.527588,80.7216797 296.594971,77.3183594 296.594971,72.4208984 C296.594971,67.5234375 293.233154,64.4106445 287.256592,64.4106445 C281.363037,64.4106445 277.25415,67.5649414 276.880615,72.7529297 L265.384033,72.7529297 C266.006592,61.7958984 274.722412,54.7817383 287.256592,54.7817383 C299.915283,54.7817383 308.465088,61.0488281 308.465088,70.6362305 C308.465088,78.2729492 303.028076,83.2119141 295.972412,84.6645508 L295.972412,84.9135742 C304.854248,85.7436523 310.664795,91.0146484 310.664795,99.2324219 C310.664795,110.106445 301.243408,117.328125 287.3396,117.328125 C273.809326,117.328125 264.595459,110.023438 264.055908,99.0249023 L276.009033,99.0249023 C276.424072,103.922363 280.740479,107.242676 287.3396,107.242676 C293.606689,107.242676 297.923096,103.756348 297.923096,98.6928711 C297.9646,92.8823242 293.689697,89.6450195 286.426514,89.6450195 L279.578369,89.6450195 Z M342.290771,117.328125 C327.100342,117.328125 317.844971,105.333496 317.844971,85.9511719 C317.844971,66.6103516 327.18335,54.7402344 342.290771,54.7402344 C357.398193,54.7402344 366.695068,66.5688477 366.695068,85.909668 C366.695068,105.250488 357.481201,117.328125 342.290771,117.328125 Z M342.290771,107.28418 C349.678467,107.28418 353.953369,99.6889648 353.953369,85.9511719 C353.953369,72.2963867 349.636963,64.7841797 342.290771,64.7841797 C334.986084,64.7841797 330.58667,72.3378906 330.58667,85.9511719 C330.58667,99.6889648 334.903076,107.28418 342.290771,107.28418 Z" id="30" fill="#FFFFFF"></path>
        </g>
        <path d="M105.36193,219 L105.36193,200.881348 L105.27111,200.881348 L99.6251138,204.756348 L99.6251138,201.168945 L105.331657,197.157715 L109.19152,197.157715 L109.19152,219 L105.36193,219 Z M122.132406,219.438965 C117.6368,219.438965 114.367269,216.729492 114.200765,212.854492 L117.863851,212.854492 C118.106038,214.897949 119.861898,216.275391 122.162679,216.275391 C124.766195,216.275391 126.567464,214.474121 126.567464,211.900879 C126.567464,209.342773 124.751058,207.541504 122.177816,207.541504 C120.300863,207.541504 118.832601,208.374023 118.000081,209.857422 L114.59432,209.857422 L115.638753,197.157715 L129.049886,197.157715 L129.049886,200.351562 L118.756917,200.351562 L118.151448,206.936035 L118.227132,206.936035 C119.180745,205.467773 120.982015,204.60498 123.176839,204.60498 C127.339437,204.60498 130.336507,207.632324 130.336507,211.794922 C130.336507,216.320801 126.976156,219.438965 122.132406,219.438965 Z M138.599137,219 L138.599137,202.955078 L142.216813,202.955078 L142.216813,205.740234 L142.292497,205.740234 C142.988786,203.878418 144.684098,202.652344 146.863786,202.652344 C149.134294,202.652344 150.753923,203.817871 151.344255,205.876465 L151.435075,205.876465 C152.207048,203.893555 154.114274,202.652344 156.430192,202.652344 C159.593766,202.652344 161.667497,204.786621 161.667497,207.995605 L161.667497,219 L157.898454,219 L157.898454,208.918945 C157.898454,206.951172 156.869157,205.831055 155.022477,205.831055 C153.206071,205.831055 151.96486,207.163086 151.96486,209.085449 L151.96486,219 L148.301774,219 L148.301774,208.722168 C148.301774,206.936035 147.21193,205.831055 145.456071,205.831055 C143.639665,205.831055 142.36818,207.23877 142.36818,209.17627 L142.36818,219 L138.599137,219 Z M164.512191,219 L164.512191,202.955078 L168.281234,202.955078 L168.281234,219 L164.512191,219 Z M166.374007,200.533203 C165.238753,200.533203 164.315413,199.609863 164.315413,198.489746 C164.315413,197.354492 165.238753,196.446289 166.374007,196.446289 C167.539535,196.446289 168.447738,197.354492 168.447738,198.489746 C168.447738,199.609863 167.539535,200.533203 166.374007,200.533203 Z M171.186475,219 L171.186475,202.955078 L174.80415,202.955078 L174.80415,205.709961 L174.879834,205.709961 C175.742627,203.802734 177.453076,202.652344 179.920361,202.652344 C183.462354,202.652344 185.475537,204.922852 185.475537,208.631348 L185.475537,219 L181.706494,219 L181.706494,209.388184 C181.706494,207.117676 180.646924,205.846191 178.49751,205.846191 C176.332959,205.846191 174.955518,207.405273 174.955518,209.706055 L174.955518,219 L171.186475,219 Z M190.8632,219.166504 C189.637126,219.166504 188.683512,218.212891 188.683512,216.986816 C188.683512,215.775879 189.637126,214.807129 190.8632,214.807129 C192.074137,214.807129 193.027751,215.775879 193.027751,216.986816 C193.027751,218.212891 192.074137,219.166504 190.8632,219.166504 Z" id="15-min." fill="#FFFFFF"></path>
        <path d="M335.122672,209.206543 L335.122672,206.300293 L337.620231,206.300293 C340.026969,206.300293 341.631461,204.922852 341.631461,202.985352 C341.631461,201.062988 340.359977,199.821777 337.953239,199.821777 C335.652458,199.821777 334.002555,201.047852 333.866325,203.106445 L330.233512,203.106445 C330.490836,199.201172 333.56359,196.71875 337.953239,196.71875 C342.479118,196.71875 345.385368,199.080078 345.385368,202.455566 C345.385368,205.210449 343.432731,207.026855 340.798942,207.571777 L340.798942,207.647461 C344.023063,207.950195 346.15734,209.887695 346.15734,212.930176 C346.15734,216.805176 342.766715,219.438965 337.983512,219.438965 C333.200309,219.438965 329.961051,216.820312 329.764274,212.960449 L333.503043,212.960449 C333.654411,214.943359 335.395133,216.245117 337.983512,216.245117 C340.481071,216.245117 342.19152,214.837402 342.19152,212.839355 C342.206657,210.508301 340.511344,209.206543 337.711051,209.206543 L335.122672,209.206543 Z M357.206136,219.438965 C351.817464,219.438965 348.60848,215.064453 348.60848,208.056152 C348.60848,201.078125 351.847738,196.71875 357.206136,196.71875 C362.549398,196.71875 365.773519,201.047852 365.773519,208.041016 C365.773519,215.03418 362.579671,219.438965 357.206136,219.438965 Z M357.206136,216.245117 C360.157796,216.245117 361.837972,213.23291 361.837972,208.056152 C361.837972,202.939941 360.127523,199.912598 357.206136,199.912598 C354.269613,199.912598 352.544027,202.955078 352.544027,208.041016 C352.544027,213.217773 354.239339,216.245117 357.206136,216.245117 Z M374.30861,219 L374.30861,202.955078 L377.926286,202.955078 L377.926286,205.740234 L378.001969,205.740234 C378.698258,203.878418 380.393571,202.652344 382.573258,202.652344 C384.843766,202.652344 386.463395,203.817871 387.053727,205.876465 L387.144548,205.876465 C387.91652,203.893555 389.823747,202.652344 392.139665,202.652344 C395.303239,202.652344 397.376969,204.786621 397.376969,207.995605 L397.376969,219 L393.607926,219 L393.607926,208.918945 C393.607926,206.951172 392.57863,205.831055 390.73195,205.831055 C388.915544,205.831055 387.674333,207.163086 387.674333,209.085449 L387.674333,219 L384.011247,219 L384.011247,208.722168 C384.011247,206.936035 382.921403,205.831055 381.165544,205.831055 C379.349137,205.831055 378.077653,207.23877 378.077653,209.17627 L378.077653,219 L374.30861,219 Z M400.221663,219 L400.221663,202.955078 L403.990706,202.955078 L403.990706,219 L400.221663,219 Z M402.08348,200.533203 C400.948226,200.533203 400.024886,199.609863 400.024886,198.489746 C400.024886,197.354492 400.948226,196.446289 402.08348,196.446289 C403.249007,196.446289 404.15721,197.354492 404.15721,198.489746 C404.15721,199.609863 403.249007,200.533203 402.08348,200.533203 Z M406.895947,219 L406.895947,202.955078 L410.513623,202.955078 L410.513623,205.709961 L410.589307,205.709961 C411.4521,203.802734 413.162549,202.652344 415.629834,202.652344 C419.171826,202.652344 421.18501,204.922852 421.18501,208.631348 L421.18501,219 L417.415967,219 L417.415967,209.388184 C417.415967,207.117676 416.356397,205.846191 414.206982,205.846191 C412.042432,205.846191 410.66499,207.405273 410.66499,209.706055 L410.66499,219 L406.895947,219 Z M426.572673,219.166504 C425.346598,219.166504 424.392985,218.212891 424.392985,216.986816 C424.392985,215.775879 425.346598,214.807129 426.572673,214.807129 C427.78361,214.807129 428.737223,215.775879 428.737223,216.986816 C428.737223,218.212891 427.78361,219.166504 426.572673,219.166504 Z" id="30-min." fill="#FFFFFF"></path>
        <path d="M114.615967,243.827148 L114.615967,247.733887 C116.246338,247.600586 116.984619,246.852051 116.984619,245.82666 C116.984619,244.832031 116.4104,244.27832 114.615967,243.827148 Z M113.508545,241.212402 L113.508545,237.47998 C112.083252,237.633789 111.344971,238.413086 111.344971,239.305176 C111.344971,240.187012 111.960205,240.8125 113.508545,241.212402 Z M114.615967,241.46875 L115.241455,241.612305 C117.979248,242.248047 119.445557,243.355469 119.445557,245.570312 C119.445557,248.123535 117.374268,249.610352 114.615967,249.784668 L114.615967,251.466309 L113.508545,251.466309 L113.508545,249.784668 C110.760498,249.620605 108.678955,248.123535 108.607178,245.621582 L110.996338,245.621582 C111.180908,246.759766 111.939697,247.569824 113.508545,247.723633 L113.508545,243.581055 L112.94458,243.447754 C110.309326,242.842773 108.873779,241.65332 108.873779,239.510254 C108.873779,237.141602 110.801514,235.593262 113.508545,235.418945 L113.508545,233.716797 L114.615967,233.716797 L114.615967,235.418945 C117.322998,235.61377 119.189209,237.182617 119.27124,239.561523 L116.88208,239.561523 C116.738525,238.341309 115.866943,237.633789 114.615967,237.47998 L114.615967,241.46875 Z M122.593506,250 L129.084229,237.418457 L129.084229,237.367188 L121.393799,237.367188 L121.393799,235.203613 L131.688721,235.203613 L131.688721,237.408203 L125.362061,250 L122.593506,250 Z M139.081787,250.297363 C136.036377,250.297363 133.821533,248.461914 133.70874,245.836914 L136.190186,245.836914 C136.354248,247.221191 137.543701,248.154297 139.102295,248.154297 C140.865967,248.154297 142.086182,246.934082 142.086182,245.190918 C142.086182,243.458008 140.855713,242.237793 139.112549,242.237793 C137.841064,242.237793 136.846436,242.801758 136.282471,243.806641 L133.975342,243.806641 L134.682861,235.203613 L143.767822,235.203613 L143.767822,237.367188 L136.795166,237.367188 L136.38501,241.827637 L136.436279,241.827637 C137.082275,240.833008 138.30249,240.248535 139.789307,240.248535 C142.609131,240.248535 144.639404,242.299316 144.639404,245.119141 C144.639404,248.185059 142.363037,250.297363 139.081787,250.297363 Z M150.58667,250 L150.58667,239.130859 L153.037354,239.130859 L153.037354,241.017578 L153.088623,241.017578 C153.560303,239.756348 154.70874,238.925781 156.185303,238.925781 C157.723389,238.925781 158.820557,239.715332 159.220459,241.109863 L159.281982,241.109863 C159.804932,239.766602 161.096924,238.925781 162.665771,238.925781 C164.808838,238.925781 166.213623,240.371582 166.213623,242.54541 L166.213623,250 L163.6604,250 L163.6604,243.170898 C163.6604,241.837891 162.963135,241.079102 161.712158,241.079102 C160.481689,241.079102 159.640869,241.981445 159.640869,243.283691 L159.640869,250 L157.159424,250 L157.159424,243.037598 C157.159424,241.827637 156.421143,241.079102 155.231689,241.079102 C154.001221,241.079102 153.139893,242.032715 153.139893,243.345215 L153.139893,250 L150.58667,250 Z M172.499268,246.103516 L172.447998,246.103516 L170.192139,250 L167.474854,250 L170.981689,244.575684 L167.505615,239.130859 L170.376709,239.130859 L172.571045,242.945312 L172.622314,242.945312 L174.785889,239.130859 L177.585205,239.130859 L174.088623,244.503906 L177.544189,250 L174.755127,250 L172.499268,246.103516 Z M178.887451,250 L178.887451,239.130859 L181.338135,239.130859 L181.338135,240.99707 L181.389404,240.99707 C181.973877,239.705078 183.132568,238.925781 184.803955,238.925781 C187.203369,238.925781 188.567139,240.463867 188.567139,242.976074 L188.567139,250 L186.013916,250 L186.013916,243.48877 C186.013916,241.950684 185.296143,241.089355 183.840088,241.089355 C182.373779,241.089355 181.440674,242.145508 181.440674,243.704102 L181.440674,250 L178.887451,250 Z" id="$75-mxn" fill="#393D4F"></path>
        <path d="M339.430176,243.827148 L339.430176,247.733887 C341.060547,247.600586 341.798828,246.852051 341.798828,245.82666 C341.798828,244.832031 341.224609,244.27832 339.430176,243.827148 Z M338.322754,241.212402 L338.322754,237.47998 C336.897461,237.633789 336.15918,238.413086 336.15918,239.305176 C336.15918,240.187012 336.774414,240.8125 338.322754,241.212402 Z M339.430176,241.46875 L340.055664,241.612305 C342.793457,242.248047 344.259766,243.355469 344.259766,245.570312 C344.259766,248.123535 342.188477,249.610352 339.430176,249.784668 L339.430176,251.466309 L338.322754,251.466309 L338.322754,249.784668 C335.574707,249.620605 333.493164,248.123535 333.421387,245.621582 L335.810547,245.621582 C335.995117,246.759766 336.753906,247.569824 338.322754,247.723633 L338.322754,243.581055 L337.758789,243.447754 C335.123535,242.842773 333.687988,241.65332 333.687988,239.510254 C333.687988,237.141602 335.615723,235.593262 338.322754,235.418945 L338.322754,233.716797 L339.430176,233.716797 L339.430176,235.418945 C342.137207,235.61377 344.003418,237.182617 344.085449,239.561523 L341.696289,239.561523 C341.552734,238.341309 340.681152,237.633789 339.430176,237.47998 L339.430176,241.46875 Z M350.340332,250 L350.340332,237.726074 L350.278809,237.726074 L346.454102,240.351074 L346.454102,237.920898 L350.319824,235.203613 L352.93457,235.203613 L352.93457,250 L350.340332,250 Z M361.875977,250.297363 C358.830566,250.297363 356.615723,248.461914 356.50293,245.836914 L358.984375,245.836914 C359.148438,247.221191 360.337891,248.154297 361.896484,248.154297 C363.660156,248.154297 364.880371,246.934082 364.880371,245.190918 C364.880371,243.458008 363.649902,242.237793 361.906738,242.237793 C360.635254,242.237793 359.640625,242.801758 359.07666,243.806641 L356.769531,243.806641 L357.477051,235.203613 L366.562012,235.203613 L366.562012,237.367188 L359.589355,237.367188 L359.179199,241.827637 L359.230469,241.827637 C359.876465,240.833008 361.09668,240.248535 362.583496,240.248535 C365.40332,240.248535 367.433594,242.299316 367.433594,245.119141 C367.433594,248.185059 365.157227,250.297363 361.875977,250.297363 Z M374.836914,250.297363 C371.186523,250.297363 369.012695,247.333984 369.012695,242.586426 C369.012695,237.859375 371.207031,234.90625 374.836914,234.90625 C378.456543,234.90625 380.640625,237.838867 380.640625,242.576172 C380.640625,247.313477 378.477051,250.297363 374.836914,250.297363 Z M374.836914,248.133789 C376.836426,248.133789 377.974609,246.093262 377.974609,242.586426 C377.974609,239.120605 376.815918,237.069824 374.836914,237.069824 C372.847656,237.069824 371.678711,239.130859 371.678711,242.576172 C371.678711,246.083008 372.827148,248.133789 374.836914,248.133789 Z M386.772461,250 L386.772461,239.130859 L389.223145,239.130859 L389.223145,241.017578 L389.274414,241.017578 C389.746094,239.756348 390.894531,238.925781 392.371094,238.925781 C393.90918,238.925781 395.006348,239.715332 395.40625,241.109863 L395.467773,241.109863 C395.990723,239.766602 397.282715,238.925781 398.851562,238.925781 C400.994629,238.925781 402.399414,240.371582 402.399414,242.54541 L402.399414,250 L399.846191,250 L399.846191,243.170898 C399.846191,241.837891 399.148926,241.079102 397.897949,241.079102 C396.66748,241.079102 395.82666,241.981445 395.82666,243.283691 L395.82666,250 L393.345215,250 L393.345215,243.037598 C393.345215,241.827637 392.606934,241.079102 391.41748,241.079102 C390.187012,241.079102 389.325684,242.032715 389.325684,243.345215 L389.325684,250 L386.772461,250 Z M408.685059,246.103516 L408.633789,246.103516 L406.37793,250 L403.660645,250 L407.16748,244.575684 L403.691406,239.130859 L406.5625,239.130859 L408.756836,242.945312 L408.808105,242.945312 L410.97168,239.130859 L413.770996,239.130859 L410.274414,244.503906 L413.72998,250 L410.940918,250 L408.685059,246.103516 Z M415.073242,250 L415.073242,239.130859 L417.523926,239.130859 L417.523926,240.99707 L417.575195,240.99707 C418.159668,239.705078 419.318359,238.925781 420.989746,238.925781 C423.38916,238.925781 424.75293,240.463867 424.75293,242.976074 L424.75293,250 L422.199707,250 L422.199707,243.48877 C422.199707,241.950684 421.481934,241.089355 420.025879,241.089355 C418.55957,241.089355 417.626465,242.145508 417.626465,243.704102 L417.626465,250 L415.073242,250 Z" id="$150-mxn" fill="#9E9E9E" opacity="0.856654576"></path>
        <g id="Group-7" transform="translate(62.000000, 287.000000)">
            <rect id="Rectangle" stroke="#393D4F" stroke-width="2.6" fill-opacity="0.53" fill="#111111" x="1.3" y="1.3" width="168.399999" height="168.399999" rx="52"></rect>
            <path d="M61.2084961,117 L61.2084961,106.001465 L31.4086914,106.001465 L31.4086914,95.5424805 C36.6381836,85.6230469 43.1542969,75.1640625 55.4394531,57.1098633 L73.1201172,57.1098633 L73.1201172,95.9990234 L81.0058594,95.9990234 L81.0058594,106.001465 L73.1201172,106.001465 L73.1201172,117 L61.2084961,117 Z M42.3242188,95.9990234 L42.3242188,96.3310547 L61.4575195,96.3310547 L61.4575195,66.074707 L61.2084961,66.074707 C52.5341797,78.5673828 47.097168,87.0756836 42.3242188,95.9990234 Z M110.681152,118.328125 C97.8564453,118.328125 88.5595703,110.691406 88.2275391,99.8173828 L99.8071289,99.8173828 C100.512695,105.005371 104.953613,108.408691 110.722656,108.408691 C117.321777,108.408691 121.887207,103.884766 121.887207,97.3686523 C121.887207,90.9355469 117.321777,86.4116211 110.76416,86.4116211 C105.949707,86.4116211 102.214355,88.652832 100.180664,92.2636719 L89.2651367,92.2636719 L92.0043945,57.1098633 L130.229492,57.1098633 L130.229492,67.0708008 L101.965332,67.0708008 L100.512695,83.9213867 L100.761719,83.9213867 C103.251953,79.8955078 108.190918,77.4467773 114.250488,77.4467773 C125.664062,77.4467773 133.840332,85.6645508 133.840332,97.078125 C133.840332,109.736816 124.418945,118.328125 110.681152,118.328125 Z" id="45" fill="#393D4F"></path>
            <rect id="Rectangle" stroke="#393D4F" stroke-width="2.6" fill-opacity="0.52918365" fill="#111111" x="231.3" y="1.3" width="168.399999" height="168.399999" rx="52"></rect>
            <path d="M288.688477,117.328125 C274.369629,117.328125 263.703125,107.201172 263.703125,86.5322266 C263.703125,66.6933594 273.166016,54.7402344 288.72998,54.7402344 C300.351074,54.7402344 309.315918,61.546875 310.976074,71.4248047 L298.60791,71.4248047 C297.196777,67.1499023 293.627441,64.659668 288.688477,64.659668 C279.972656,64.659668 275.65625,73.0849609 275.697754,86.2001953 L275.946777,86.2001953 C278.270996,80.6386719 284.164551,76.5712891 292.257812,76.5712891 C303.837402,76.5712891 311.764648,84.8305664 311.764648,96.078125 C311.764648,108.487793 302.052734,117.328125 288.688477,117.328125 Z M288.522461,107.367188 C294.665039,107.367188 299.520996,102.635742 299.5625,96.6176758 C299.5625,90.309082 294.914062,85.8266602 288.646973,85.8266602 C282.296875,85.8266602 277.56543,90.2675781 277.56543,96.3686523 C277.56543,102.552734 282.379883,107.367188 288.522461,107.367188 Z M342.851074,117.328125 C327.660645,117.328125 318.405273,105.333496 318.405273,85.9511719 C318.405273,66.6103516 327.743652,54.7402344 342.851074,54.7402344 C357.958496,54.7402344 367.255371,66.5688477 367.255371,85.909668 C367.255371,105.250488 358.041504,117.328125 342.851074,117.328125 Z M342.851074,107.28418 C350.23877,107.28418 354.513672,99.6889648 354.513672,85.9511719 C354.513672,72.2963867 350.197266,64.7841797 342.851074,64.7841797 C335.546387,64.7841797 331.146973,72.3378906 331.146973,85.9511719 C331.146973,99.6889648 335.463379,107.28418 342.851074,107.28418 Z" id="60" fill="#393D4F"></path>
        </g>
        <path d="M107.692985,498 L107.692985,493.807129 L96.7945474,493.807129 L96.7945474,490.477051 C98.6866373,486.919922 101.123649,483.044922 105.861442,476.157715 L111.416618,476.157715 L111.416618,490.598145 L114.383415,490.598145 L114.383415,493.807129 L111.416618,493.807129 L111.416618,498 L107.692985,498 Z M100.306266,490.583008 L100.306266,490.688965 L107.753532,490.688965 L107.753532,479.063965 L107.692985,479.063965 C104.166129,484.119629 102.046989,487.404297 100.306266,490.583008 Z M124.690511,498.438965 C120.194906,498.438965 116.925374,495.729492 116.75887,491.854492 L120.421956,491.854492 C120.664144,493.897949 122.420003,495.275391 124.720784,495.275391 C127.3243,495.275391 129.12557,493.474121 129.12557,490.900879 C129.12557,488.342773 127.309163,486.541504 124.735921,486.541504 C122.858968,486.541504 121.390706,487.374023 120.558187,488.857422 L117.152425,488.857422 L118.196859,476.157715 L131.607991,476.157715 L131.607991,479.351562 L121.315023,479.351562 L120.709554,485.936035 L120.785238,485.936035 C121.738851,484.467773 123.54012,483.60498 125.734945,483.60498 C129.897542,483.60498 132.894613,486.632324 132.894613,490.794922 C132.894613,495.320801 129.534261,498.438965 124.690511,498.438965 Z M141.157243,498 L141.157243,481.955078 L144.774919,481.955078 L144.774919,484.740234 L144.850602,484.740234 C145.546891,482.878418 147.242204,481.652344 149.421891,481.652344 C151.692399,481.652344 153.312028,482.817871 153.90236,484.876465 L153.99318,484.876465 C154.765153,482.893555 156.67238,481.652344 158.988298,481.652344 C162.151872,481.652344 164.225602,483.786621 164.225602,486.995605 L164.225602,498 L160.456559,498 L160.456559,487.918945 C160.456559,485.951172 159.427262,484.831055 157.580583,484.831055 C155.764176,484.831055 154.522965,486.163086 154.522965,488.085449 L154.522965,498 L150.85988,498 L150.85988,487.722168 C150.85988,485.936035 149.770036,484.831055 148.014176,484.831055 C146.19777,484.831055 144.926286,486.23877 144.926286,488.17627 L144.926286,498 L141.157243,498 Z M167.070296,498 L167.070296,481.955078 L170.839339,481.955078 L170.839339,498 L167.070296,498 Z M168.932113,479.533203 C167.796859,479.533203 166.873519,478.609863 166.873519,477.489746 C166.873519,476.354492 167.796859,475.446289 168.932113,475.446289 C170.09764,475.446289 171.005843,476.354492 171.005843,477.489746 C171.005843,478.609863 170.09764,479.533203 168.932113,479.533203 Z M173.74458,498 L173.74458,481.955078 L177.362256,481.955078 L177.362256,484.709961 L177.43794,484.709961 C178.300732,482.802734 180.011182,481.652344 182.478467,481.652344 C186.020459,481.652344 188.033643,483.922852 188.033643,487.631348 L188.033643,498 L184.2646,498 L184.2646,488.388184 C184.2646,486.117676 183.205029,484.846191 181.055615,484.846191 C178.891065,484.846191 177.513623,486.405273 177.513623,488.706055 L177.513623,498 L173.74458,498 Z M193.421305,498.166504 C192.195231,498.166504 191.241618,497.212891 191.241618,495.986816 C191.241618,494.775879 192.195231,493.807129 193.421305,493.807129 C194.632243,493.807129 195.585856,494.775879 195.585856,495.986816 C195.585856,497.212891 194.632243,498.166504 193.421305,498.166504 Z" id="45-min." fill="#FFFFFF"></path>
        <path d="M338.437614,498.438965 C333.639274,498.438965 329.612907,495.078613 329.612907,487.328613 C329.612907,480.047852 332.942985,475.703613 338.498161,475.703613 C342.554801,475.703613 345.672965,478.064941 346.308708,481.57666 L342.433708,481.57666 C341.873649,479.866211 340.450797,478.882324 338.483024,478.882324 C335.137809,478.882324 333.38195,482.015625 333.351676,487.177246 L333.42736,487.177246 C334.290153,485.164062 336.46984,483.650391 339.436637,483.650391 C343.629508,483.650391 346.596305,486.677734 346.596305,490.810059 C346.596305,495.245117 343.16027,498.438965 338.437614,498.438965 Z M338.377067,495.260254 C340.814079,495.260254 342.751579,493.353027 342.751579,490.961426 C342.766715,488.44873 340.935172,486.662598 338.422477,486.662598 C335.909782,486.662598 334.017692,488.44873 334.017692,490.885742 C334.017692,493.337891 335.940055,495.260254 338.377067,495.260254 Z M357.402913,498.438965 C352.014241,498.438965 348.805257,494.064453 348.805257,487.056152 C348.805257,480.078125 352.044515,475.71875 357.402913,475.71875 C362.746175,475.71875 365.970296,480.047852 365.970296,487.041016 C365.970296,494.03418 362.776448,498.438965 357.402913,498.438965 Z M357.402913,495.245117 C360.354573,495.245117 362.034749,492.23291 362.034749,487.056152 C362.034749,481.939941 360.3243,478.912598 357.402913,478.912598 C354.46639,478.912598 352.740804,481.955078 352.740804,487.041016 C352.740804,492.217773 354.436116,495.245117 357.402913,495.245117 Z M374.505387,498 L374.505387,481.955078 L378.123063,481.955078 L378.123063,484.740234 L378.198747,484.740234 C378.895036,482.878418 380.590348,481.652344 382.770036,481.652344 C385.040544,481.652344 386.660173,482.817871 387.250505,484.876465 L387.341325,484.876465 C388.113298,482.893555 390.020524,481.652344 392.336442,481.652344 C395.500016,481.652344 397.573747,483.786621 397.573747,486.995605 L397.573747,498 L393.804704,498 L393.804704,487.918945 C393.804704,485.951172 392.775407,484.831055 390.928727,484.831055 C389.112321,484.831055 387.87111,486.163086 387.87111,488.085449 L387.87111,498 L384.208024,498 L384.208024,487.722168 C384.208024,485.936035 383.11818,484.831055 381.362321,484.831055 C379.545915,484.831055 378.27443,486.23877 378.27443,488.17627 L378.27443,498 L374.505387,498 Z M400.418441,498 L400.418441,481.955078 L404.187484,481.955078 L404.187484,498 L400.418441,498 Z M402.280257,479.533203 C401.145003,479.533203 400.221663,478.609863 400.221663,477.489746 C400.221663,476.354492 401.145003,475.446289 402.280257,475.446289 C403.445785,475.446289 404.353988,476.354492 404.353988,477.489746 C404.353988,478.609863 403.445785,479.533203 402.280257,479.533203 Z M407.092725,498 L407.092725,481.955078 L410.7104,481.955078 L410.7104,484.709961 L410.786084,484.709961 C411.648877,482.802734 413.359326,481.652344 415.826611,481.652344 C419.368604,481.652344 421.381787,483.922852 421.381787,487.631348 L421.381787,498 L417.612744,498 L417.612744,488.388184 C417.612744,486.117676 416.553174,484.846191 414.40376,484.846191 C412.239209,484.846191 410.861768,486.405273 410.861768,488.706055 L410.861768,498 L407.092725,498 Z M426.76945,498.166504 C425.543376,498.166504 424.589762,497.212891 424.589762,495.986816 C424.589762,494.775879 425.543376,493.807129 426.76945,493.807129 C427.980387,493.807129 428.934001,494.775879 428.934001,495.986816 C428.934001,497.212891 427.980387,498.166504 426.76945,498.166504 Z" id="60-min." fill="#FFFFFF"></path>
        <path d="M104.7146,522.827148 L104.7146,526.733887 C106.344971,526.600586 107.083252,525.852051 107.083252,524.82666 C107.083252,523.832031 106.509033,523.27832 104.7146,522.827148 Z M103.607178,520.212402 L103.607178,516.47998 C102.181885,516.633789 101.443604,517.413086 101.443604,518.305176 C101.443604,519.187012 102.058838,519.8125 103.607178,520.212402 Z M104.7146,520.46875 L105.340088,520.612305 C108.077881,521.248047 109.544189,522.355469 109.544189,524.570312 C109.544189,527.123535 107.4729,528.610352 104.7146,528.784668 L104.7146,530.466309 L103.607178,530.466309 L103.607178,528.784668 C100.859131,528.620605 98.7775879,527.123535 98.7058105,524.621582 L101.094971,524.621582 C101.279541,525.759766 102.03833,526.569824 103.607178,526.723633 L103.607178,522.581055 L103.043213,522.447754 C100.407959,521.842773 98.9724121,520.65332 98.9724121,518.510254 C98.9724121,516.141602 100.900146,514.593262 103.607178,514.418945 L103.607178,512.716797 L104.7146,512.716797 L104.7146,514.418945 C107.421631,514.61377 109.287842,516.182617 109.369873,518.561523 L106.980713,518.561523 C106.837158,517.341309 105.965576,516.633789 104.7146,516.47998 L104.7146,520.46875 Z M115.624756,529 L115.624756,516.726074 L115.563232,516.726074 L111.738525,519.351074 L111.738525,516.920898 L115.604248,514.203613 L118.218994,514.203613 L118.218994,529 L115.624756,529 Z M122.494873,529 L128.985596,516.418457 L128.985596,516.367188 L121.295166,516.367188 L121.295166,514.203613 L131.590088,514.203613 L131.590088,516.408203 L125.263428,529 L122.494873,529 Z M138.983154,529.297363 C135.937744,529.297363 133.7229,527.461914 133.610107,524.836914 L136.091553,524.836914 C136.255615,526.221191 137.445068,527.154297 139.003662,527.154297 C140.767334,527.154297 141.987549,525.934082 141.987549,524.190918 C141.987549,522.458008 140.75708,521.237793 139.013916,521.237793 C137.742432,521.237793 136.747803,521.801758 136.183838,522.806641 L133.876709,522.806641 L134.584229,514.203613 L143.669189,514.203613 L143.669189,516.367188 L136.696533,516.367188 L136.286377,520.827637 L136.337646,520.827637 C136.983643,519.833008 138.203857,519.248535 139.690674,519.248535 C142.510498,519.248535 144.540771,521.299316 144.540771,524.119141 C144.540771,527.185059 142.264404,529.297363 138.983154,529.297363 Z M150.488037,529 L150.488037,518.130859 L152.938721,518.130859 L152.938721,520.017578 L152.98999,520.017578 C153.46167,518.756348 154.610107,517.925781 156.08667,517.925781 C157.624756,517.925781 158.721924,518.715332 159.121826,520.109863 L159.18335,520.109863 C159.706299,518.766602 160.998291,517.925781 162.567139,517.925781 C164.710205,517.925781 166.11499,519.371582 166.11499,521.54541 L166.11499,529 L163.561768,529 L163.561768,522.170898 C163.561768,520.837891 162.864502,520.079102 161.613525,520.079102 C160.383057,520.079102 159.542236,520.981445 159.542236,522.283691 L159.542236,529 L157.060791,529 L157.060791,522.037598 C157.060791,520.827637 156.32251,520.079102 155.133057,520.079102 C153.902588,520.079102 153.04126,521.032715 153.04126,522.345215 L153.04126,529 L150.488037,529 Z M172.400635,525.103516 L172.349365,525.103516 L170.093506,529 L167.376221,529 L170.883057,523.575684 L167.406982,518.130859 L170.278076,518.130859 L172.472412,521.945312 L172.523682,521.945312 L174.687256,518.130859 L177.486572,518.130859 L173.98999,523.503906 L177.445557,529 L174.656494,529 L172.400635,525.103516 Z M178.788818,529 L178.788818,518.130859 L181.239502,518.130859 L181.239502,519.99707 L181.290771,519.99707 C181.875244,518.705078 183.033936,517.925781 184.705322,517.925781 C187.104736,517.925781 188.468506,519.463867 188.468506,521.976074 L188.468506,529 L185.915283,529 L185.915283,522.48877 C185.915283,520.950684 185.19751,520.089355 183.741455,520.089355 C182.275146,520.089355 181.342041,521.145508 181.342041,522.704102 L181.342041,529 L178.788818,529 Z" id="$175-mxn" fill="#393D4F"></path>
        <path d="M336.579346,522.827148 L336.579346,526.733887 C338.209717,526.600586 338.947998,525.852051 338.947998,524.82666 C338.947998,523.832031 338.373779,523.27832 336.579346,522.827148 Z M335.471924,520.212402 L335.471924,516.47998 C334.046631,516.633789 333.30835,517.413086 333.30835,518.305176 C333.30835,519.187012 333.923584,519.8125 335.471924,520.212402 Z M336.579346,520.46875 L337.204834,520.612305 C339.942627,521.248047 341.408936,522.355469 341.408936,524.570312 C341.408936,527.123535 339.337646,528.610352 336.579346,528.784668 L336.579346,530.466309 L335.471924,530.466309 L335.471924,528.784668 C332.723877,528.620605 330.642334,527.123535 330.570557,524.621582 L332.959717,524.621582 C333.144287,525.759766 333.903076,526.569824 335.471924,526.723633 L335.471924,522.581055 L334.907959,522.447754 C332.272705,521.842773 330.837158,520.65332 330.837158,518.510254 C330.837158,516.141602 332.764893,514.593262 335.471924,514.418945 L335.471924,512.716797 L336.579346,512.716797 L336.579346,514.418945 C339.286377,514.61377 341.152588,516.182617 341.234619,518.561523 L338.845459,518.561523 C338.701904,517.341309 337.830322,516.633789 336.579346,516.47998 L336.579346,520.46875 Z M347.130615,522.365723 L347.130615,520.396973 L348.82251,520.396973 C350.452881,520.396973 351.539795,519.463867 351.539795,518.151367 C351.539795,516.849121 350.678467,516.008301 349.048096,516.008301 C347.489502,516.008301 346.371826,516.838867 346.279541,518.233398 L343.818604,518.233398 C343.99292,515.587891 346.074463,513.90625 349.048096,513.90625 C352.114014,513.90625 354.082764,515.505859 354.082764,517.79248 C354.082764,519.658691 352.76001,520.88916 350.97583,521.258301 L350.97583,521.30957 C353.159912,521.514648 354.605713,522.827148 354.605713,524.888184 C354.605713,527.513184 352.308838,529.297363 349.068604,529.297363 C345.828369,529.297363 343.634033,527.523438 343.500732,524.908691 L346.033447,524.908691 C346.135986,526.251953 347.315186,527.133789 349.068604,527.133789 C350.760498,527.133789 351.919189,526.180176 351.919189,524.82666 C351.929443,523.247559 350.781006,522.365723 348.884033,522.365723 L347.130615,522.365723 Z M362.296143,529.297363 C358.645752,529.297363 356.471924,526.333984 356.471924,521.586426 C356.471924,516.859375 358.66626,513.90625 362.296143,513.90625 C365.915771,513.90625 368.099854,516.838867 368.099854,521.576172 C368.099854,526.313477 365.936279,529.297363 362.296143,529.297363 Z M362.296143,527.133789 C364.295654,527.133789 365.433838,525.093262 365.433838,521.586426 C365.433838,518.120605 364.275146,516.069824 362.296143,516.069824 C360.306885,516.069824 359.137939,518.130859 359.137939,521.576172 C359.137939,525.083008 360.286377,527.133789 362.296143,527.133789 Z M375.687744,529.297363 C372.037354,529.297363 369.863525,526.333984 369.863525,521.586426 C369.863525,516.859375 372.057861,513.90625 375.687744,513.90625 C379.307373,513.90625 381.491455,516.838867 381.491455,521.576172 C381.491455,526.313477 379.327881,529.297363 375.687744,529.297363 Z M375.687744,527.133789 C377.687256,527.133789 378.825439,525.093262 378.825439,521.586426 C378.825439,518.120605 377.666748,516.069824 375.687744,516.069824 C373.698486,516.069824 372.529541,518.130859 372.529541,521.576172 C372.529541,525.083008 373.677979,527.133789 375.687744,527.133789 Z M387.623291,529 L387.623291,518.130859 L390.073975,518.130859 L390.073975,520.017578 L390.125244,520.017578 C390.596924,518.756348 391.745361,517.925781 393.221924,517.925781 C394.76001,517.925781 395.857178,518.715332 396.25708,520.109863 L396.318604,520.109863 C396.841553,518.766602 398.133545,517.925781 399.702393,517.925781 C401.845459,517.925781 403.250244,519.371582 403.250244,521.54541 L403.250244,529 L400.697021,529 L400.697021,522.170898 C400.697021,520.837891 399.999756,520.079102 398.748779,520.079102 C397.518311,520.079102 396.67749,520.981445 396.67749,522.283691 L396.67749,529 L394.196045,529 L394.196045,522.037598 C394.196045,520.827637 393.457764,520.079102 392.268311,520.079102 C391.037842,520.079102 390.176514,521.032715 390.176514,522.345215 L390.176514,529 L387.623291,529 Z M409.535889,525.103516 L409.484619,525.103516 L407.22876,529 L404.511475,529 L408.018311,523.575684 L404.542236,518.130859 L407.41333,518.130859 L409.607666,521.945312 L409.658936,521.945312 L411.82251,518.130859 L414.621826,518.130859 L411.125244,523.503906 L414.580811,529 L411.791748,529 L409.535889,525.103516 Z M415.924072,529 L415.924072,518.130859 L418.374756,518.130859 L418.374756,519.99707 L418.426025,519.99707 C419.010498,518.705078 420.169189,517.925781 421.840576,517.925781 C424.23999,517.925781 425.60376,519.463867 425.60376,521.976074 L425.60376,529 L423.050537,529 L423.050537,522.48877 C423.050537,520.950684 422.332764,520.089355 420.876709,520.089355 C419.4104,520.089355 418.477295,521.145508 418.477295,522.704102 L418.477295,529 L415.924072,529 Z" id="$300-mxn" fill="#393D4F"></path>
    </g>
</svg>