<svg width="120" height="48" viewBox="0 0 120 48" fill="none" xmlns="http://www.w3.org/2000/svg">
<path d="M89.1438 13.3087C91.8161 13.3087 94.2857 13.5919 97.2815 14.1991L95.1467 18.6961C93.4868 18.3722 95.0138 18.6527 93.7594 18.5313V19.1792L93.8401 21.8102L93.8803 25.2111C93.9208 26.0609 93.9208 26.9113 93.9616 27.7614V29.4618C93.9616 34.8058 93.5163 37.3156 92.1804 39.3801C90.2371 42.4167 86.8769 43.9145 82.0999 43.9145C79.6708 43.9145 77.5661 43.5501 75.3796 42.6998V36.9513H75.3799C77.5664 38.0847 79.7523 38.6107 82.0597 38.6107C86.1483 38.6107 87.8892 36.9513 87.8892 32.9836V32.8622C86.6748 33.4691 85.4601 33.7123 83.8411 33.7123C78.3757 33.7123 74.8936 30.1093 74.8936 24.4012C74.8936 17.3161 80.0354 13.3087 89.1438 13.3087ZM32.5932 13.7136V28.1659C32.5932 33.1456 32.2288 35.5339 31.1359 37.5987C30.1236 39.5828 28.7875 40.8374 26.0348 42.214L20.2455 39.4611C22.9985 38.1657 24.3343 37.0325 25.1844 35.291C26.0753 33.5099 26.3589 31.4451 26.3589 26.0205V13.7136H32.5932ZM106.96 13.1873C113.194 13.1873 117 17.1145 117 23.4702C117 29.9883 113.033 34.0771 106.717 34.0771C100.482 34.0771 96.6364 30.15 96.6364 23.8348C96.6367 17.2759 100.604 13.1873 106.96 13.1873ZM44.6178 13.2685C47.816 13.2685 49.921 14.1184 50.8523 15.7783C51.3783 16.7094 51.5402 17.9238 51.5402 20.5151V33.186C48.7465 33.5909 45.2247 33.8745 42.6339 33.8745C37.4117 33.8745 35.0633 32.0521 35.0633 28.004C35.0633 23.6316 38.1805 21.6075 45.8322 20.9596V19.5832C45.8322 18.4498 45.2654 18.0452 43.6864 18.0452C41.379 18.0452 38.788 18.6929 36.3587 19.9481V15.1304H36.3589C39.1121 13.8353 41.7434 13.2685 44.6178 13.2685ZM22.6752 4.08569V32.9434C19.4769 33.5506 17.1288 33.7935 14.5785 33.7935C6.96736 33.7935 3 30.3527 3 23.7535C3 17.3976 7.21051 13.2685 13.7282 13.2685C14.7402 13.2685 15.5093 13.3492 16.4406 13.5921V4.08569H22.6752ZM64.3736 13.2685C67.5718 13.2685 69.8795 13.9969 71.2564 15.414C72.5517 16.7496 72.9563 18.2069 72.9563 21.3247V33.5504H66.7217V21.5676C66.7217 19.1792 65.9121 18.2881 63.6857 18.2881C62.8356 18.2881 62.0665 18.3691 60.8111 18.7334V33.5504H54.5768V14.6851C58.2605 13.7136 61.2968 13.2685 64.3736 13.2685ZM46.1155 25.0489C41.986 25.4537 40.6501 26.1017 40.6501 27.7209C40.6501 28.9353 41.4195 29.502 43.1197 29.502C44.051 29.502 44.9009 29.4213 46.1155 29.2189V25.0489ZM106.879 18.2072C104.409 18.2072 102.992 20.1912 102.992 23.6318C102.992 27.0732 104.409 29.0568 106.838 29.0568C109.227 29.0568 110.644 27.0729 110.644 23.6318C110.644 20.2315 109.267 18.2072 106.879 18.2072ZM14.3356 18.2881C11.1779 18.2881 9.35598 20.2315 9.35598 23.6318C9.35598 26.9518 11.0969 28.7734 14.2951 28.7734C14.9831 28.7734 15.55 28.7329 16.4406 28.6117V18.6117C15.712 18.3691 15.1048 18.2881 14.3356 18.2881ZM83.5173 19.2189C82.0198 20.0693 81.2501 21.6078 81.2501 23.7938C81.2501 26.9113 82.7889 28.6924 85.5416 28.6924C86.3917 28.6924 87.0801 28.5302 87.8895 28.2876V26.1422C87.8895 25.4135 87.8492 24.6034 87.8492 23.7535L87.809 20.8794L87.7683 18.8146V18.3286H87.1203C85.9062 18.2881 84.4893 18.6117 83.5173 19.2189ZM32.5932 4.11886V10.5153H26.3589V4.11886H32.5932Z" fill="#AEB2BA"/>
</svg>
