<svg width="120" height="48" viewBox="0 0 120 48" fill="none" xmlns="http://www.w3.org/2000/svg">
<path d="M38.8204 4H42.8537V36.4389H38.8204V33.4449C36.4566 35.7817 33.2459 37.1706 29.8499 37.1706C25.413 37.1706 19.5565 34.4594 17.5398 27.8052C17.346 27.1895 17.1707 26.3561 17.1365 25.9419C16.9053 23.1482 17.0113 22.9577 17.1365 21.9828C18.1602 14.0163 24.6063 10.7541 29.8499 10.7541C32.3587 10.7541 34.6414 11.4444 36.5694 12.617L36.0045 16.3265C34.3914 14.9631 32.2942 14.0812 29.8499 14.0812C24.6063 14.0812 20.3632 18.4562 20.3632 23.8627C20.3632 28.8529 24.2028 33.8436 29.8499 33.8436C33.5768 33.8436 37.3037 31.4988 38.8204 27.655V4Z" fill="#AEB2BA"/>
<path d="M56.7089 10.8294C51.4382 10.8294 44.6464 13.9868 43.9298 21.8188C43.8416 22.7836 43.7565 23.8197 43.9298 25.6934C43.9674 26.0989 44.1405 26.9145 44.3353 27.5171C46.3626 34.0293 52.2491 36.6828 56.7089 36.6828C63.6012 36.6828 69.6829 31.1802 69.6829 23.6586C69.6829 16.7392 64.2015 10.8294 56.7089 10.8294ZM56.7089 33.4268C51.0327 33.4268 47.1733 28.5424 47.1733 23.6586C47.1733 18.3672 51.4382 14.0856 56.7089 14.0856C62.5797 14.0856 66.4394 18.9699 66.4394 23.6586C66.4394 29.5523 61.5742 33.4268 56.7089 33.4268Z" fill="#AEB2BA"/>
<path d="M71.9893 5.07116H75.2265V9.93445H71.9893V5.07116Z" fill="#AEB2BA"/>
<path d="M75.2265 34.7931C75.4525 38.6675 70.4681 44 70.4681 44L68.3558 41.0508C71.0994 39.1053 71.9571 36.0243 72.0219 34.5903L71.9893 11.5554H75.2265V34.7931Z" fill="#AEB2BA"/>
<path d="M89.8794 10.8294C84.609 10.8294 77.8171 13.9867 77.1005 21.8188C77.0123 22.7835 76.9271 23.8196 77.1005 25.6934C77.1382 26.0989 77.3112 26.9145 77.5061 27.517C79.533 34.0293 85.4199 36.683 89.8794 36.683C96.772 36.683 102.853 31.1802 102.853 23.6584C102.853 16.739 97.3721 10.8294 89.8794 10.8294ZM89.8794 33.4264C84.2035 33.4264 80.3443 28.5425 80.3443 23.6584C80.3443 18.367 84.609 14.0853 89.8794 14.0853C95.7505 14.0853 99.61 18.9697 99.61 23.6584C99.61 29.5523 94.7447 33.4264 89.8794 33.4264Z" fill="#AEB2BA"/>
<path d="M62.8534 6.86018C62.8534 7.2705 62.6321 7.2705 62.4277 7.41454H51.367C51.367 7.2705 51.146 7.2705 51.146 6.86018C51.146 6.583 51.367 6.583 51.5716 6.43896H62.6321C62.6321 6.583 62.8534 6.583 62.8534 6.86018Z" fill="#AEB2BA"/>
<path d="M95.5363 6.86018C95.5363 7.2705 95.3153 7.2705 95.1108 7.41454H84.05C84.05 7.2705 83.829 7.2705 83.829 6.86018C83.829 6.583 84.05 6.583 84.2544 6.43896H95.3153C95.3153 6.583 95.5363 6.583 95.5363 6.86018Z" fill="#AEB2BA"/>
</svg>
