<?xml version="1.0" encoding="UTF-8"?>
<svg width="120px" height="48px" viewBox="0 0 120 48" version="1.1" xmlns="http://www.w3.org/2000/svg" xmlns:xlink="http://www.w3.org/1999/xlink">
    <!-- Generator: Sketch 52 (66869) - http://www.bohemiancoding.com/sketch -->
    <title>ent</title>
    <desc>Created with Sketch.</desc>
    <g id="ent" stroke="none" stroke-width="1" fill="none" fill-rule="evenodd">
        <g id="Entrepreneur-Magazine-2012" transform="translate(0.000000, 15.000000)" fill="#B5B7C2">
            <g id="Group">
                <polygon id="Path" points="0.175824176 15.978022 1.69230769 15.7362637 1.69230769 1.73626374 0 1.51648352 0.0879120879 0 10.6813187 0 10.4175824 4.24175824 8.30769231 4.17582418 8.17582418 1.51648352 4.9010989 1.51648352 4.9010989 7.82417582 6.32967033 7.82417582 6.65934066 6.37362637 8.13186813 6.41758242 8.13186813 10.7692308 6.65934066 10.7692308 6.30769231 9.27472527 4.87912088 9.27472527 4.87912088 15.956044 8.17582418 15.956044 8.48351648 13.0549451 10.7032967 13.1208791 10.8791209 17.5384615 0.10989011 17.5384615"></polygon>
                <path d="M11.8681319,17.5604396 L11.9340659,16.2637363 L13.1208791,16.021978 L13.1208791,7.18681319 L11.7362637,7.05494505 L11.7362637,5.73626374 L15.2087912,5.23076923 L15.4725275,5.97802198 L15.4725275,6.48351648 C16.3076923,5.6043956 17.3186813,5.07692308 18.6153846,5.07692308 C20.5054945,5.07692308 21.9120879,6.21978022 21.9120879,8.48351648 L21.9120879,16 L23.1648352,16.2417582 L23.0989011,17.5384615 L18.967033,17.5384615 L18.967033,9.14285714 C18.967033,7.93406593 18.5274725,7.25274725 17.4285714,7.25274725 C17.0549451,7.25274725 16.7912088,7.31868132 16.5054945,7.42857143 C16.3296703,7.58241758 16.1538462,7.8021978 16,8 L16,16.043956 L17.2527473,16.2857143 L17.1648352,17.5824176 L11.8681319,17.5824176 L11.8681319,17.5604396 Z" id="Path"></path>
                <path d="M78.2637363,17.5604396 L78.3076923,16.2637363 L79.4945055,16.021978 L79.4945055,7.18681319 L78.1098901,7.05494505 L78.1098901,5.73626374 L81.5824176,5.23076923 L81.8461538,5.97802198 L81.8461538,6.48351648 C82.6813187,5.6043956 83.6923077,5.07692308 84.989011,5.07692308 C86.8791209,5.07692308 88.2857143,6.21978022 88.2857143,8.48351648 L88.2857143,16 L89.5384615,16.2417582 L89.4725275,17.5384615 L85.3626374,17.5384615 L85.3626374,9.14285714 C85.3626374,7.93406593 84.9230769,7.25274725 83.8241758,7.25274725 C83.4505495,7.25274725 83.1868132,7.31868132 82.9010989,7.42857143 C82.7252747,7.58241758 82.5494505,7.8021978 82.3956044,8 L82.3956044,16.043956 L83.6483516,16.2857143 L83.5604396,17.5824176 L78.2637363,17.5824176 L78.2637363,17.5604396 Z" id="Path"></path>
                <path d="M29.7142857,17.3186813 C29.2307692,17.5164835 28.3736264,17.7362637 27.2527473,17.7362637 C25.7802198,17.7362637 24.4175824,17.0769231 24.4175824,14.9230769 L24.4175824,7.18681319 L23.010989,6.96703297 L23.0769231,5.42857143 L24.6593407,5.36263736 L25.3406593,3.01098901 L27.3626374,2.92307692 L27.3626374,5.45054945 L29.5384615,5.45054945 L29.3846154,6.98901099 L27.3846154,7.20879121 L27.3846154,14.9450549 C27.3846154,15.5824176 27.7362637,16 28.3956044,16 L29.5824176,16 L29.7142857,17.3186813 Z" id="Path"></path>
                <path d="M111.978022,17.5604396 L112.021978,16.2857143 L113.142857,16.021978 L113.142857,7.18681319 L111.824176,7.05494505 L111.824176,5.73626374 L115.428571,5.23076923 L115.67033,6.08791209 L115.67033,6.37362637 C116.615385,5.67032967 117.89011,5.20879121 119.428571,5.20879121 L119.956044,5.67032967 L119.582418,9.01098901 L117.604396,8.94505495 L117.406593,7.16483516 C116.945055,7.23076923 116.505495,7.36263736 116.131868,7.62637363 L116.131868,16.043956 L117.384615,16.3076923 L117.296703,17.5824176 L111.978022,17.5824176 L111.978022,17.5604396 Z" id="Path"></path>
                <path d="M60.2197802,17.5604396 L60.2857143,16.2857143 L61.4065934,16.021978 L61.4065934,7.18681319 L60.0879121,7.05494505 L60.0879121,5.73626374 L63.6923077,5.23076923 L63.9340659,6.08791209 L63.9340659,6.37362637 C64.8791209,5.67032967 66.1538462,5.20879121 67.6923077,5.20879121 L68.2197802,5.67032967 L67.8021978,9.01098901 L65.8241758,8.94505495 L65.6263736,7.16483516 C65.1648352,7.23076923 64.7252747,7.36263736 64.3516484,7.62637363 L64.3516484,16.043956 L65.6043956,16.3076923 L65.5164835,17.5824176 L60.2197802,17.5824176 L60.2197802,17.5604396 Z" id="Path"></path>
                <path d="M30.5934066,17.5604396 L30.6593407,16.2857143 L31.7802198,16.021978 L31.7802198,7.18681319 L30.4615385,7.05494505 L30.4615385,5.73626374 L34.0659341,5.23076923 L34.3076923,6.08791209 L34.3076923,6.37362637 C35.2527473,5.67032967 36.5274725,5.20879121 38.043956,5.20879121 L38.5714286,5.67032967 L38.1978022,9.01098901 L36.2197802,8.94505495 L36.021978,7.16483516 C35.5604396,7.23076923 35.1208791,7.36263736 34.7472527,7.62637363 L34.7472527,16.043956 L36,16.3076923 L35.9120879,17.5824176 L30.5934066,17.5824176 L30.5934066,17.5604396 Z" id="Path"></path>
                <path d="M41.978022,12.1758242 C41.978022,14.2857143 42.9010989,15.9120879 44.7252747,15.9120879 C45.6703297,15.9120879 46.4175824,15.7142857 47.2967033,15.2967033 L47.8021978,16.4615385 C46.9010989,17.1868132 45.5824176,17.7362637 43.9340659,17.7362637 C40.7252747,17.7362637 38.8791209,14.967033 38.8791209,11.4065934 C38.8791209,8.37362637 40.2197802,5.05494505 43.8901099,5.05494505 C47.0989011,5.05494505 48.3076923,8.02197802 48.3076923,11.3186813 L48,12.1098901 L41.978022,12.1758242 Z M41.9340659,10.7692308 L45.6263736,10.5934066 C45.5604396,9.12087912 45.2527473,6.79120879 43.8021978,6.79120879 C43.4505495,6.79120879 43.2087912,6.85714286 42.7692308,7.07692308 C42.1758242,8.08791209 41.9340659,9.91208791 41.9340659,10.7692308 Z" id="Shape" fill-rule="nonzero"></path>
                <path d="M93.0549451,12.1758242 C93.0549451,14.2857143 93.978022,15.9120879 95.8021978,15.9120879 C96.7472527,15.9120879 97.4945055,15.7142857 98.3736264,15.2967033 L98.8791209,16.4615385 C97.978022,17.1868132 96.6593407,17.7362637 95.010989,17.7362637 C91.8021978,17.7362637 89.956044,14.967033 89.956044,11.4065934 C89.956044,8.37362637 91.2967033,5.05494505 94.967033,5.05494505 C98.1758242,5.05494505 99.3846154,8.02197802 99.3846154,11.3186813 L99.0769231,12.1098901 L93.0549451,12.1758242 Z M93.010989,10.7692308 L96.7032967,10.5934066 C96.6373626,9.12087912 96.3296703,6.79120879 94.8791209,6.79120879 C94.5274725,6.79120879 94.2857143,6.85714286 93.8461538,7.07692308 C93.2527473,8.08791209 93.010989,9.91208791 93.010989,10.7692308 Z" id="Shape" fill-rule="nonzero"></path>
                <path d="M71.6043956,12.1758242 C71.6043956,14.2857143 72.5274725,15.9120879 74.3516484,15.9120879 C75.2967033,15.9120879 76.043956,15.7142857 76.9230769,15.2967033 L77.4285714,16.4615385 C76.5274725,17.1868132 75.2087912,17.7362637 73.5604396,17.7362637 C70.3516484,17.7362637 68.5054945,14.967033 68.5054945,11.4065934 C68.5054945,8.37362637 69.8461538,5.05494505 73.5164835,5.05494505 C76.7252747,5.05494505 77.9340659,8.02197802 77.9340659,11.3186813 L77.6263736,12.1098901 L71.6043956,12.1758242 Z M71.5604396,10.7692308 L75.2527473,10.5934066 C75.1868132,9.12087912 74.8791209,6.79120879 73.4285714,6.79120879 C73.0769231,6.79120879 72.8351648,6.85714286 72.3956044,7.07692308 C71.8021978,8.08791209 71.5384615,9.91208791 71.5604396,10.7692308 Z" id="Shape" fill-rule="nonzero"></path>
                <path d="M107.692308,17.5604396 L107.384615,16.5054945 C106.571429,17.2747253 105.78022,17.7362637 104.549451,17.7362637 C102.659341,17.7362637 100.967033,16.7912088 100.967033,14.1758242 L100.967033,6.87912088 L99.5824176,6.74725275 L99.5824176,5.58241758 L103.582418,5.12087912 L103.89011,6.17582418 L103.89011,13.8241758 C103.89011,15.1648352 104.43956,15.8681319 105.516484,15.8681319 C105.824176,15.8681319 106.21978,15.8241758 106.571429,15.6923077 C106.769231,15.4945055 106.967033,15.2527473 107.120879,15.010989 L107.120879,6.87912088 L105.692308,6.74725275 L105.692308,5.58241758 L109.736264,5.12087912 L110.043956,6.17582418 L110.043956,16.021978 L111.296703,16.2637363 L111.142857,17.5604396 L107.692308,17.5604396 Z" id="Path"></path>
            </g>
            <path d="M54.3076923,15.978022 C53.6703297,15.978022 53.1648352,15.8681319 52.7692308,15.6483516 L52.7692308,7.89010989 C52.9450549,7.62637363 53.1428571,7.38461538 53.3406593,7.16483516 C53.7142857,7.03296703 54.043956,6.98901099 54.4395604,6.98901099 C56.0879121,6.98901099 56.3736264,8.65934066 56.3736264,11.6483516 C56.3736264,14.5274725 55.9340659,15.3186813 55.8241758,15.6483516 C55.3626374,15.8681319 54.8791209,15.978022 54.3076923,15.978022 Z M59.2307692,11.1208791 C59.2307692,7.40659341 58.1318681,5.07692308 55.3846154,5.07692308 C53.5604396,5.07692308 52.7032967,6.13186813 52.3516484,6.57142857 L52.3516484,6.15384615 L52.043956,5.0989011 L48.4615385,5.6043956 L48.4615385,6.87912088 L49.8461538,7.05494505 L49.8461538,22.043956 L48.6593407,22.2857143 L48.5934066,23.5384615 L53.8901099,23.5384615 L53.978022,22.2857143 L52.7252747,22.043956 L52.7252747,17.2967033 C53.2307692,17.5824176 53.9340659,17.7582418 54.7032967,17.7582418 C59.1868132,17.7582418 59.2307692,13.2087912 59.2307692,11.1208791 Z" id="Shape" fill-rule="nonzero"></path>
        </g>
    </g>
</svg>