<svg width="32" height="32" viewBox="0 0 32 32" fill="none" xmlns="http://www.w3.org/2000/svg">
<rect width="32" height="32" fill="white"/>
<path d="M19.9369 12.8284L16.2584 13.0494C16.1631 12.5901 15.9075 12.1958 15.4915 11.8666C15.0756 11.5286 14.5166 11.3596 13.8147 11.3596C13.1908 11.3596 12.6666 11.4896 12.2419 11.7496C11.826 12.0095 11.618 12.3562 11.618 12.7894C11.618 13.136 11.7523 13.435 12.021 13.6863C12.2983 13.9289 12.7705 14.1196 13.4378 14.2582L16.0764 14.7782C17.4889 15.0641 18.5418 15.5277 19.235 16.169C19.9282 16.8102 20.2749 17.6551 20.2749 18.7036C20.2749 19.6655 19.9976 20.5061 19.443 21.2253C18.8884 21.9359 18.1258 22.4948 17.1553 22.9021C16.1847 23.3007 15.0712 23.5 13.8147 23.5C11.891 23.5 10.3572 23.0971 9.21334 22.2912C8.07816 21.4853 7.41525 20.3934 7.22461 19.0156L11.1631 18.8076C11.2931 19.3969 11.5877 19.8432 12.047 20.1464C12.5062 20.4497 13.0955 20.6014 13.8147 20.6014C14.5166 20.6014 15.0842 20.4627 15.5175 20.1854C15.9594 19.9081 16.1804 19.5572 16.1804 19.1326C16.1804 18.4133 15.5565 17.9281 14.3087 17.6768L11.8 17.1568C10.3875 16.8709 9.33466 16.3813 8.64142 15.688C7.94818 14.9948 7.60156 14.1066 7.60156 13.0234C7.60156 12.0875 7.85719 11.2816 8.36846 10.6057C8.87972 9.92981 9.59463 9.40988 10.5132 9.04593C11.4404 8.68198 12.5236 8.5 13.7627 8.5C15.5998 8.5 17.0426 8.88995 18.0912 9.66984C19.1484 10.4411 19.7636 11.4939 19.9369 12.8284Z" fill="#030712"/>
<path d="M24.7749 21.5C24.7749 22.6046 23.8794 23.5 22.7749 23.5C21.6703 23.5 20.7749 22.6046 20.7749 21.5C20.7749 20.3954 21.6703 19.5 22.7749 19.5C23.8794 19.5 24.7749 20.3954 24.7749 21.5Z" fill="#AEB2BA"/>
</svg>
