<svg width="88" height="88" viewBox="0 0 88 88" fill="none" xmlns="http://www.w3.org/2000/svg">
<g clip-path="url(#clip0_1967_10878)">
<path d="M44 44C44 41.0826 45.1589 38.2847 47.2218 36.2218C49.2847 34.1589 52.0826 33 55 33C57.9174 33 60.7153 34.1589 62.7782 36.2218C64.8411 38.2847 66 41.0826 66 44C66 46.9174 64.8411 49.7153 62.7782 51.7782C60.7153 53.8411 57.9174 55 55 55C52.0826 55 49.2847 53.8411 47.2218 51.7782C45.1589 49.7153 44 46.9174 44 44Z" fill="#1ABCFE"/>
<path d="M22 66C22 63.0826 23.1589 60.2847 25.2218 58.2218C27.2847 56.1589 30.0826 55 33 55H44V66C44 68.9174 42.8411 71.7153 40.7782 73.7782C38.7153 75.8411 35.9174 77 33 77C30.0826 77 27.2847 75.8411 25.2218 73.7782C23.1589 71.7153 22 68.9174 22 66V66Z" fill="#0ACF83"/>
<path d="M44 11V33H55C57.9174 33 60.7153 31.8411 62.7782 29.7782C64.8411 27.7153 66 24.9174 66 22C66 19.0826 64.8411 16.2847 62.7782 14.2218C60.7153 12.1589 57.9174 11 55 11H44Z" fill="#FF7262"/>
<path d="M22 22C22 24.9174 23.1589 27.7153 25.2218 29.7782C27.2847 31.8411 30.0826 33 33 33H44V11H33C30.0826 11 27.2847 12.1589 25.2218 14.2218C23.1589 16.2847 22 19.0826 22 22V22Z" fill="#F24E1E"/>
<path d="M22 44C22 46.9174 23.1589 49.7153 25.2218 51.7782C27.2847 53.8411 30.0826 55 33 55H44V33H33C30.0826 33 27.2847 34.1589 25.2218 36.2218C23.1589 38.2847 22 41.0826 22 44V44Z" fill="#A259FF"/>
</g>
<defs>
<clipPath id="clip0_1967_10878">
<rect width="44" height="66" fill="white" transform="translate(22 11)"/>
</clipPath>
</defs>
</svg>
