<?xml version="1.0" encoding="UTF-8"?>
<svg width="120px" height="48px" viewBox="0 0 120 48" version="1.1" xmlns="http://www.w3.org/2000/svg" xmlns:xlink="http://www.w3.org/1999/xlink">
    <!-- Generator: Sketch 52 (66869) - http://www.bohemiancoding.com/sketch -->
    <title>GQ</title>
    <desc>Created with Sketch.</desc>
    <g id="GQ" stroke="none" stroke-width="1" fill="none" fill-rule="evenodd">
        <g id="GQ_Logo" transform="translate(18.000000, 2.000000)">
            <path d="M44.863578,22.2475519 C44.863578,21.0755553 44.8571759,19.9215647 44.6823167,18.9032201 L23.5183555,18.9032201 L23.5183555,29.0834652 L29.8004814,29.0834652 C29.8004814,30.1010095 26.8966988,32.1929174 22.5400244,32.1929174 C17.7472025,32.1929174 12.3209663,28.4248423 12.2125296,22.3623907 C12.0992913,16.0814652 17.5331301,11.9736751 22.5400244,12.1525357 C26.6062005,12.2977848 28.159126,13.4637794 30.4266933,15.6957347 C30.4266933,15.6957347 43.6211576,15.7057381 43.9668746,15.7057381 C43.5735415,14.1936264 42.5992118,11.9088532 40.9322477,9.54365281 C40.7930005,9.34678619 40.6509525,9.14831903 40.5009017,8.95145241 C37.1673736,4.51435088 31.3754144,0.00962645732 22.3759689,2.32075393e-05 C11.8019906,-0.0147818025 3.64082887,7.05441044 0.949518121,15.7097394 C0.917507289,15.8141748 0.886696862,15.9186101 0.855086165,16.0238457 C0.855086165,16.0286474 0.853085488,16.0358498 0.851084811,16.0398512 C0.298497813,17.9765065 -3.04102909e-06,20.0203982 -3.04102909e-06,22.1311125 C0.0200037294,24.1521964 0.282492397,26.0868511 0.759453803,27.9122688 C2.45762847,34.2272058 6.87752418,39.4389703 12.6966934,42.2343163 C12.7435093,42.2563237 12.789925,42.2791314 12.8379412,42.2999385 C12.8679514,42.3159439 12.8987618,42.3275478 12.9263711,42.3415526 C15.8629649,43.6772046 19.1616812,44.4210563 22.6640664,44.4486656 C30.0905796,44.3886453 36.6592016,40.7546155 40.7061711,35.1931327 C40.7889992,35.0782938 44.863578,29.1842993 44.863578,22.2475519 Z" id="path15" fill="#B5B7C2"></path>
            <path d="M78.3008934,35.0962999 C78.3008934,35.0962999 82.4254891,29.8289174 82.4410944,22.815344 C82.4739055,9.04148288 72.8254404,0.152074663 59.3652855,0.132067892 C51.5674467,0.12006383 44.3782138,4.26746733 40.6965679,9.24355126 C37.4218597,13.6706494 36.8820771,17.3590976 36.8820771,20.0420055 C36.7268245,23.3799351 37.0549356,24.9584693 37.0549356,24.9584693 C37.5302964,28.4340454 38.879553,31.8528023 40.951054,34.8346114 C44.8711806,40.4793224 51.3801833,44.5699067 59.4425116,44.5699067 C64.7931223,44.5707069 68.5780031,42.0574564 69.2618345,41.6941335 L70.6799144,43.3362892 L84.3853524,43.3362892 L78.3008934,35.0962999 Z M69.95767,25.4310292 L68.7876741,23.9933427 L54.8837689,23.9933427 L60.5364818,32.0168578 C54.6544913,33.169648 49.09501,28.1715566 49.1762375,22.4464192 C49.2586653,16.5968396 53.9794629,12.2521694 59.6245732,12.2901823 C65.8218704,12.3293955 72.0039625,19.0480692 69.95767,25.4310292 Z" id="path17" fill="#9B9EA3" fill-rule="nonzero"></path>
            <g id="g19" opacity="0.5" transform="translate(36.669206, 9.051886)" fill="#83858E">
                <path d="M7.29766956,6.65985372 C6.90433646,5.14774202 5.93000674,2.86016789 4.26304263,0.496167905 C4.19341907,0.395733918 4.11779348,0.295299931 4.04616924,0.194065673 C4.04016721,0.202068381 4.03336491,0.210071089 4.02736288,0.218073797 C2.26876776,2.59407785 1.30044007,4.75360864 0.779463774,6.65825318 C3.9925511,6.65905345 7.13121323,6.65985372 7.29766956,6.65985372 Z" id="path21"></path>
                <path d="M8.19437301,13.1956655 C8.19437301,12.0236689 8.18797085,10.8696783 8.01311167,9.85133373 L0.250884901,9.85133373 C0.225276234,9.85133373 0.213272172,10.6388002 0.213272172,11.0085253 C0.0580196341,14.346855 0.386130668,15.9145856 0.386130668,15.9145856 C0.859490855,19.3877609 2.20754704,22.8005158 4.27544683,25.7795239 C5.15974608,24.391054 8.19437301,19.1820913 8.19437301,13.1956655 Z" id="path23"></path>
            </g>
        </g>
    </g>
</svg>