<?xml version="1.0" encoding="UTF-8"?>
<svg width="120px" height="48px" viewBox="0 0 120 48" version="1.1" xmlns="http://www.w3.org/2000/svg" xmlns:xlink="http://www.w3.org/1999/xlink">
    <!-- Generator: Sketch 52 (66869) - http://www.bohemiancoding.com/sketch -->
    <title>merc</title>
    <desc>Created with Sketch.</desc>
    <g id="merc" stroke="none" stroke-width="1" fill="none" fill-rule="evenodd">
        <g id="145341" transform="translate(-2.000000, -55.000000)">
            <path d="M34.450155,71.902439 C32.0393414,71.902439 30.1666405,72.5614796 28.8338332,73.8760923 C27.497462,75.1907045 26.8310586,76.9423651 26.8292764,79.1362763 C26.8239313,84.3322907 29.4610367,86.9268293 34.7370292,86.9268293 C36.4155109,86.9268293 37.8694825,86.5331391 39.0953802,85.7388221 C40.3194961,84.9427704 41.1694279,83.8258701 41.6451761,82.3811839 L37.3866075,82.3811839 C37.2280245,82.896276 36.8520591,83.2986376 36.2622739,83.5847999 C35.7491075,83.8328073 35.1771408,83.9542098 34.5445918,83.9542098 C33.4612403,83.9542098 32.6041812,83.5969402 31.9734139,82.8754642 C31.4014472,82.2597815 31.0771543,81.4498557 30.9987539,80.4439517 L41.8536499,80.4439517 C41.8589955,74.7501881 39.3893821,71.902439 34.450155,71.902439 M31.1270455,78.0662027 C31.2660283,77.2025125 31.5921029,76.4931768 32.1052694,75.9381953 C32.698618,75.3034354 33.4505492,74.9843211 34.3592816,74.9843211 C35.2680137,74.9843211 36.0270726,75.3034354 36.6400215,75.9381953 C37.1941701,76.4931768 37.5095535,77.2025125 37.5879539,78.0662027 L31.1270455,78.0662027" id="Shape" fill="#B5B7C2" fill-rule="nonzero"></path>
            <path d="M53.0249518,75.6780214 C52.5875233,75.6363326 52.1638259,75.6127689 51.7499361,75.6127689 C48.9350946,75.6127689 47.5247312,76.80544 47.5247312,79.1889693 L47.5188464,86.9268293 L42.9268293,86.9268293 L42.936637,72.0148181 L47.3011129,72.0148181 L47.3011129,73.1803006 C47.3011129,73.5899411 47.3109211,73.7929489 47.3344598,73.7929489 C47.3540752,73.7929489 47.3854602,73.7838862 47.4305762,73.7585104 C48.2779711,72.9863555 48.860555,72.7344082 49.3607535,72.4987743 C50.1394936,72.1217598 51.7872059,71.902439 52.9798358,71.902439 L53.6585366,71.9296272 L53.0249518,75.6780214" id="Path" fill="#B5B7C2"></path>
            <path d="M67.6097561,77.3655333 L63.5989954,77.3655333 C63.4860164,76.6837226 63.1932976,76.1241555 62.7174158,75.6799457 C62.2432453,75.2374576 61.6560963,75.0153523 60.9542558,75.0153523 C59.8741063,75.0153523 59.0473046,75.4802234 58.477273,76.4065215 C58.0031029,77.1468717 57.7668739,78.0645611 57.7651618,79.1578687 C57.7634501,82.2260164 58.7580091,83.7600905 60.7505508,83.7600905 C61.5088808,83.7807514 62.1439608,83.5603682 62.6575025,83.0954975 C63.1693325,82.632348 63.4637631,82.0400681 63.5390825,81.3186576 L67.5806555,81.3186576 C67.3512733,82.9921929 66.5860965,84.3437619 65.2851243,85.3768083 C63.9858637,86.4098547 62.4229853,86.926378 60.6016241,86.926378 C58.3232107,86.9470389 56.5788806,86.2583413 55.3634988,84.8551197 C54.2268599,83.5569249 53.6568283,81.8265718 53.6585404,79.6640613 C53.6602521,77.353481 54.2114533,75.5301539 55.3138561,74.1906372 C56.5480683,72.6668934 58.3625823,71.902439 60.7539747,71.902439 C62.6506553,71.902439 64.2152454,72.3673101 65.4511693,73.2918866 C66.7778188,74.259507 67.4984888,75.6162413 67.6097561,77.3655333" id="Path" fill="#B5B7C2"></path>
            <path d="M83.707316,77.7506725 C83.7090715,73.8936233 81.5029224,71.945953 77.0871148,71.902439 C75.804144,71.902439 74.6352535,72.0834558 73.5857097,72.4385271 C71.5796411,73.1504106 70.4791993,74.6542421 70.2861396,76.9569837 L74.2105219,76.9569837 C74.2895008,76.3025385 74.5773357,75.7855965 75.0757813,75.4026765 C75.5724721,75.0232377 76.1849985,74.8335179 76.9063408,74.8335179 C77.5504587,74.8335179 78.1278838,74.9971295 78.6351048,75.3191303 C79.1423258,75.642872 79.3968138,76.0954139 79.3968138,76.6802372 C79.3950589,77.3068337 78.5649012,77.7158616 76.9063408,77.9038405 C74.56154,78.1753656 73.01004,78.4886638 72.2483305,78.8419947 C70.5862597,79.5747643 69.756102,80.9219469 69.756102,82.8852824 C69.7543471,84.223762 70.2685885,85.2454624 71.2988267,85.955605 C72.2325348,86.6048284 73.4505674,86.9268293 74.9476599,86.9268293 C77.0291969,86.9268293 78.5455951,86.4342552 79.5003643,85.4491061 C79.6355061,86.032189 79.7618727,86.4151091 79.8794638,86.603088 L83.7002957,86.603088 L83.707316,77.7506725 M79.3652224,80.3179775 C79.3827731,80.6208326 79.3933039,80.8453629 79.3933039,80.9933092 C79.3933039,81.9157986 79.1897134,82.6189791 78.7842874,83.0993697 C78.4560854,83.4561814 77.9927415,83.7468527 77.3942557,83.9783451 C76.79577,84.2080972 76.2271207,84.3247138 75.6865528,84.3247138 C74.4702752,84.3247138 73.8630137,83.7903662 73.8647687,82.7234118 C73.8647687,81.8827281 74.2228072,81.2857209 74.9353741,80.9306495 C75.3021879,80.7426706 76.0551216,80.5529512 77.1924202,80.3632319 C78.2173931,80.1752529 78.931715,79.933317 79.337141,79.6409053 C79.337141,79.7888516 79.3459163,80.0133819 79.3652224,80.3179775" id="Shape" fill="#B5B7C2" fill-rule="nonzero"></path>
            <path d="M100.867093,86.9268293 L85.8536585,86.9268293 C85.8959449,84.408526 86.6465288,82.2932255 88.1106955,80.5809277 C88.7714202,79.8009222 90.2637778,78.5881996 92.5912917,76.9501885 C95.2888118,75.0428894 96.638453,73.1857336 96.6402148,71.3750066 C96.6419766,70.4464287 96.3072095,69.6775665 95.6376748,69.0628478 C94.969902,68.4537007 94.1823176,68.1472701 93.2766841,68.1472701 C91.9799012,68.1472701 91.11303,68.7508456 90.6813559,69.9561396 C90.5157344,70.4222858 90.4012089,71.2598632 90.3413029,72.4651572 L86.1408538,72.4651572 C86.1408538,70.1177123 86.7698639,68.2066991 88.0278845,66.7395458 C89.3458107,65.1758209 91.1271254,64.3902439 93.3735901,64.3902439 C95.4738147,64.3902439 97.2392721,65.0569629 98.669962,66.3904005 C100.100652,67.7201241 100.83714,69.4602789 100.877664,71.6108655 C100.897046,73.5181646 100.183463,75.2490338 98.7386775,76.8127587 C97.9969033,77.6206216 96.5644515,78.7312005 94.4395601,80.1463534 C92.7075795,81.3219329 91.6750864,82.2839398 91.3456052,83.0435164 L100.870617,83.0435164 L100.867093,86.9268293" id="Path" fill="#9698A1"></path>
            <path d="M102.562919,86.304788 C102.155697,85.8883658 101.95122,85.3907329 101.95122,84.8084335 C101.952952,84.2261341 102.159163,83.730229 102.575049,83.3224466 C102.990935,82.9146641 103.488265,82.7073171 104.070506,82.7073171 C104.65448,82.7073171 105.150078,82.9146641 105.559032,83.3224466 C105.967987,83.730229 106.170732,84.2261341 106.170732,84.8084335 C106.170732,85.3907329 105.967987,85.8883658 105.565964,86.304788 C105.162208,86.7194821 104.664877,86.9268291 104.068773,86.9268291 C103.474402,86.9268291 102.971874,86.7194821 102.562919,86.304788" id="Path" fill="#9698A1"></path>
            <path d="M112.716992,64.3902439 C109.993659,64.3902439 108.001994,65.5235917 106.741997,67.7884712 C105.746163,69.6029177 105.247379,71.9985676 105.24564,74.9808709 C105.24564,75.5766051 105.243902,76.2794988 105.243902,77.0895516 C105.466357,80.0954663 106.008591,82.349448 106.865389,83.8514972 C108.04718,85.9274854 109.978018,86.9500409 112.656165,86.9264296 C115.784435,86.9028183 117.929038,85.5805792 119.096926,82.9560799 C119.875518,81.2161002 120.266551,78.5334805 120.268289,74.9082204 C120.271765,67.8956309 117.755246,64.3902439 112.716992,64.3902439 M115.928683,76.7353803 C115.925208,81.207019 114.880713,83.4428383 112.793461,83.4428383 C110.683617,83.4428383 109.630432,81.2542416 109.633909,76.8788652 L109.635646,74.3687906 C109.639122,70.042453 110.694044,67.877468 112.802151,67.877468 C114.89114,67.877468 115.933897,70.0769621 115.932159,74.4741336 L115.928683,76.7353803" id="Shape" fill="#9698A1" fill-rule="nonzero"></path>
            <path d="M5.24055058,65.4634146 L10.8669304,65.4634146 L13.6956529,75.6728883 C14.0994954,77.1403542 14.2548192,77.7269819 14.4412076,78.7818353 C14.6586612,77.7269819 14.8761148,76.7869425 15.2196548,75.584984 L18.1415717,65.4634146 L23.8282541,65.4634146 L25.7560976,85.8536585 L21.4673307,85.8536585 L20.6596461,74.9678589 C20.5664517,73.6797894 20.47143,72.797157 20.47143,71.7136002 C20.2229117,72.8868557 20.0675879,73.4716891 19.6948106,74.7041455 L16.2758571,85.8536585 L12.4512344,85.8536585 L9.37399366,75.1454614 C9.09441074,74.148015 8.50417977,71.5951985 8.50417977,71.5951985 C8.50417977,72.797157 8.44205044,73.9435029 8.34885598,75.2028684 L7.60147399,85.8536585 L3.2195122,85.8536585 L5.24055058,65.4634146" id="Path" fill="#B5B7C2"></path>
        </g>
        <g id="Group-2" transform="translate(2.000000, 35.000000)">
            <path d="M0.456585366,1.77307317 L1.27843902,1.77307317 L1.27843902,2.32097561 L1.30126829,2.32097561 C1.36721984,2.22458488 1.43824352,2.13580528 1.51434146,2.05463415 C1.5904394,1.97346301 1.67541416,1.90497589 1.76926829,1.84917073 C1.86312242,1.79336557 1.97092622,1.74897577 2.09268293,1.716 C2.21443963,1.68302423 2.35395043,1.66653659 2.51121951,1.66653659 C2.74965973,1.66653659 2.97160873,1.71980435 3.17707317,1.82634146 C3.38253761,1.93287858 3.52838981,2.09775498 3.61463415,2.32097561 C3.76175683,2.11804777 3.93170635,1.95824449 4.1244878,1.84156098 C4.31726926,1.72487747 4.55824246,1.66653659 4.84741463,1.66653659 C5.26341671,1.66653659 5.58682811,1.76799899 5.81765854,1.97092683 C6.04848896,2.17385467 6.16390244,2.51375371 6.16390244,2.99063415 L6.16390244,5.70731707 L5.29639024,5.70731707 L5.29639024,3.40917073 C5.29639024,3.25190165 5.29131712,3.10858601 5.28117073,2.97921951 C5.27102434,2.84985301 5.2418539,2.73824437 5.19365854,2.64439024 C5.14546317,2.55053612 5.07317121,2.47824416 4.97678049,2.4275122 C4.88038976,2.37678023 4.74848864,2.35141463 4.58107317,2.35141463 C4.2868278,2.35141463 4.07375676,2.44273079 3.94185366,2.62536585 C3.80995056,2.80800091 3.744,3.06673003 3.744,3.40156098 L3.744,5.70731707 L2.8764878,5.70731707 L2.8764878,3.18087805 C2.8764878,2.90692546 2.82702488,2.70019582 2.72809756,2.56068293 C2.62917024,2.42117003 2.4478062,2.35141463 2.184,2.35141463 C2.07238969,2.35141463 1.96458589,2.37424367 1.86058537,2.41990244 C1.75658485,2.4655612 1.66526869,2.53151176 1.58663415,2.6177561 C1.50799961,2.70400043 1.44458561,2.81053595 1.39639024,2.93736585 C1.34819488,3.06419576 1.32409756,3.20877968 1.32409756,3.37112195 L1.32409756,5.70731707 L0.456585366,5.70731707 L0.456585366,1.77307317 Z M9.77853659,3.39395122 C9.76839019,3.25697492 9.73921975,3.1250738 9.69102439,2.9982439 C9.64282903,2.871414 9.57687847,2.76107364 9.49317073,2.66721951 C9.409463,2.57336538 9.3080006,2.49726858 9.18878049,2.43892683 C9.06956038,2.38058507 8.93639098,2.35141463 8.78926829,2.35141463 C8.63707241,2.35141463 8.49882989,2.37804851 8.37453659,2.43131707 C8.25024328,2.48458563 8.14370776,2.55814587 8.05492683,2.652 C7.9661459,2.74585413 7.89512222,2.85619449 7.84185366,2.98302439 C7.7885851,3.10985429 7.75941466,3.24682853 7.75434146,3.39395122 L9.77853659,3.39395122 Z M7.75434146,3.96468293 C7.75434146,4.11687881 7.77590222,4.26399929 7.81902439,4.40604878 C7.86214656,4.54809827 7.92682884,4.67238971 8.01307317,4.77892683 C8.0993175,4.88546395 8.20838958,4.97043871 8.34029268,5.03385366 C8.47219578,5.09726861 8.6294625,5.12897561 8.81209756,5.12897561 C9.06575737,5.12897561 9.26995045,5.07443957 9.42468293,4.96536585 C9.57941541,4.85629214 9.69482889,4.69268402 9.77092683,4.47453659 L10.5927805,4.47453659 C10.5471217,4.68761082 10.4684884,4.87785282 10.356878,5.04526829 C10.2452677,5.21268376 10.1108301,5.35346284 9.95356098,5.46760976 C9.7962919,5.58175667 9.62000098,5.66799971 9.42468293,5.72634146 C9.22936488,5.78468322 9.0251718,5.81385366 8.81209756,5.81385366 C8.5026326,5.81385366 8.22868412,5.76312246 7.9902439,5.66165854 C7.75180369,5.56019461 7.55014717,5.41814725 7.38526829,5.2355122 C7.22038942,5.05287714 7.09609798,4.83473298 7.01239024,4.58107317 C6.92868251,4.32741337 6.88682927,4.04839177 6.88682927,3.744 C6.88682927,3.46497421 6.93121907,3.19990369 7.02,2.94878049 C7.10878093,2.69765728 7.23560893,2.47697656 7.4004878,2.28673171 C7.56536668,2.09648685 7.76448664,1.94556153 7.99785366,1.83395122 C8.23122068,1.72234091 8.49502292,1.66653659 8.78926829,1.66653659 C9.09873325,1.66653659 9.37648657,1.73121887 9.62253659,1.86058537 C9.8685866,1.98995187 10.0727797,2.16116967 10.235122,2.3742439 C10.3974642,2.58731814 10.5154143,2.83209618 10.5889756,3.10858537 C10.662537,3.38507455 10.6815612,3.67043755 10.6460488,3.96468293 L7.75434146,3.96468293 Z M11.3080976,1.77307317 L12.1223415,1.77307317 L12.1223415,2.53404878 L12.137561,2.53404878 C12.162927,2.42751166 12.2123899,2.3235127 12.2859512,2.22204878 C12.3595126,2.12058486 12.4482922,2.02800042 12.5522927,1.94429268 C12.6562932,1.86058495 12.7717067,1.79336611 12.8985366,1.74263415 C13.0253665,1.69190219 13.154731,1.66653659 13.2866341,1.66653659 C13.3880981,1.66653659 13.4578535,1.66907315 13.4959024,1.67414634 C13.5339514,1.67921954 13.5732681,1.68429266 13.6138537,1.68936585 L13.6138537,2.52643902 C13.5529753,2.51629263 13.4908296,2.50741467 13.4274146,2.49980488 C13.3639997,2.49219508 13.301854,2.48839024 13.2409756,2.48839024 C13.0938529,2.48839024 12.9556104,2.51756068 12.8262439,2.57590244 C12.6968774,2.63424419 12.5840005,2.72048723 12.4876098,2.83463415 C12.391219,2.94878106 12.3151222,3.08956014 12.2593171,3.25697561 C12.2035119,3.42439108 12.1756098,3.61716964 12.1756098,3.83531707 L12.1756098,5.70731707 L11.3080976,5.70731707 L11.3080976,1.77307317 Z M16.6425366,3.08956098 C16.6070242,2.84604756 16.5093667,2.66214696 16.349561,2.53785366 C16.1897553,2.41356035 15.9880988,2.35141463 15.7445854,2.35141463 C15.6329751,2.35141463 15.5137567,2.37043883 15.3869268,2.4084878 C15.2600969,2.44653678 15.1434152,2.51756046 15.036878,2.62156098 C14.9303409,2.7255615 14.8415613,2.87014542 14.7705366,3.05531707 C14.6995118,3.24048873 14.664,3.48273021 14.664,3.78204878 C14.664,3.94439106 14.6830242,4.1067309 14.7210732,4.26907317 C14.7591221,4.43141545 14.8199996,4.57599937 14.9037073,4.70282927 C14.9874151,4.82965917 15.0952189,4.93238985 15.227122,5.01102439 C15.359025,5.08965893 15.5188283,5.12897561 15.7065366,5.12897561 C15.9601964,5.12897561 16.1694626,5.05034225 16.3343415,4.89307317 C16.4992203,4.73580409 16.601951,4.51512337 16.6425366,4.23102439 L17.5100488,4.23102439 C17.4288776,4.7434172 17.2348308,5.13531572 16.9279024,5.40673171 C16.6209741,5.6781477 16.2138562,5.81385366 15.7065366,5.81385366 C15.3970716,5.81385366 15.1243914,5.76185418 14.8884878,5.65785366 C14.6525842,5.55385314 14.4534642,5.41180578 14.291122,5.23170732 C14.1287797,5.05160886 14.0057565,4.83726954 13.9220488,4.58868293 C13.838341,4.34009632 13.7964878,4.07122096 13.7964878,3.78204878 C13.7964878,3.48780341 13.8370728,3.21131837 13.9182439,2.95258537 C13.999415,2.69385236 14.1211699,2.4693668 14.2835122,2.27912195 C14.4458545,2.0888771 14.647511,1.93922006 14.8884878,1.83014634 C15.1294646,1.72107263 15.4122911,1.66653659 15.7369756,1.66653659 C15.9652694,1.66653659 16.1821453,1.69570703 16.3876098,1.75404878 C16.5930742,1.81239054 16.7757065,1.89990186 16.9355122,2.01658537 C17.0953179,2.13326888 17.2259507,2.28038936 17.3274146,2.45795122 C17.4288786,2.63551308 17.489756,2.84604756 17.5100488,3.08956098 L16.6425366,3.08956098 Z M21.5127805,4.83219512 C21.5127805,4.93873224 21.5267316,5.01482904 21.5546341,5.0604878 C21.5825367,5.10614657 21.6370728,5.12897561 21.7182439,5.12897561 L21.809561,5.12897561 C21.8450733,5.12897561 21.8856583,5.12390249 21.9313171,5.1137561 L21.9313171,5.71492683 C21.9008779,5.72507322 21.8615612,5.73648774 21.8133659,5.74917073 C21.7651705,5.76185372 21.7157076,5.77326824 21.6649756,5.78341463 C21.6142436,5.79356103 21.5635124,5.80117071 21.5127805,5.8062439 C21.4620485,5.8113171 21.418927,5.81385366 21.3834146,5.81385366 C21.2058528,5.81385366 21.0587323,5.77834182 20.9420488,5.70731707 C20.8253653,5.63629233 20.7492685,5.51200089 20.7137561,5.33443902 C20.5412674,5.5018545 20.3294647,5.62360938 20.0783415,5.69970732 C19.8272183,5.77580526 19.5849768,5.81385366 19.3516098,5.81385366 C19.1740479,5.81385366 19.0040984,5.78975634 18.8417561,5.74156098 C18.6794138,5.69336561 18.5360982,5.62234193 18.4118049,5.5284878 C18.2875116,5.43463368 18.1885857,5.31541536 18.1150244,5.17082927 C18.041463,5.02624318 18.0046829,4.85756194 18.0046829,4.66478049 C18.0046829,4.42126708 18.0490727,4.2234154 18.1378537,4.07121951 C18.2266346,3.91902363 18.3433164,3.79980531 18.4879024,3.71356098 C18.6324885,3.62731664 18.7948284,3.56517092 18.9749268,3.52712195 C19.1550253,3.48907298 19.3363893,3.45990254 19.5190244,3.43960976 C19.6762935,3.40917058 19.8259505,3.38760982 19.968,3.37492683 C20.1100495,3.36224384 20.2356092,3.34068308 20.3446829,3.3102439 C20.4537566,3.27980473 20.5399997,3.23287837 20.6034146,3.16946341 C20.6668296,3.10604846 20.6985366,3.01092746 20.6985366,2.88409756 C20.6985366,2.77248725 20.6719027,2.68117109 20.6186341,2.61014634 C20.5653656,2.5391216 20.499415,2.48458556 20.4207805,2.44653659 C20.3421459,2.40848761 20.2546346,2.38312201 20.1582439,2.37043902 C20.0618532,2.35775603 19.970537,2.35141463 19.8842927,2.35141463 C19.6407793,2.35141463 19.440391,2.40214583 19.283122,2.50360976 C19.1258529,2.60507368 19.0370733,2.7623404 19.0167805,2.97541463 L18.1492683,2.97541463 C18.1644879,2.72175483 18.2253653,2.51122035 18.3319024,2.34380488 C18.4384396,2.17638941 18.5741455,2.04195173 18.7390244,1.9404878 C18.9039033,1.83902388 19.0903404,1.7680002 19.2983415,1.72741463 C19.5063425,1.68682907 19.7194135,1.66653659 19.937561,1.66653659 C20.1303424,1.66653659 20.3205844,1.68682907 20.5082927,1.72741463 C20.6960009,1.7680002 20.8646822,1.83395076 21.0143415,1.92526829 C21.1640007,2.01658582 21.2844873,2.13453586 21.3758049,2.27912195 C21.4671224,2.42370804 21.5127805,2.59999896 21.5127805,2.808 L21.5127805,4.83219512 Z M20.6452683,3.73639024 C20.5133652,3.82263458 20.3510254,3.87463406 20.1582439,3.89239024 C19.9654625,3.91014643 19.7726839,3.93678031 19.5799024,3.97229268 C19.4885849,3.98751227 19.3998053,4.00907303 19.313561,4.03697561 C19.2273166,4.06487819 19.1512198,4.10292659 19.0852683,4.15112195 C19.0193167,4.19931731 18.9673173,4.26273131 18.9292683,4.34136585 C18.8912193,4.42000039 18.8721951,4.51512139 18.8721951,4.62673171 C18.8721951,4.72312243 18.9000973,4.80429235 18.9559024,4.8702439 C19.0117076,4.93619545 19.0789264,4.98819493 19.157561,5.0262439 C19.2361955,5.06429287 19.3224386,5.09092675 19.4162927,5.10614634 C19.5101468,5.12136593 19.5951216,5.12897561 19.6712195,5.12897561 C19.7676102,5.12897561 19.8716092,5.11629281 19.9832195,5.09092683 C20.0948298,5.06556085 20.2000971,5.02243933 20.2990244,4.96156098 C20.3979517,4.90068262 20.4803899,4.82331754 20.5463415,4.72946341 C20.612293,4.63560929 20.6452683,4.52019581 20.6452683,4.38321951 L20.6452683,3.73639024 Z M26.1547317,5.70731707 L25.332878,5.70731707 L25.332878,5.17463415 L25.3176585,5.17463415 C25.200975,5.40292797 25.0310255,5.56653609 24.8078049,5.66546341 C24.5845842,5.76439074 24.3486842,5.81385366 24.1000976,5.81385366 C23.7906326,5.81385366 23.520489,5.75931762 23.2896585,5.6502439 C23.0588281,5.54117019 22.8673178,5.39278143 22.715122,5.20507317 C22.5629261,5.01736492 22.4487809,4.79541592 22.3726829,4.53921951 C22.296585,4.28302311 22.2585366,4.00780635 22.2585366,3.71356098 C22.2585366,3.35843725 22.3067312,3.05151349 22.403122,2.79278049 C22.4995127,2.53404749 22.627609,2.32097645 22.7874146,2.15356098 C22.9472203,1.9861455 23.1298526,1.86312234 23.3353171,1.7844878 C23.5407815,1.70585327 23.7500477,1.66653659 23.963122,1.66653659 C24.0848787,1.66653659 24.2091701,1.67795111 24.336,1.70078049 C24.4628299,1.72360987 24.5845848,1.76038999 24.7012683,1.81112195 C24.8179518,1.86185391 24.9257556,1.92653619 25.0246829,2.00517073 C25.1236103,2.08380527 25.2060485,2.17638971 25.272,2.28292683 L25.2872195,2.28292683 L25.2872195,0.27395122 L26.1547317,0.27395122 L26.1547317,5.70731707 Z M23.1260488,3.78204878 C23.1260488,3.94946425 23.1476095,4.11434065 23.1907317,4.27668293 C23.2338539,4.4390252 23.2998044,4.58360912 23.3885854,4.71043902 C23.4773663,4.83726893 23.5902432,4.93873133 23.7272195,5.01482927 C23.8641958,5.09092721 24.0265356,5.12897561 24.2142439,5.12897561 C24.4070254,5.12897561 24.57317,5.08839065 24.7126829,5.00721951 C24.8521958,4.92604837 24.966341,4.81951285 25.055122,4.68760976 C25.1439029,4.55570666 25.2098534,4.4073179 25.2529756,4.24243902 C25.2960978,4.07756015 25.3176585,3.90887891 25.3176585,3.73639024 C25.3176585,3.30009538 25.220001,2.96019634 25.0246829,2.71668293 C24.8293649,2.47316951 24.5642944,2.35141463 24.2294634,2.35141463 C24.0265356,2.35141463 23.8553178,2.39326787 23.7158049,2.47697561 C23.576292,2.56068335 23.4621468,2.66975543 23.3733659,2.80419512 C23.2845849,2.93863482 23.2211709,3.09082842 23.183122,3.26078049 C23.145073,3.43073256 23.1260488,3.60448692 23.1260488,3.78204878 Z M28.9018537,5.81385366 C28.5873155,5.81385366 28.3070256,5.76185418 28.0609756,5.65785366 C27.8149256,5.55385314 27.6069277,5.4105375 27.4369756,5.22790244 C27.2670235,5.04526738 27.137659,4.82712322 27.048878,4.57346341 C26.9600971,4.31980361 26.9157073,4.04078201 26.9157073,3.73639024 C26.9157073,3.43707167 26.9600971,3.16058663 27.048878,2.90692683 C27.137659,2.65326702 27.2670235,2.43512286 27.4369756,2.2524878 C27.6069277,2.06985275 27.8149256,1.92653711 28.0609756,1.82253659 C28.3070256,1.71853607 28.5873155,1.66653659 28.9018537,1.66653659 C29.2163918,1.66653659 29.4966817,1.71853607 29.7427317,1.82253659 C29.9887817,1.92653711 30.1967796,2.06985275 30.3667317,2.2524878 C30.5366838,2.43512286 30.6660483,2.65326702 30.7548293,2.90692683 C30.8436102,3.16058663 30.888,3.43707167 30.888,3.73639024 C30.888,4.04078201 30.8436102,4.31980361 30.7548293,4.57346341 C30.6660483,4.82712322 30.5366838,5.04526738 30.3667317,5.22790244 C30.1967796,5.4105375 29.9887817,5.55385314 29.7427317,5.65785366 C29.4966817,5.76185418 29.2163918,5.81385366 28.9018537,5.81385366 Z M28.9018537,5.12897561 C29.0946351,5.12897561 29.2620481,5.08839065 29.4040976,5.00721951 C29.5461471,4.92604837 29.6628288,4.81951285 29.7541463,4.68760976 C29.8454639,4.55570666 29.9126827,4.4073179 29.9558049,4.24243902 C29.998927,4.07756015 30.0204878,3.90887891 30.0204878,3.73639024 C30.0204878,3.56897477 29.998927,3.40156181 29.9558049,3.23414634 C29.9126827,3.06673087 29.8454639,2.91834211 29.7541463,2.78897561 C29.6628288,2.65960911 29.5461471,2.55434187 29.4040976,2.47317073 C29.2620481,2.39199959 29.0946351,2.35141463 28.9018537,2.35141463 C28.7090722,2.35141463 28.5416592,2.39199959 28.3996098,2.47317073 C28.2575603,2.55434187 28.1408785,2.65960911 28.049561,2.78897561 C27.9582434,2.91834211 27.8910246,3.06673087 27.8479024,3.23414634 C27.8047803,3.40156181 27.7832195,3.56897477 27.7832195,3.73639024 C27.7832195,3.90887891 27.8047803,4.07756015 27.8479024,4.24243902 C27.8910246,4.4073179 27.9582434,4.55570666 28.049561,4.68760976 C28.1408785,4.81951285 28.2575603,4.92604837 28.3996098,5.00721951 C28.5416592,5.08839065 28.7090722,5.12897561 28.9018537,5.12897561 Z M31.2152195,1.77307317 L31.8696585,1.77307317 L31.8696585,0.593560976 L32.7371707,0.593560976 L32.7371707,1.77307317 L33.5209756,1.77307317 L33.5209756,2.41990244 L32.7371707,2.41990244 L32.7371707,4.52019512 C32.7371707,4.61151265 32.7409756,4.69014601 32.7485854,4.75609756 C32.7561952,4.82204911 32.7739511,4.87785343 32.8018537,4.9235122 C32.8297562,4.96917096 32.8716095,5.00341452 32.9274146,5.0262439 C32.9832198,5.04907328 33.0593166,5.0604878 33.1557073,5.0604878 C33.2165857,5.0604878 33.2774631,5.05921952 33.3383415,5.05668293 C33.3992198,5.05414633 33.4600973,5.04526837 33.5209756,5.03004878 L33.5209756,5.69970732 C33.4245849,5.70985371 33.3307322,5.71999995 33.2394146,5.73014634 C33.1480971,5.74029273 33.0542444,5.74536585 32.9578537,5.74536585 C32.7295598,5.74536585 32.5456592,5.72380509 32.4061463,5.68068293 C32.2666334,5.63756076 32.1575614,5.57414676 32.0789268,5.49043902 C32.0002923,5.40673129 31.9470245,5.30146405 31.919122,5.17463415 C31.8912194,5.04780424 31.8747317,4.90322032 31.8696585,4.74087805 L31.8696585,2.41990244 L31.2152195,2.41990244 L31.2152195,1.77307317 Z M36.846439,3.39395122 C36.8362926,3.25697492 36.8071222,3.1250738 36.7589268,2.9982439 C36.7107315,2.871414 36.6447809,2.76107364 36.5610732,2.66721951 C36.4773654,2.57336538 36.375903,2.49726858 36.2566829,2.43892683 C36.1374628,2.38058507 36.0042934,2.35141463 35.8571707,2.35141463 C35.7049748,2.35141463 35.5667323,2.37804851 35.442439,2.43131707 C35.3181457,2.48458563 35.2116102,2.55814587 35.1228293,2.652 C35.0340483,2.74585413 34.9630247,2.85619449 34.9097561,2.98302439 C34.8564875,3.10985429 34.8273171,3.24682853 34.8222439,3.39395122 L36.846439,3.39395122 Z M34.8222439,3.96468293 C34.8222439,4.11687881 34.8438047,4.26399929 34.8869268,4.40604878 C34.930049,4.54809827 34.9947313,4.67238971 35.0809756,4.77892683 C35.1672199,4.88546395 35.276292,4.97043871 35.4081951,5.03385366 C35.5400982,5.09726861 35.6973649,5.12897561 35.88,5.12897561 C36.1336598,5.12897561 36.3378529,5.07443957 36.4925854,4.96536585 C36.6473178,4.85629214 36.7627313,4.69268402 36.8388293,4.47453659 L37.6606829,4.47453659 C37.6150242,4.68761082 37.5363908,4.87785282 37.4247805,5.04526829 C37.3131702,5.21268376 37.1787325,5.35346284 37.0214634,5.46760976 C36.8641943,5.58175667 36.6879034,5.66799971 36.4925854,5.72634146 C36.2972673,5.78468322 36.0930742,5.81385366 35.88,5.81385366 C35.570535,5.81385366 35.2965866,5.76312246 35.0581463,5.66165854 C34.8197061,5.56019461 34.6180496,5.41814725 34.4531707,5.2355122 C34.2882919,5.05287714 34.1640004,4.83473298 34.0802927,4.58107317 C33.9965849,4.32741337 33.9547317,4.04839177 33.9547317,3.744 C33.9547317,3.46497421 33.9991215,3.19990369 34.0879024,2.94878049 C34.1766834,2.69765728 34.3035114,2.47697656 34.4683902,2.28673171 C34.6332691,2.09648685 34.8323891,1.94556153 35.0657561,1.83395122 C35.2991231,1.72234091 35.5629254,1.66653659 35.8571707,1.66653659 C36.1666357,1.66653659 36.444389,1.73121887 36.690439,1.86058537 C36.936489,1.98995187 37.1406821,2.16116967 37.3030244,2.3742439 C37.4653667,2.58731814 37.5833167,2.83209618 37.656878,3.10858537 C37.7304394,3.38507455 37.7494636,3.67043755 37.7139512,3.96468293 L34.8222439,3.96468293 Z M41.0318049,3.08956098 C40.9962925,2.84604756 40.8986349,2.66214696 40.7388293,2.53785366 C40.5790236,2.41356035 40.3773671,2.35141463 40.1338537,2.35141463 C40.0222433,2.35141463 39.903025,2.37043883 39.7761951,2.4084878 C39.6493652,2.44653678 39.5326835,2.51756046 39.4261463,2.62156098 C39.3196092,2.7255615 39.2308296,2.87014542 39.1598049,3.05531707 C39.0887801,3.24048873 39.0532683,3.48273021 39.0532683,3.78204878 C39.0532683,3.94439106 39.0722925,4.1067309 39.1103415,4.26907317 C39.1483904,4.43141545 39.2092679,4.57599937 39.2929756,4.70282927 C39.3766833,4.82965917 39.4844871,4.93238985 39.6163902,5.01102439 C39.7482933,5.08965893 39.9080966,5.12897561 40.0958049,5.12897561 C40.3494647,5.12897561 40.5587309,5.05034225 40.7236098,4.89307317 C40.8884886,4.73580409 40.9912193,4.51512337 41.0318049,4.23102439 L41.8993171,4.23102439 C41.8181459,4.7434172 41.6240991,5.13531572 41.3171707,5.40673171 C41.0102424,5.6781477 40.6031245,5.81385366 40.0958049,5.81385366 C39.7863399,5.81385366 39.5136597,5.76185418 39.2777561,5.65785366 C39.0418525,5.55385314 38.8427325,5.41180578 38.6803902,5.23170732 C38.518048,5.05160886 38.3950248,4.83726954 38.3113171,4.58868293 C38.2276093,4.34009632 38.1857561,4.07122096 38.1857561,3.78204878 C38.1857561,3.48780341 38.2263411,3.21131837 38.3075122,2.95258537 C38.3886833,2.69385236 38.5104382,2.4693668 38.6727805,2.27912195 C38.8351228,2.0888771 39.0367793,1.93922006 39.2777561,1.83014634 C39.5187329,1.72107263 39.8015594,1.66653659 40.1262439,1.66653659 C40.3545377,1.66653659 40.5714136,1.69570703 40.776878,1.75404878 C40.9823425,1.81239054 41.1649748,1.89990186 41.3247805,2.01658537 C41.4845862,2.13326888 41.615219,2.28038936 41.7166829,2.45795122 C41.8181468,2.63551308 41.8790243,2.84604756 41.8993171,3.08956098 L41.0318049,3.08956098 Z M42.6070244,1.77307317 L43.428878,1.77307317 L43.428878,2.35141463 L43.4440976,2.36663415 C43.5760007,2.14848671 43.7484867,1.97726891 43.961561,1.85297561 C44.1746352,1.72868231 44.4105353,1.66653659 44.6692683,1.66653659 C45.10049,1.66653659 45.440389,1.77814523 45.6889756,2.00136585 C45.9375622,2.22458648 46.0618537,2.5594124 46.0618537,3.00585366 L46.0618537,5.70731707 L45.1943415,5.70731707 L45.1943415,3.23414634 C45.1841951,2.92468138 45.1182445,2.70019582 44.9964878,2.56068293 C44.8747311,2.42117003 44.6844891,2.35141463 44.4257561,2.35141463 C44.2786334,2.35141463 44.1467323,2.37804851 44.0300488,2.43131707 C43.9133653,2.48458563 43.8144394,2.55814587 43.7332683,2.652 C43.6520972,2.74585413 43.5886832,2.85619449 43.5430244,2.98302439 C43.4973656,3.10985429 43.4745366,3.24429197 43.4745366,3.38634146 L43.4745366,5.70731707 L42.6070244,5.70731707 L42.6070244,1.77307317 Z M46.9978537,0.27395122 L47.8653659,0.27395122 L47.8653659,1.09580488 L46.9978537,1.09580488 L46.9978537,0.27395122 Z M46.9978537,1.77307317 L47.8653659,1.77307317 L47.8653659,5.70731707 L46.9978537,5.70731707 L46.9978537,1.77307317 Z M52.104,4.83219512 C52.104,4.93873224 52.1179511,5.01482904 52.1458537,5.0604878 C52.1737562,5.10614657 52.2282923,5.12897561 52.3094634,5.12897561 L52.4007805,5.12897561 C52.4362929,5.12897561 52.4768778,5.12390249 52.5225366,5.1137561 L52.5225366,5.71492683 C52.4920974,5.72507322 52.4527807,5.73648774 52.4045854,5.74917073 C52.35639,5.76185372 52.3069271,5.77326824 52.2561951,5.78341463 C52.2054632,5.79356103 52.154732,5.80117071 52.104,5.8062439 C52.053268,5.8113171 52.0101465,5.81385366 51.9746341,5.81385366 C51.7970723,5.81385366 51.6499518,5.77834182 51.5332683,5.70731707 C51.4165848,5.63629233 51.340488,5.51200089 51.3049756,5.33443902 C51.1324869,5.5018545 50.9206842,5.62360938 50.669561,5.69970732 C50.4184378,5.77580526 50.1761963,5.81385366 49.9428293,5.81385366 C49.7652674,5.81385366 49.5953179,5.78975634 49.4329756,5.74156098 C49.2706333,5.69336561 49.1273177,5.62234193 49.0030244,5.5284878 C48.8787311,5.43463368 48.7798052,5.31541536 48.7062439,5.17082927 C48.6326826,5.02624318 48.5959024,4.85756194 48.5959024,4.66478049 C48.5959024,4.42126708 48.6402922,4.2234154 48.7290732,4.07121951 C48.8178541,3.91902363 48.9345359,3.79980531 49.079122,3.71356098 C49.223708,3.62731664 49.3860479,3.56517092 49.5661463,3.52712195 C49.7462448,3.48907298 49.9276088,3.45990254 50.1102439,3.43960976 C50.267513,3.40917058 50.41717,3.38760982 50.5592195,3.37492683 C50.701269,3.36224384 50.8268287,3.34068308 50.9359024,3.3102439 C51.0449762,3.27980473 51.1312192,3.23287837 51.1946341,3.16946341 C51.2580491,3.10604846 51.2897561,3.01092746 51.2897561,2.88409756 C51.2897561,2.77248725 51.2631222,2.68117109 51.2098537,2.61014634 C51.1565851,2.5391216 51.0906345,2.48458556 51.012,2.44653659 C50.9333655,2.40848761 50.8458541,2.38312201 50.7494634,2.37043902 C50.6530727,2.35775603 50.5617565,2.35141463 50.4755122,2.35141463 C50.2319988,2.35141463 50.0316105,2.40214583 49.8743415,2.50360976 C49.7170724,2.60507368 49.6282928,2.7623404 49.608,2.97541463 L48.7404878,2.97541463 C48.7557074,2.72175483 48.8165848,2.51122035 48.923122,2.34380488 C49.0296591,2.17638941 49.165365,2.04195173 49.3302439,1.9404878 C49.4951228,1.83902388 49.6815599,1.7680002 49.889561,1.72741463 C50.097562,1.68682907 50.3106331,1.66653659 50.5287805,1.66653659 C50.7215619,1.66653659 50.9118039,1.68682907 51.0995122,1.72741463 C51.2872205,1.7680002 51.4559017,1.83395076 51.605561,1.92526829 C51.7552203,2.01658582 51.8757069,2.13453586 51.9670244,2.27912195 C52.0583419,2.42370804 52.104,2.59999896 52.104,2.808 L52.104,4.83219512 Z M51.2364878,3.73639024 C51.1045847,3.82263458 50.9422449,3.87463406 50.7494634,3.89239024 C50.556682,3.91014643 50.3639034,3.93678031 50.171122,3.97229268 C50.0798044,3.98751227 49.9910248,4.00907303 49.9047805,4.03697561 C49.8185362,4.06487819 49.7424394,4.10292659 49.6764878,4.15112195 C49.6105363,4.19931731 49.5585368,4.26273131 49.5204878,4.34136585 C49.4824388,4.42000039 49.4634146,4.51512139 49.4634146,4.62673171 C49.4634146,4.72312243 49.4913168,4.80429235 49.547122,4.8702439 C49.6029271,4.93619545 49.6701459,4.98819493 49.7487805,5.0262439 C49.827415,5.06429287 49.9136581,5.09092675 50.0075122,5.10614634 C50.1013663,5.12136593 50.1863411,5.12897561 50.262439,5.12897561 C50.3588298,5.12897561 50.4628287,5.11629281 50.574439,5.09092683 C50.6860493,5.06556085 50.7913166,5.02243933 50.8902439,4.96156098 C50.9891712,4.90068262 51.0716094,4.82331754 51.137561,4.72946341 C51.2035125,4.63560929 51.2364878,4.52019581 51.2364878,4.38321951 L51.2364878,3.73639024 Z" id="mercadotecnia" fill="#B5B7C2"></path>
            <path d="M53.7477073,1.77307317 L54.569561,1.77307317 L54.569561,2.3057561 L54.5847805,2.3057561 C54.7065372,2.07746227 54.8764867,1.91385415 55.0946341,1.81492683 C55.3127816,1.71599951 55.5486817,1.66653659 55.8023415,1.66653659 C56.1118064,1.66653659 56.3819501,1.72107263 56.6127805,1.83014634 C56.8436109,1.93922006 57.0351212,2.0888771 57.1873171,2.27912195 C57.339513,2.4693668 57.4536582,2.6913158 57.5297561,2.94497561 C57.605854,3.19863541 57.6439024,3.47004733 57.6439024,3.75921951 C57.6439024,4.02302571 57.6096589,4.27921827 57.5411707,4.52780488 C57.4726826,4.77639149 57.3686836,4.99580393 57.2291707,5.18604878 C57.0896578,5.37629363 56.9133669,5.52848723 56.7002927,5.64263415 C56.4872184,5.75678106 56.236099,5.81385366 55.9469268,5.81385366 C55.8200969,5.81385366 55.6932689,5.80243914 55.566439,5.77960976 C55.4396091,5.75678037 55.3178542,5.72000025 55.2011707,5.66926829 C55.0844872,5.61853633 54.9766834,5.55385405 54.8777561,5.47521951 C54.7788288,5.39658497 54.6963906,5.30400053 54.630439,5.19746341 L54.6152195,5.19746341 L54.6152195,7.16078049 L53.7477073,7.16078049 L53.7477073,1.77307317 Z M56.7763902,3.744 C56.7763902,3.56643814 56.7535612,3.39395206 56.7079024,3.22653659 C56.6622437,3.05912111 56.5937566,2.91073235 56.502439,2.78136585 C56.4111215,2.65199935 56.2969763,2.54800039 56.16,2.46936585 C56.0230237,2.39073131 55.865757,2.35141463 55.6881951,2.35141463 C55.322925,2.35141463 55.0477082,2.47824263 54.8625366,2.73190244 C54.6773649,2.98556224 54.5847805,3.32292472 54.5847805,3.744 C54.5847805,3.94185465 54.6088778,4.12575525 54.6570732,4.29570732 C54.7052685,4.46565939 54.7775605,4.61151159 54.8739512,4.73326829 C54.9703419,4.855025 55.0857554,4.95141428 55.2201951,5.02243902 C55.3546348,5.09346377 55.5106333,5.12897561 55.6881951,5.12897561 C55.8860498,5.12897561 56.0534627,5.08839065 56.190439,5.00721951 C56.3274153,4.92604837 56.4402922,4.82078113 56.5290732,4.69141463 C56.6178541,4.56204813 56.6812681,4.41492765 56.7193171,4.25004878 C56.757366,4.08516991 56.7763902,3.91648867 56.7763902,3.744 Z M61.8292683,5.70731707 L60.9769756,5.70731707 L60.9769756,5.15941463 L60.9617561,5.15941463 C60.855219,5.35726928 60.696684,5.51580428 60.4861463,5.63502439 C60.2756087,5.7542445 60.0612694,5.81385366 59.843122,5.81385366 C59.3256559,5.81385366 58.9515133,5.68575738 58.7206829,5.42956098 C58.4898525,5.17336457 58.374439,4.78653917 58.374439,4.26907317 L58.374439,1.77307317 L59.2419512,1.77307317 L59.2419512,4.18536585 C59.2419512,4.53034319 59.3079018,4.77385295 59.4398049,4.91590244 C59.571708,5.05795193 59.7568769,5.12897561 59.9953171,5.12897561 C60.1779521,5.12897561 60.3301457,5.10107345 60.4519024,5.04526829 C60.5736591,4.98946314 60.672585,4.91463462 60.7486829,4.82078049 C60.8247809,4.72692636 60.8793169,4.61404944 60.9122927,4.48214634 C60.9452685,4.35024324 60.9617561,4.20819588 60.9617561,4.056 L60.9617561,1.77307317 L61.8292683,1.77307317 L61.8292683,5.70731707 Z M62.7652683,0.27395122 L63.6327805,0.27395122 L63.6327805,2.28292683 L63.648,2.28292683 C63.7088784,2.1865361 63.7824386,2.10029306 63.8686829,2.02419512 C63.9549273,1.94809718 64.0500483,1.8834149 64.1540488,1.83014634 C64.2580493,1.77687778 64.3671214,1.73629282 64.4812683,1.70839024 C64.5954152,1.68048767 64.7082921,1.66653659 64.8199024,1.66653659 C65.1293674,1.66653659 65.399511,1.72107263 65.6303415,1.83014634 C65.8611719,1.93922006 66.0526822,2.0888771 66.204878,2.27912195 C66.3570739,2.4693668 66.4712191,2.6913158 66.5473171,2.94497561 C66.623415,3.19863541 66.6614634,3.47004733 66.6614634,3.75921951 C66.6614634,4.02302571 66.6272199,4.27921827 66.5587317,4.52780488 C66.4902436,4.77639149 66.3862446,4.99580393 66.2467317,5.18604878 C66.1072188,5.37629363 65.9309279,5.52848723 65.7178537,5.64263415 C65.5047794,5.75678106 65.25366,5.81385366 64.9644878,5.81385366 C64.8325847,5.81385366 64.6994153,5.8049757 64.5649756,5.78721951 C64.4305359,5.76946333 64.3024396,5.73521977 64.1806829,5.6844878 C64.0589262,5.63375584 63.9485859,5.56780528 63.8496585,5.48663415 C63.7507312,5.40546301 63.668293,5.29892749 63.6023415,5.16702439 L63.587122,5.16702439 L63.587122,5.70731707 L62.7652683,5.70731707 L62.7652683,0.27395122 Z M65.7939512,3.744 C65.7939512,3.56643814 65.7711222,3.39395206 65.7254634,3.22653659 C65.6798046,3.05912111 65.6113175,2.91073235 65.52,2.78136585 C65.4286825,2.65199935 65.3145373,2.54800039 65.177561,2.46936585 C65.0405847,2.39073131 64.883318,2.35141463 64.7057561,2.35141463 C64.340486,2.35141463 64.0652692,2.47824263 63.8800976,2.73190244 C63.6949259,2.98556224 63.6023415,3.32292472 63.6023415,3.744 C63.6023415,3.94185465 63.6264388,4.12575525 63.6746341,4.29570732 C63.7228295,4.46565939 63.7951215,4.61151159 63.8915122,4.73326829 C63.9879029,4.855025 64.1033164,4.95141428 64.2377561,5.02243902 C64.3721958,5.09346377 64.5281942,5.12897561 64.7057561,5.12897561 C64.9036107,5.12897561 65.0710237,5.08839065 65.208,5.00721951 C65.3449763,4.92604837 65.4578532,4.82078113 65.5466341,4.69141463 C65.6354151,4.56204813 65.6988291,4.41492765 65.736878,4.25004878 C65.774927,4.08516991 65.7939512,3.91648867 65.7939512,3.744 Z M67.4148293,0.27395122 L68.2823415,0.27395122 L68.2823415,5.70731707 L67.4148293,5.70731707 L67.4148293,0.27395122 Z M69.2487805,0.27395122 L70.1162927,0.27395122 L70.1162927,1.09580488 L69.2487805,1.09580488 L69.2487805,0.27395122 Z M69.2487805,1.77307317 L70.1162927,1.77307317 L70.1162927,5.70731707 L69.2487805,5.70731707 L69.2487805,1.77307317 Z M73.7157073,3.08956098 C73.6801949,2.84604756 73.5825374,2.66214696 73.4227317,2.53785366 C73.262926,2.41356035 73.0612695,2.35141463 72.8177561,2.35141463 C72.7061458,2.35141463 72.5869275,2.37043883 72.4600976,2.4084878 C72.3332677,2.44653678 72.2165859,2.51756046 72.1100488,2.62156098 C72.0035117,2.7255615 71.9147321,2.87014542 71.8437073,3.05531707 C71.7726826,3.24048873 71.7371707,3.48273021 71.7371707,3.78204878 C71.7371707,3.94439106 71.7561949,4.1067309 71.7942439,4.26907317 C71.8322929,4.43141545 71.8931703,4.57599937 71.976878,4.70282927 C72.0605858,4.82965917 72.1683896,4.93238985 72.3002927,5.01102439 C72.4321958,5.08965893 72.5919991,5.12897561 72.7797073,5.12897561 C73.0333671,5.12897561 73.2426333,5.05034225 73.4075122,4.89307317 C73.5723911,4.73580409 73.6751217,4.51512337 73.7157073,4.23102439 L74.5832195,4.23102439 C74.5020484,4.7434172 74.3080015,5.13531572 74.0010732,5.40673171 C73.6941448,5.6781477 73.2870269,5.81385366 72.7797073,5.81385366 C72.4702424,5.81385366 72.1975622,5.76185418 71.9616585,5.65785366 C71.7257549,5.55385314 71.526635,5.41180578 71.3642927,5.23170732 C71.2019504,5.05160886 71.0789272,4.83726954 70.9952195,4.58868293 C70.9115118,4.34009632 70.8696585,4.07122096 70.8696585,3.78204878 C70.8696585,3.48780341 70.9102435,3.21131837 70.9914146,2.95258537 C71.0725858,2.69385236 71.1943407,2.4693668 71.3566829,2.27912195 C71.5190252,2.0888771 71.7206817,1.93922006 71.9616585,1.83014634 C72.2026354,1.72107263 72.4854618,1.66653659 72.8101463,1.66653659 C73.0384402,1.66653659 73.255316,1.69570703 73.4607805,1.75404878 C73.6662449,1.81239054 73.8488772,1.89990186 74.0086829,2.01658537 C74.1684886,2.13326888 74.2991214,2.28038936 74.4005854,2.45795122 C74.5020493,2.63551308 74.5629267,2.84604756 74.5832195,3.08956098 L73.7157073,3.08956098 Z M75.3137561,0.27395122 L76.1812683,0.27395122 L76.1812683,1.09580488 L75.3137561,1.09580488 L75.3137561,0.27395122 Z M75.3137561,1.77307317 L76.1812683,1.77307317 L76.1812683,5.70731707 L75.3137561,5.70731707 L75.3137561,1.77307317 Z M80.8308293,5.70731707 L80.0089756,5.70731707 L80.0089756,5.17463415 L79.9937561,5.17463415 C79.8770726,5.40292797 79.7071231,5.56653609 79.4839024,5.66546341 C79.2606818,5.76439074 79.0247817,5.81385366 78.7761951,5.81385366 C78.4667302,5.81385366 78.1965865,5.75931762 77.9657561,5.6502439 C77.7349257,5.54117019 77.5434154,5.39278143 77.3912195,5.20507317 C77.2390236,5.01736492 77.1248784,4.79541592 77.0487805,4.53921951 C76.9726825,4.28302311 76.9346341,4.00780635 76.9346341,3.71356098 C76.9346341,3.35843725 76.9828288,3.05151349 77.0792195,2.79278049 C77.1756102,2.53404749 77.3037065,2.32097645 77.4635122,2.15356098 C77.6233179,1.9861455 77.8059502,1.86312234 78.0114146,1.7844878 C78.2168791,1.70585327 78.4261453,1.66653659 78.6392195,1.66653659 C78.7609762,1.66653659 78.8852677,1.67795111 79.0120976,1.70078049 C79.1389275,1.72360987 79.2606823,1.76038999 79.3773659,1.81112195 C79.4940494,1.86185391 79.6018532,1.92653619 79.7007805,2.00517073 C79.7997078,2.08380527 79.882146,2.17638971 79.9480976,2.28292683 L79.9633171,2.28292683 L79.9633171,0.27395122 L80.8308293,0.27395122 L80.8308293,5.70731707 Z M77.8021463,3.78204878 C77.8021463,3.94946425 77.8237071,4.11434065 77.8668293,4.27668293 C77.9099514,4.4390252 77.975902,4.58360912 78.0646829,4.71043902 C78.1534639,4.83726893 78.2663408,4.93873133 78.4033171,5.01482927 C78.5402934,5.09092721 78.7026332,5.12897561 78.8903415,5.12897561 C79.0831229,5.12897561 79.2492676,5.08839065 79.3887805,5.00721951 C79.5282934,4.92604837 79.6424386,4.81951285 79.7312195,4.68760976 C79.8200004,4.55570666 79.885951,4.4073179 79.9290732,4.24243902 C79.9721953,4.07756015 79.9937561,3.90887891 79.9937561,3.73639024 C79.9937561,3.30009538 79.8960985,2.96019634 79.7007805,2.71668293 C79.5054624,2.47316951 79.2403919,2.35141463 78.905561,2.35141463 C78.7026331,2.35141463 78.5314153,2.39326787 78.3919024,2.47697561 C78.2523895,2.56068335 78.1382443,2.66975543 78.0494634,2.80419512 C77.9606825,2.93863482 77.8972685,3.09082842 77.8592195,3.26078049 C77.8211705,3.43073256 77.8021463,3.60448692 77.8021463,3.78204878 Z M85.0694634,4.83219512 C85.0694634,4.93873224 85.0834145,5.01482904 85.1113171,5.0604878 C85.1392197,5.10614657 85.1937557,5.12897561 85.2749268,5.12897561 L85.3662439,5.12897561 C85.4017563,5.12897561 85.4423412,5.12390249 85.488,5.1137561 L85.488,5.71492683 C85.4575608,5.72507322 85.4182441,5.73648774 85.3700488,5.74917073 C85.3218534,5.76185372 85.2723905,5.77326824 85.2216585,5.78341463 C85.1709266,5.79356103 85.1201954,5.80117071 85.0694634,5.8062439 C85.0187315,5.8113171 84.9756099,5.81385366 84.9400976,5.81385366 C84.7625357,5.81385366 84.6154152,5.77834182 84.4987317,5.70731707 C84.3820482,5.63629233 84.3059514,5.51200089 84.270439,5.33443902 C84.0979504,5.5018545 83.8861476,5.62360938 83.6350244,5.69970732 C83.3839012,5.77580526 83.1416597,5.81385366 82.9082927,5.81385366 C82.7307308,5.81385366 82.5607813,5.78975634 82.398439,5.74156098 C82.2360967,5.69336561 82.0927811,5.62234193 81.9684878,5.5284878 C81.8441945,5.43463368 81.7452687,5.31541536 81.6717073,5.17082927 C81.598146,5.02624318 81.5613659,4.85756194 81.5613659,4.66478049 C81.5613659,4.42126708 81.6057557,4.2234154 81.6945366,4.07121951 C81.7833175,3.91902363 81.8999993,3.79980531 82.0445854,3.71356098 C82.1891715,3.62731664 82.3515113,3.56517092 82.5316098,3.52712195 C82.7117082,3.48907298 82.8930723,3.45990254 83.0757073,3.43960976 C83.2329764,3.40917058 83.3826334,3.38760982 83.5246829,3.37492683 C83.6667324,3.36224384 83.7922921,3.34068308 83.9013659,3.3102439 C84.0104396,3.27980473 84.0966826,3.23287837 84.1600976,3.16946341 C84.2235125,3.10604846 84.2552195,3.01092746 84.2552195,2.88409756 C84.2552195,2.77248725 84.2285856,2.68117109 84.1753171,2.61014634 C84.1220485,2.5391216 84.056098,2.48458556 83.9774634,2.44653659 C83.8988289,2.40848761 83.8113176,2.38312201 83.7149268,2.37043902 C83.6185361,2.35775603 83.5272199,2.35141463 83.4409756,2.35141463 C83.1974622,2.35141463 82.997074,2.40214583 82.8398049,2.50360976 C82.6825358,2.60507368 82.5937562,2.7623404 82.5734634,2.97541463 L81.7059512,2.97541463 C81.7211708,2.72175483 81.7820482,2.51122035 81.8885854,2.34380488 C81.9951225,2.17638941 82.1308284,2.04195173 82.2957073,1.9404878 C82.4605862,1.83902388 82.6470234,1.7680002 82.8550244,1.72741463 C83.0630254,1.68682907 83.2760965,1.66653659 83.4942439,1.66653659 C83.6870254,1.66653659 83.8772674,1.68682907 84.0649756,1.72741463 C84.2526839,1.7680002 84.4213651,1.83395076 84.5710244,1.92526829 C84.7206837,2.01658582 84.8411703,2.13453586 84.9324878,2.27912195 C85.0238053,2.42370804 85.0694634,2.59999896 85.0694634,2.808 L85.0694634,4.83219512 Z M84.2019512,3.73639024 C84.0700481,3.82263458 83.9077083,3.87463406 83.7149268,3.89239024 C83.5221454,3.91014643 83.3293668,3.93678031 83.1365854,3.97229268 C83.0452678,3.98751227 82.9564882,4.00907303 82.8702439,4.03697561 C82.7839996,4.06487819 82.7079028,4.10292659 82.6419512,4.15112195 C82.5759997,4.19931731 82.5240002,4.26273131 82.4859512,4.34136585 C82.4479022,4.42000039 82.428878,4.51512139 82.428878,4.62673171 C82.428878,4.72312243 82.4567802,4.80429235 82.5125854,4.8702439 C82.5683905,4.93619545 82.6356094,4.98819493 82.7142439,5.0262439 C82.7928784,5.06429287 82.8791215,5.09092675 82.9729756,5.10614634 C83.0668297,5.12136593 83.1518045,5.12897561 83.2279024,5.12897561 C83.3242932,5.12897561 83.4282921,5.11629281 83.5399024,5.09092683 C83.6515128,5.06556085 83.75678,5.02243933 83.8557073,4.96156098 C83.9546346,4.90068262 84.0370728,4.82331754 84.1030244,4.72946341 C84.1689759,4.63560929 84.2019512,4.52019581 84.2019512,4.38321951 L84.2019512,3.73639024 Z M89.7114146,5.70731707 L88.889561,5.70731707 L88.889561,5.17463415 L88.8743415,5.17463415 C88.757658,5.40292797 88.5877084,5.56653609 88.3644878,5.66546341 C88.1412672,5.76439074 87.9053671,5.81385366 87.6567805,5.81385366 C87.3473155,5.81385366 87.0771719,5.75931762 86.8463415,5.6502439 C86.615511,5.54117019 86.4240008,5.39278143 86.2718049,5.20507317 C86.119609,5.01736492 86.0054638,4.79541592 85.9293659,4.53921951 C85.8532679,4.28302311 85.8152195,4.00780635 85.8152195,3.71356098 C85.8152195,3.35843725 85.8634142,3.05151349 85.9598049,2.79278049 C86.0561956,2.53404749 86.1842919,2.32097645 86.3440976,2.15356098 C86.5039032,1.9861455 86.6865356,1.86312234 86.892,1.7844878 C87.0974644,1.70585327 87.3067306,1.66653659 87.5198049,1.66653659 C87.6415616,1.66653659 87.765853,1.67795111 87.8926829,1.70078049 C88.0195128,1.72360987 88.1412677,1.76038999 88.2579512,1.81112195 C88.3746347,1.86185391 88.4824385,1.92653619 88.5813659,2.00517073 C88.6802932,2.08380527 88.7627314,2.17638971 88.8286829,2.28292683 L88.8439024,2.28292683 L88.8439024,0.27395122 L89.7114146,0.27395122 L89.7114146,5.70731707 Z M86.6827317,3.78204878 C86.6827317,3.94946425 86.7042925,4.11434065 86.7474146,4.27668293 C86.7905368,4.4390252 86.8564874,4.58360912 86.9452683,4.71043902 C87.0340492,4.83726893 87.1469261,4.93873133 87.2839024,5.01482927 C87.4208787,5.09092721 87.5832186,5.12897561 87.7709268,5.12897561 C87.9637083,5.12897561 88.129853,5.08839065 88.2693659,5.00721951 C88.4088787,4.92604837 88.5230239,4.81951285 88.6118049,4.68760976 C88.7005858,4.55570666 88.7665364,4.4073179 88.8096585,4.24243902 C88.8527807,4.07756015 88.8743415,3.90887891 88.8743415,3.73639024 C88.8743415,3.30009538 88.7766839,2.96019634 88.5813659,2.71668293 C88.3860478,2.47316951 88.1209773,2.35141463 87.7861463,2.35141463 C87.5832185,2.35141463 87.4120007,2.39326787 87.2724878,2.47697561 C87.1329749,2.56068335 87.0188297,2.66975543 86.9300488,2.80419512 C86.8412678,2.93863482 86.7778538,3.09082842 86.7398049,3.26078049 C86.7017559,3.43073256 86.6827317,3.60448692 86.6827317,3.78204878 Z" id="publicidad" fill="#9698A1"></path>
            <path d="M91.2980488,1.77307317 L92.1199024,1.77307317 L92.1199024,2.32097561 L92.1427317,2.32097561 C92.2086833,2.22458488 92.2797069,2.13580528 92.3558049,2.05463415 C92.4319028,1.97346301 92.5168776,1.90497589 92.6107317,1.84917073 C92.7045858,1.79336557 92.8123896,1.74897577 92.9341463,1.716 C93.055903,1.68302423 93.1954138,1.66653659 93.3526829,1.66653659 C93.5911231,1.66653659 93.8130721,1.71980435 94.0185366,1.82634146 C94.224001,1.93287858 94.3698532,2.09775498 94.4560976,2.32097561 C94.6032202,2.11804777 94.7731698,1.95824449 94.9659512,1.84156098 C95.1587327,1.72487747 95.3997059,1.66653659 95.688878,1.66653659 C96.1048801,1.66653659 96.4282915,1.76799899 96.659122,1.97092683 C96.8899524,2.17385467 97.0053659,2.51375371 97.0053659,2.99063415 L97.0053659,5.70731707 L96.1378537,5.70731707 L96.1378537,3.40917073 C96.1378537,3.25190165 96.1327805,3.10858601 96.1226341,2.97921951 C96.1124878,2.84985301 96.0833173,2.73824437 96.035122,2.64439024 C95.9869266,2.55053612 95.9146346,2.47824416 95.8182439,2.4275122 C95.7218532,2.37678023 95.5899521,2.35141463 95.4225366,2.35141463 C95.1282912,2.35141463 94.9152202,2.44273079 94.7833171,2.62536585 C94.651414,2.80800091 94.5854634,3.06673003 94.5854634,3.40156098 L94.5854634,5.70731707 L93.7179512,5.70731707 L93.7179512,3.18087805 C93.7179512,2.90692546 93.6684883,2.70019582 93.569561,2.56068293 C93.4706337,2.42117003 93.2892696,2.35141463 93.0254634,2.35141463 C92.9138531,2.35141463 92.8060493,2.37424367 92.7020488,2.41990244 C92.5980483,2.4655612 92.5067321,2.53151176 92.4280976,2.6177561 C92.349463,2.70400043 92.286049,2.81053595 92.2378537,2.93736585 C92.1896583,3.06419576 92.165561,3.20877968 92.165561,3.37112195 L92.165561,5.70731707 L91.2980488,5.70731707 L91.2980488,1.77307317 Z M100.62,3.39395122 C100.609854,3.25697492 100.580683,3.1250738 100.532488,2.9982439 C100.484292,2.871414 100.418342,2.76107364 100.334634,2.66721951 C100.250926,2.57336538 100.149464,2.49726858 100.030244,2.43892683 C99.9110238,2.38058507 99.7778544,2.35141463 99.6307317,2.35141463 C99.4785358,2.35141463 99.3402933,2.37804851 99.216,2.43131707 C99.0917067,2.48458563 98.9851712,2.55814587 98.8963902,2.652 C98.8076093,2.74585413 98.7365856,2.85619449 98.6833171,2.98302439 C98.6300485,3.10985429 98.6008781,3.24682853 98.5958049,3.39395122 L100.62,3.39395122 Z M98.5958049,3.96468293 C98.5958049,4.11687881 98.6173656,4.26399929 98.6604878,4.40604878 C98.70361,4.54809827 98.7682923,4.67238971 98.8545366,4.77892683 C98.9407809,4.88546395 99.049853,4.97043871 99.1817561,5.03385366 C99.3136592,5.09726861 99.4709259,5.12897561 99.653561,5.12897561 C99.9072208,5.12897561 100.111414,5.07443957 100.266146,4.96536585 C100.420879,4.85629214 100.536292,4.69268402 100.61239,4.47453659 L101.434244,4.47453659 C101.388585,4.68761082 101.309952,4.87785282 101.198341,5.04526829 C101.086731,5.21268376 100.952293,5.35346284 100.795024,5.46760976 C100.637755,5.58175667 100.461464,5.66799971 100.266146,5.72634146 C100.070828,5.78468322 99.8666352,5.81385366 99.653561,5.81385366 C99.344096,5.81385366 99.0701475,5.76312246 98.8317073,5.66165854 C98.5932671,5.56019461 98.3916106,5.41814725 98.2267317,5.2355122 C98.0618528,5.05287714 97.9375614,4.83473298 97.8538537,4.58107317 C97.7701459,4.32741337 97.7282927,4.04839177 97.7282927,3.744 C97.7282927,3.46497421 97.7726825,3.19990369 97.8614634,2.94878049 C97.9502443,2.69765728 98.0770723,2.47697656 98.2419512,2.28673171 C98.4068301,2.09648685 98.6059501,1.94556153 98.8393171,1.83395122 C99.0726841,1.72234091 99.3364863,1.66653659 99.6307317,1.66653659 C99.9401967,1.66653659 100.21795,1.73121887 100.464,1.86058537 C100.71005,1.98995187 100.914243,2.16116967 101.076585,2.3742439 C101.238928,2.58731814 101.356878,2.83209618 101.430439,3.10858537 C101.504,3.38507455 101.523025,3.67043755 101.487512,3.96468293 L98.5958049,3.96468293 Z M105.855512,5.70731707 L105.033659,5.70731707 L105.033659,5.17463415 L105.018439,5.17463415 C104.901756,5.40292797 104.731806,5.56653609 104.508585,5.66546341 C104.285365,5.76439074 104.049465,5.81385366 103.800878,5.81385366 C103.491413,5.81385366 103.221269,5.75931762 102.990439,5.6502439 C102.759609,5.54117019 102.568098,5.39278143 102.415902,5.20507317 C102.263707,5.01736492 102.149561,4.79541592 102.073463,4.53921951 C101.997365,4.28302311 101.959317,4.00780635 101.959317,3.71356098 C101.959317,3.35843725 102.007512,3.05151349 102.103902,2.79278049 C102.200293,2.53404749 102.328389,2.32097645 102.488195,2.15356098 C102.648001,1.9861455 102.830633,1.86312234 103.036098,1.7844878 C103.241562,1.70585327 103.450828,1.66653659 103.663902,1.66653659 C103.785659,1.66653659 103.909951,1.67795111 104.03678,1.70078049 C104.16361,1.72360987 104.285365,1.76038999 104.402049,1.81112195 C104.518732,1.86185391 104.626536,1.92653619 104.725463,2.00517073 C104.824391,2.08380527 104.906829,2.17638971 104.97278,2.28292683 L104.988,2.28292683 L104.988,0.27395122 L105.855512,0.27395122 L105.855512,5.70731707 Z M102.826829,3.78204878 C102.826829,3.94946425 102.84839,4.11434065 102.891512,4.27668293 C102.934634,4.4390252 103.000585,4.58360912 103.089366,4.71043902 C103.178147,4.83726893 103.291024,4.93873133 103.428,5.01482927 C103.564976,5.09092721 103.727316,5.12897561 103.915024,5.12897561 C104.107806,5.12897561 104.273951,5.08839065 104.413463,5.00721951 C104.552976,4.92604837 104.667122,4.81951285 104.755902,4.68760976 C104.844683,4.55570666 104.910634,4.4073179 104.953756,4.24243902 C104.996878,4.07756015 105.018439,3.90887891 105.018439,3.73639024 C105.018439,3.30009538 104.920781,2.96019634 104.725463,2.71668293 C104.530145,2.47316951 104.265075,2.35141463 103.930244,2.35141463 C103.727316,2.35141463 103.556098,2.39326787 103.416585,2.47697561 C103.277072,2.56068335 103.162927,2.66975543 103.074146,2.80419512 C102.985365,2.93863482 102.921951,3.09082842 102.883902,3.26078049 C102.845853,3.43073256 102.826829,3.60448692 102.826829,3.78204878 Z M106.821951,0.27395122 L107.689463,0.27395122 L107.689463,1.09580488 L106.821951,1.09580488 L106.821951,0.27395122 Z M106.821951,1.77307317 L107.689463,1.77307317 L107.689463,5.70731707 L106.821951,5.70731707 L106.821951,1.77307317 Z M110.436585,5.81385366 C110.122047,5.81385366 109.841757,5.76185418 109.595707,5.65785366 C109.349657,5.55385314 109.141659,5.4105375 108.971707,5.22790244 C108.801755,5.04526738 108.672391,4.82712322 108.58361,4.57346341 C108.494829,4.31980361 108.450439,4.04078201 108.450439,3.73639024 C108.450439,3.43707167 108.494829,3.16058663 108.58361,2.90692683 C108.672391,2.65326702 108.801755,2.43512286 108.971707,2.2524878 C109.141659,2.06985275 109.349657,1.92653711 109.595707,1.82253659 C109.841757,1.71853607 110.122047,1.66653659 110.436585,1.66653659 C110.751124,1.66653659 111.031413,1.71853607 111.277463,1.82253659 C111.523513,1.92653711 111.731511,2.06985275 111.901463,2.2524878 C112.071415,2.43512286 112.20078,2.65326702 112.289561,2.90692683 C112.378342,3.16058663 112.422732,3.43707167 112.422732,3.73639024 C112.422732,4.04078201 112.378342,4.31980361 112.289561,4.57346341 C112.20078,4.82712322 112.071415,5.04526738 111.901463,5.22790244 C111.731511,5.4105375 111.523513,5.55385314 111.277463,5.65785366 C111.031413,5.76185418 110.751124,5.81385366 110.436585,5.81385366 Z M110.436585,5.12897561 C110.629367,5.12897561 110.79678,5.08839065 110.938829,5.00721951 C111.080879,4.92604837 111.197561,4.81951285 111.288878,4.68760976 C111.380196,4.55570666 111.447414,4.4073179 111.490537,4.24243902 C111.533659,4.07756015 111.55522,3.90887891 111.55522,3.73639024 C111.55522,3.56897477 111.533659,3.40156181 111.490537,3.23414634 C111.447414,3.06673087 111.380196,2.91834211 111.288878,2.78897561 C111.197561,2.65960911 111.080879,2.55434187 110.938829,2.47317073 C110.79678,2.39199959 110.629367,2.35141463 110.436585,2.35141463 C110.243804,2.35141463 110.076391,2.39199959 109.934341,2.47317073 C109.792292,2.55434187 109.67561,2.65960911 109.584293,2.78897561 C109.492975,2.91834211 109.425756,3.06673087 109.382634,3.23414634 C109.339512,3.40156181 109.317951,3.56897477 109.317951,3.73639024 C109.317951,3.90887891 109.339512,4.07756015 109.382634,4.24243902 C109.425756,4.4073179 109.492975,4.55570666 109.584293,4.68760976 C109.67561,4.81951285 109.792292,4.92604837 109.934341,5.00721951 C110.076391,5.08839065 110.243804,5.12897561 110.436585,5.12897561 Z M113.800098,4.44409756 C113.825464,4.69775737 113.921853,4.87531657 114.089268,4.97678049 C114.256684,5.07824441 114.457072,5.12897561 114.690439,5.12897561 C114.77161,5.12897561 114.864195,5.12263421 114.968195,5.10995122 C115.072196,5.09726823 115.169853,5.07317091 115.261171,5.03765854 C115.352488,5.00214616 115.427317,4.95014668 115.485659,4.88165854 C115.544,4.81317039 115.570634,4.72312251 115.565561,4.6115122 C115.560488,4.49990188 115.519903,4.40858572 115.443805,4.33756098 C115.367707,4.26653623 115.270049,4.20946363 115.150829,4.16634146 C115.031609,4.1232193 114.895903,4.08643918 114.743707,4.056 C114.591511,4.02556082 114.436781,3.99258554 114.279512,3.95707317 C114.11717,3.9215608 113.961171,3.87843928 113.811512,3.82770732 C113.661853,3.77697536 113.527415,3.70848824 113.408195,3.6222439 C113.288975,3.53599957 113.193854,3.42565921 113.122829,3.29121951 C113.051805,3.15677982 113.016293,2.99063514 113.016293,2.79278049 C113.016293,2.57970625 113.068292,2.40087877 113.172293,2.25629268 C113.276293,2.11170659 113.408194,1.99502483 113.568,1.9062439 C113.727806,1.81746297 113.905365,1.75531725 114.100683,1.71980488 C114.296001,1.68429251 114.482438,1.66653659 114.66,1.66653659 C114.862928,1.66653659 115.056975,1.68809735 115.242146,1.73121951 C115.427318,1.77434168 115.594731,1.84409708 115.74439,1.9404878 C115.89405,2.03687853 116.018341,2.16243825 116.117268,2.31717073 C116.216196,2.47190321 116.278341,2.65834037 116.303707,2.8764878 L115.398146,2.8764878 C115.357561,2.66848676 115.26244,2.52897596 115.11278,2.45795122 C114.963121,2.38692647 114.791903,2.35141463 114.599122,2.35141463 C114.538244,2.35141463 114.465952,2.35648775 114.382244,2.36663415 C114.298536,2.37678054 114.219903,2.39580474 114.146341,2.42370732 C114.07278,2.4516099 114.010634,2.49219486 113.959902,2.54546341 C113.90917,2.59873197 113.883805,2.66848737 113.883805,2.75473171 C113.883805,2.86126883 113.920585,2.94751187 113.994146,3.01346341 C114.067708,3.07941496 114.164097,3.133951 114.283317,3.17707317 C114.402537,3.22019534 114.538243,3.25697546 114.690439,3.28741463 C114.842635,3.31785381 114.999902,3.35082909 115.162244,3.38634146 C115.319513,3.42185384 115.474243,3.46497536 115.626439,3.51570732 C115.778635,3.56643928 115.914341,3.6349264 116.033561,3.72117073 C116.152781,3.80741507 116.24917,3.91648715 116.322732,4.04839024 C116.396293,4.18029334 116.433073,4.34263318 116.433073,4.53541463 C116.433073,4.76878165 116.379805,4.96663333 116.273268,5.12897561 C116.166731,5.29131788 116.028489,5.423219 115.858537,5.52468293 C115.688585,5.62614685 115.499611,5.69970709 115.29161,5.74536585 C115.083609,5.79102462 114.878147,5.81385366 114.67522,5.81385366 C114.426633,5.81385366 114.197074,5.7859515 113.986537,5.73014634 C113.775999,5.67434118 113.593367,5.58936642 113.438634,5.47521951 C113.283902,5.3610726 113.162147,5.21902524 113.073366,5.04907317 C112.984585,4.8791211 112.937659,4.67746458 112.932585,4.44409756 L113.800098,4.44409756 Z" id="medios" fill="#B5B7C2"></path>
        </g>
    </g>
</svg>