<?xml version="1.0" encoding="UTF-8"?>
<svg width="204px" height="33px" viewBox="0 0 204 33" version="1.1" xmlns="http://www.w3.org/2000/svg" xmlns:xlink="http://www.w3.org/1999/xlink">
    <!-- Generator: Sketch 52 (66869) - http://www.bohemiancoding.com/sketch -->
    <title>met</title>
    <desc>Created with Sketch.</desc>
    <g id="met" stroke="none" stroke-width="1" fill="none" fill-rule="evenodd">
        <g id="Mastercard" transform="translate(104.000000, 1.000000)">
            <path d="M0,3.0005775 C0,1.34340431 1.3396802,0 2.99117144,0 L42.5970638,0 C44.2490422,0 45.5882353,1.35196465 45.5882353,3.0005775 L45.5882353,27.9994225 C45.5882353,29.6565957 44.2485551,31 42.5970638,31 L2.99117144,31 C1.33919307,31 0,29.6480353 0,27.9994225 L0,3.0005775 Z" id="Rectangle-Copy-4" fill="#262626"></path>
            <g id="mc_symbol" transform="translate(9.029412, 7.205882)">
                <g id="Group" opacity="0" fill="#FFFFFF">
                    <rect id="Rectangle" x="0" y="0" width="27.2265374" height="17.3036173"></rect>
                </g>
                <rect id="Rectangle" fill="#FF5F00" x="10.0231952" y="3.01469236" width="7.18221925" height="11.2722414"></rect>
                <path d="M10.7629679,8.65180865 C10.7611646,6.45251719 11.8118307,4.37456526 13.6122326,3.01668357 C10.553633,0.706889959 6.16136134,1.04333137 3.52218807,3.78956583 C0.88301479,6.53580028 0.88301479,10.7698082 3.52218807,13.5160427 C6.16136134,16.2622771 10.553633,16.5987186 13.6122326,14.2889249 C11.8112577,12.930612 10.7605274,10.8517989 10.7629679,8.65180865 Z" id="Path" fill="#EB001B"></path>
                <path d="M25.0516234,13.6320267 L25.0516234,12.9554175 L25.2144385,12.9554175 L25.2144385,12.8154293 L24.8269385,12.8154293 L24.8269385,12.9554175 L24.9799847,12.9554175 L24.9799847,13.6320267 L25.0516234,13.6320267 Z M25.8038293,13.6320267 L25.8038293,12.8154293 L25.6866024,12.8154293 L25.5498377,13.3987132 L25.413073,12.8154293 L25.2958461,12.8154293 L25.2958461,13.6320267 L25.3805099,13.6320267 L25.3805099,13.0137458 L25.5075057,13.5445341 L25.5954259,13.5445341 L25.7224217,13.0137458 L25.7224217,13.6320267 L25.8038293,13.6320267 Z" id="Shape" fill="#F79E1B" fill-rule="nonzero"></path>
                <path d="M25.682754,8.65180865 C25.6826874,11.3963695 24.0518185,13.899972 21.4827835,15.0993264 C18.9137485,16.2986808 15.8575754,15.9832248 13.6122326,14.2869337 C15.411849,12.9278992 16.4625942,10.8502236 16.4625942,8.65081305 C16.4625942,6.45140252 15.411849,4.37372686 13.6122326,3.01469236 C15.8575754,1.31840127 18.9137485,1.00294525 21.4827835,2.2022997 C24.0518185,3.40165414 25.6826874,5.90525658 25.682754,8.64981744 L25.682754,8.65180865 Z" id="Path" fill="#F79E1B"></path>
            </g>
        </g>
        <g id="Visa" transform="translate(52.000000, 1.000000)">
            <path d="M0,3.0005775 C0,1.34340431 1.34326376,0 3.00478441,0 L41.4734765,0 C43.1329731,0 44.4782609,1.35196465 44.4782609,3.0005775 L44.4782609,27.9994225 C44.4782609,29.6565957 43.1349971,31 41.4734765,31 L3.00478441,31 C1.34528781,31 0,29.6480353 0,27.9994225 L0,3.0005775 Z" id="Rectangle-Copy-4" fill="#0742A6"></path>
            <g id="Visa_Inc._logo" transform="translate(7.413043, 10.782609)" fill="#FFFFFF">
                <polygon id="polygon9" points="12.8194057 9.26225536 10.4339594 9.26225536 11.9259884 0.277568944 14.3113043 0.277568944"></polygon>
                <path d="M21.4668605,0.49721889 C20.9963456,0.315426482 20.2500702,0.114705305 19.3273029,0.114705305 C16.971598,0.114705305 15.31273,1.33808818 15.3025552,3.08715727 C15.2829885,4.37761659 16.4902563,5.09436904 17.393196,5.52464919 C18.3160938,5.9643302 18.6298139,6.25131066 18.6298139,6.64322512 C18.6204218,7.24513457 17.8840603,7.52258713 17.1972677,7.52258713 C16.2448894,7.52258713 15.7345888,7.37954154 14.9590938,7.04466747 L14.6449824,6.90111372 L14.3111738,8.91798043 C14.8706521,9.16621409 15.9014279,9.38649923 16.971598,9.39615417 C19.4745752,9.39615417 21.1040931,8.19170007 21.123399,6.32778797 C21.1329215,5.30499924 20.4954371,4.52129738 19.1210694,3.88089519 C18.2867437,3.46979789 17.775791,3.19259941 17.775791,2.77197421 C17.7855743,2.38958766 18.207955,1.99792729 19.1497673,1.99792729 C19.9252624,1.97874444 20.4950458,2.16028277 20.9266881,2.34194814 L21.142444,2.43735422 L21.4668605,0.49721889 Z" id="path11"></path>
                <path d="M24.6373243,6.07930024 C24.8337744,5.56314192 25.5897027,3.56545805 25.5897027,3.56545805 C25.5797889,3.5846409 25.7857614,3.03977183 25.9035532,2.70527888 L26.0702618,3.47945284 C26.0702618,3.47945284 26.5219925,5.63009132 26.6200871,6.07930024 C26.2472755,6.07930024 25.1084914,6.07930024 24.6373243,6.07930024 Z M27.5818575,0.277568944 L25.7367141,0.277568944 C25.1677134,0.277568944 24.7354189,0.439924428 24.4899215,1.02303215 L20.9466461,9.26212832 L23.4496233,9.26212832 C23.4496233,9.26212832 23.8616988,8.15320734 23.9502709,7.91437455 C24.2248575,7.91437455 26.6597424,7.91437455 27.0129872,7.91437455 C27.0814708,8.22981169 27.297618,9.26212832 27.297618,9.26212832 L29.5063115,9.26212832 L27.5818575,0.277568944 Z" id="path13" fill-rule="nonzero"></path>
                <path d="M8.4415437,0.277568944 L6.10540559,6.40426528 L5.85012488,5.16169957 C5.41822174,3.72794057 4.06368167,2.17019179 2.55208592,1.39563672 L4.69190442,9.25272746 L7.21444832,9.25272746 L10.9639571,0.277568944 L8.4415437,0.277568944 Z" id="path15"></path>
                <path d="M3.93610654,0.277568944 L0.0981560516,0.277568944 L0.0588921301,0.459107274 C3.05273353,1.20469752 5.03549634,3.00191429 5.85012488,5.16208068 L5.01579916,1.03281413 C4.87844066,0.458980236 4.45632089,0.296497713 3.93610654,0.277568944 Z" id="path17"></path>
            </g>
        </g>
        <g id="American-Express" transform="translate(157.000000, 1.000000)">
            <path d="M0,3.0005775 C0,1.34340431 1.34326376,0 3.00478441,0 L41.4734765,0 C43.1329731,0 44.4782609,1.35196465 44.4782609,3.0005775 L44.4782609,27.9994225 C44.4782609,29.6565957 43.1349971,31 41.4734765,31 L3.00478441,31 C1.34528781,31 0,29.6480353 0,27.9994225 L0,3.0005775 Z" id="Rectangle-Copy-4" fill="#016FD0"></path>
            <g id="American_Express_logo_(2018)" transform="translate(0.000000, 7.413043)">
                <path d="M8.63997542,16.032569 L8.63997542,9.1175081 L16.0006513,9.1175081 L16.7903721,10.1415645 L17.6062069,9.1175081 L44.3236434,9.1175081 L44.3236434,15.5556704 C44.3236434,15.5556704 43.6249352,16.0256544 42.8168469,16.032569 L28.0228509,16.032569 L27.1324716,14.94251 L27.1324716,16.032569 L24.2147664,16.032569 L24.2147664,14.1718051 C24.2147664,14.1718051 23.8162035,14.4315459 22.9545375,14.4315459 L21.9614218,14.4315459 L21.9614218,16.032569 L17.54377,16.032569 L16.7551775,14.98655 L15.9544769,16.032569 L8.63997542,16.032569 Z" id="path3082" fill="#FFFFFF"></path>
                <path d="M0.0443894819,3.90566663 L1.70425093,0.0563989602 L4.57480797,0.0563989602 L5.5167985,2.21260278 L5.5167985,0.0563989602 L9.08516552,0.0563989602 L9.64593296,1.61483916 L10.189578,0.0563989602 L26.2078466,0.0563989602 L26.2078466,0.839877791 C26.2078466,0.839877791 27.0499129,0.0563989602 28.4337954,0.0563989602 L33.6311374,0.0744671153 L34.5568663,2.20245159 L34.5568663,0.0563989602 L37.5430617,0.0563989602 L38.3649507,1.27875469 L38.3649507,0.0563989602 L41.3785425,0.0563989602 L41.3785425,6.97145547 L38.3649507,6.97145547 L37.5773073,5.74513905 L37.5773073,6.97145547 L33.1899242,6.97145547 L32.7487109,5.88139643 L31.5692345,5.88139643 L31.1352025,6.97145547 L28.1598324,6.97145547 C26.969045,6.97145547 26.2078466,6.20397393 26.2078466,6.20397393 L26.2078466,6.97145547 L21.7217044,6.97145547 L20.8313247,5.88139643 L20.8313247,6.97145547 L4.14955229,6.97145547 L3.70864311,5.88139643 L2.53292776,5.88139643 L2.09513472,6.97145547 L0.0443894819,6.97145547 L0.0443894819,3.90566663 Z" id="path3080" fill="#FFFFFF"></path>
                <path d="M2.2917415,0.908878539 L0.0529508369,6.08665456 L1.51051907,6.08665456 L1.92360377,5.04982858 L4.32505987,5.04982858 L4.73600438,6.08665456 L6.22567766,6.08665456 L3.98902706,0.908878539 L2.2917415,0.908878539 Z M3.12005101,2.1139035 L3.852046,3.92570409 L2.38591601,3.92570409 L3.12005101,2.1139035 Z" id="path3046" fill="#016FD0" fill-rule="nonzero"></path>
                <polygon id="path3048" fill="#016FD0" points="6.37978152 6.08578471 6.37978152 0.908004273 8.4510671 0.915656305 9.65579719 4.2539599 10.831679 0.908004273 12.8864007 0.908004273 12.8864007 6.08578471 11.5850768 6.08578471 11.5850768 2.27057807 10.2056462 6.08578471 9.06438237 6.08578471 7.68110534 2.27057807 7.68110534 6.08578471"></polygon>
                <polygon id="path3050" fill="#016FD0" points="13.77678 6.08578471 13.77678 0.908004273 18.0232052 0.908004273 18.0232052 2.06619421 15.091802 2.06619421 15.091802 2.95186497 17.9547145 2.95186497 17.9547145 4.04192401 15.091802 4.04192401 15.091802 4.96166022 18.0232052 4.96166022 18.0232052 6.08578471"></polygon>
                <path d="M18.776603,0.908878539 L18.776603,6.08665456 L20.0779269,6.08665456 L20.0779269,4.24718214 L20.6258524,4.24718214 L22.1861569,6.08665456 L23.7764261,6.08665456 L22.0641578,4.17905566 C22.7668832,4.12006922 23.4917612,3.52011993 23.4917612,2.58867828 C23.4917612,1.49909169 22.6320137,0.908878539 21.6724765,0.908878539 L18.776603,0.908878539 Z M20.0779269,2.06706406 L21.5654597,2.06706406 C21.9222983,2.06706406 22.1818764,2.34471844 22.1818764,2.61209358 C22.1818764,2.95608176 21.8455493,3.1571231 21.5847229,3.1571231 L20.0779269,3.1571231 L20.0779269,2.06706406 Z" id="path3052" fill="#016FD0" fill-rule="nonzero"></path>
                <polygon id="path3054" fill="#016FD0" points="25.3517129 6.08578471 24.0229928 6.08578471 24.0229928 0.908004273 25.3517129 0.908004273"></polygon>
                <path d="M28.5022861,6.08578471 L28.2154813,6.08578471 C26.8277897,6.08578471 25.985252,4.99828665 25.985252,3.51818595 C25.985252,2.00152064 26.8183565,0.908004273 28.5707769,0.908004273 L30.0090822,0.908004273 L30.0090822,2.13432069 L28.5181918,2.13432069 C27.8068059,2.13432069 27.3036982,2.68655186 27.3036982,3.53095994 C27.3036982,4.53369839 27.8789801,4.95484713 28.7077584,4.95484713 L29.0502117,4.95484713 L28.5022861,6.08578471 Z" id="path3056" fill="#016FD0"></path>
                <path d="M31.3339493,0.908878539 L29.0951592,6.08665456 L30.5527273,6.08665456 L30.9658118,5.04982858 L33.3672681,5.04982858 L33.7782122,6.08665456 L35.2678855,6.08665456 L33.0312353,0.908878539 L31.3339493,0.908878539 Z M32.1622593,2.1139035 L32.8942538,3.92570409 L31.4281243,3.92570409 L32.1622593,2.1139035 Z" id="path3058" fill="#016FD0" fill-rule="nonzero"></path>
                <polygon id="path3060" fill="#016FD0" points="35.4198493 6.08578471 35.4198493 0.908004273 37.0743283 0.908004273 39.1868393 4.16115087 39.1868393 0.908004273 40.4881631 0.908004273 40.4881631 6.08578471 38.8871926 6.08578471 36.7211732 2.74748111 36.7211732 6.08578471"></polygon>
                <polygon id="path3062" fill="#016FD0" points="9.53035518 15.1468983 9.53035518 9.96911783 13.77678 9.96911783 13.77678 11.1273078 10.8453772 11.1273078 10.8453772 12.0129785 13.7082892 12.0129785 13.7082892 13.1030376 10.8453772 13.1030376 10.8453772 14.0227738 13.77678 14.0227738 13.77678 15.1468983"></polygon>
                <polygon id="path3064" fill="#016FD0" points="30.3378374 15.1468983 30.3378374 9.96911783 34.5842626 9.96911783 34.5842626 11.1273078 31.6528594 11.1273078 31.6528594 12.0129785 34.5020737 12.0129785 34.5020737 13.1030376 31.6528594 13.1030376 31.6528594 14.0227738 34.5842626 14.0227738 34.5842626 15.1468983"></polygon>
                <polygon id="path3066" fill="#016FD0" points="13.9415857 15.1468983 16.0091497 12.5899408 13.8923582 9.96911783 15.5318549 9.96911783 16.7925122 11.5892997 18.0574504 9.96911783 19.6327372 9.96911783 17.54377 12.558008 19.6151399 15.1468983 17.9759024 15.1468983 16.7518461 13.5522555 15.5575391 15.1468983"></polygon>
                <path d="M19.7697187,9.96999209 L19.7697187,15.1477681 L21.1052877,15.1477681 L21.1052877,13.5126796 L22.4751023,13.5126796 C23.6341591,13.5126796 24.5127011,12.9010292 24.5127011,11.7115291 C24.5127011,10.7261523 23.823656,9.96999209 22.6441889,9.96999209 L19.7697187,9.96999209 Z M21.1052877,11.1409516 L22.5478735,11.1409516 C22.9223192,11.1409516 23.189974,11.3692365 23.189974,11.7370771 C23.189974,12.0826416 22.9236704,12.3332026 22.543593,12.3332026 L21.1052877,12.3332026 L21.1052877,11.1409516 Z" id="path3068" fill="#016FD0" fill-rule="nonzero"></path>
                <path d="M25.0777499,9.96911783 L25.0777499,15.1468983 L26.3790737,15.1468983 L26.3790737,13.3074214 L26.9269993,13.3074214 L28.4873038,15.1468983 L30.077573,15.1468983 L28.3653046,13.2392949 C29.0680296,13.1802997 29.7929081,12.5803592 29.7929081,11.6489132 C29.7929081,10.559331 28.9331606,9.96911783 27.9736234,9.96911783 L25.0777499,9.96911783 Z M26.3790737,11.1273078 L27.8666066,11.1273078 C28.2234452,11.1273078 28.4830229,11.4049577 28.4830229,11.6723329 C28.4830229,12.0163255 28.1466958,12.2173624 27.8858694,12.2173624 L26.3790737,12.2173624 L26.3790737,11.1273078 Z" id="path3072" fill="#016FD0" fill-rule="nonzero"></path>
                <path d="M35.1869808,15.1468983 L35.1869808,14.0227738 L37.791341,14.0227738 C38.1766927,14.0227738 38.3435475,13.8156347 38.3435475,13.5884537 C38.3435475,13.370788 38.1772187,13.1507292 37.791341,13.1507292 L36.6144604,13.1507292 C35.5914733,13.1507292 35.0217471,12.5307557 35.0217471,11.5999499 C35.0217471,10.7697376 35.543478,9.96911783 37.0636269,9.96911783 L39.5977838,9.96911783 L39.0498578,11.1341164 L36.8581547,11.1341164 C36.4391974,11.1341164 36.3102287,11.3527976 36.3102287,11.5616279 C36.3102287,11.7762733 36.4696029,12.0129785 36.7896639,12.0129785 L38.022497,12.0129785 C39.1628757,12.0129785 39.6577132,12.6564203 39.6577132,13.4990357 C39.6577132,14.4049294 39.1063017,15.1468983 37.9604165,15.1468983 L35.1869808,15.1468983 Z" id="path3074" fill="#016FD0"></path>
                <path d="M39.9631394,15.1468983 L39.9631394,14.0227738 L42.5674979,14.0227738 C42.9528518,14.0227738 43.1197075,13.8156347 43.1197075,13.5884537 C43.1197075,13.370788 42.9533756,13.1507292 42.5674979,13.1507292 L41.3906191,13.1507292 C40.3676319,13.1507292 39.7979054,12.5307557 39.7979054,11.5999499 C39.7979054,10.7697376 40.3196363,9.96911783 41.8397851,9.96911783 L44.3739411,9.96911783 L43.8260151,11.1341164 L41.6343129,11.1341164 C41.2153561,11.1341164 41.0863873,11.3527976 41.0863873,11.5616279 C41.0863873,11.7762733 41.2457611,12.0129785 41.5658221,12.0129785 L42.7986561,12.0129785 C43.9390352,12.0129785 44.4338714,12.6564203 44.4338714,13.4990357 C44.4338714,14.4049294 43.8824608,15.1468983 42.736573,15.1468983 L39.9631394,15.1468983 Z" id="path3076" fill="#016FD0"></path>
            </g>
        </g>
        <g id="Maestro" transform="translate(2.000000, 1.000000)">
            <path d="M0,3.0005775 C0,1.34340431 1.34326376,0 3.00478441,0 L41.4734765,0 C43.1329731,0 44.4782609,1.35196465 44.4782609,3.0005775 L44.4782609,27.9994225 C44.4782609,29.6565957 43.1349971,31 41.4734765,31 L3.00478441,31 C1.34528781,31 0,29.6480353 0,27.9994225 L0,3.0005775 Z" id="Rectangle-Copy-17" fill="#262626"></path>
            <g id="_Group_-Copy" transform="translate(8.760870, 7.413043)">
                <rect id="Rectangle" fill="#7673C0" x="9.92822402" y="2.00327576" width="7.19602063" height="13.0651429"></rect>
                <path d="M10.3873987,8.53469327 C10.3854106,5.98559444 11.5436984,3.57713475 13.5285188,2.00327576 C10.1566212,-0.673901093 5.3144411,-0.283947133 2.40493246,2.89908848 C-0.504576178,6.08212408 -0.504576178,10.9895704 2.40493246,14.172606 C5.3144411,17.3556416 10.1566212,17.7455956 13.5285188,15.0684187 C11.5430667,13.4940599 10.3847082,11.084602 10.3873987,8.53469327 Z" id="_Path_" fill="#EB001B"></path>
                <path d="M26.0495947,14.0002032 L26.0495947,13.4702105 L26.1569639,13.4702105 L26.1569639,13.3605569 L25.8851142,13.3605569 L25.8851142,13.4702105 L25.9924834,13.4702105 L25.9924834,14.0002032 L26.0495947,14.0002032 Z M26.5773029,14.0002032 L26.5773029,13.3605569 L26.4950626,13.3605569 L26.3991157,13.8174471 L26.3031688,13.3605569 L26.2186441,13.3605569 L26.2186441,14.0002032 L26.2780398,14.0002032 L26.2780398,13.5204684 L26.3671334,13.9362385 L26.4288136,13.9362385 L26.5179071,13.5204684 L26.5179071,14.0047721 L26.5773029,14.0002032 Z" id="Shape" fill="#00A1DF" fill-rule="nonzero"></path>
                <path d="M26.8331614,8.53469327 C26.833088,11.7157891 25.0351662,14.617601 22.2029802,16.0077182 C19.3707943,17.3978355 16.0015717,17.0322047 13.5262343,15.0661108 C15.5101887,13.4909156 16.6685637,11.0827761 16.6685637,8.53353931 C16.6685637,5.98430247 15.5101887,3.57616299 13.5262343,2.00096784 C16.0018957,0.03461638 19.3716422,-0.330832156 22.2040078,1.05986451 C25.0363734,2.45056118 26.8339628,5.35318107 26.8331614,8.53469327 Z" id="Path" fill="#00A1DF"></path>
            </g>
        </g>
    </g>
</svg>