<?xml version="1.0" encoding="UTF-8"?>
<svg width="120px" height="48px" viewBox="0 0 120 48" version="1.1" xmlns="http://www.w3.org/2000/svg" xmlns:xlink="http://www.w3.org/1999/xlink">
    <!-- Generator: Sketch 52 (66869) - http://www.bohemiancoding.com/sketch -->
    <title>mil</title>
    <desc>Created with Sketch.</desc>
    <g id="mil" stroke="none" stroke-width="1" fill="none" fill-rule="evenodd">
        <g id="Milenio-2018" transform="translate(0.000000, 12.000000)" fill="#B5B7C2">
            <path d="M3.10306584,19.132405 C2.9692472,20.0563826 2.7525913,21.1141714 1.99111304,21.2766634 C1.58647453,21.3563106 1.39530932,21.3563106 1.17865342,21.3563106 C0.90783354,21.3563106 0.745341615,21.4104969 0.745341615,21.5474832 C0.745341615,21.7928124 0.961990062,21.8469764 1.23281739,21.8469764 C2.09944099,21.8469764 3.40255901,21.7641391 3.91870807,21.7641391 C4.40618385,21.7641391 5.6264646,21.8469764 6.76390807,21.8469764 C7.17173665,21.8469764 7.41705839,21.7927901 7.41705839,21.5474832 C7.41705839,21.410482 7.22589317,21.3563106 7.00924472,21.3563106 C6.73842484,21.3563106 6.35927702,21.3308199 5.86861118,21.2224994 C5.40981615,21.1141714 5.05615155,20.8688348 5.05615155,20.3526932 C5.05615155,19.9193739 5.0848472,19.5689068 5.13898882,19.078241 L6.54725963,8.28687205 L6.65558012,8.28687205 C7.60504099,10.3196124 9.23315031,13.7351255 9.4784795,14.305446 C9.80346335,15.0669242 11.9445317,19.2152497 12.5944994,20.4610211 C13.0310012,21.2766634 13.3018211,21.8183031 13.5439602,21.8183031 C13.7892969,21.8183031 13.9262981,21.5729739 14.5475925,20.2985292 L20.4610211,7.98737888 L20.5693491,7.98737888 L22.1974509,19.9193739 C22.3057863,20.6808596 22.2229416,21.0313267 22.0604497,21.0854981 C21.8724671,21.1683354 21.7609491,21.2479901 21.7609491,21.3849913 C21.7609491,21.5474832 21.9266311,21.6271379 22.5479255,21.6812944 C23.6343876,21.7641391 27.3748919,21.8469764 28.0535329,21.8469764 C28.4326807,21.8469764 28.7608472,21.7641391 28.7608472,21.5474832 C28.7608472,21.3849913 28.569682,21.3563106 28.3243528,21.3563106 C27.9738783,21.3563106 27.4290484,21.3308199 26.6452621,21.0854981 C25.8296273,20.8433516 25.5588,20.0563826 25.3166609,18.345436 L22.8474186,1.58647453 C22.7645814,1.01615404 22.6020894,0.745341615 22.3599429,0.745341615 C22.1146137,0.745341615 21.9808025,0.961990062 21.7609491,1.39530932 L14.3850932,16.8830087 L6.98056398,1.58647453 C6.63008944,0.882342857 6.46759752,0.745341615 6.25094907,0.745341615 C6.03429317,0.745341615 5.86861118,0.990663354 5.78895652,1.4526559 L3.10306584,19.132405 Z" id="path6763"></path>
            <path d="M31.5801019,13.9804621 C31.5801019,16.6121888 31.5801019,18.7532571 31.4431006,19.8938907 C31.363446,20.6808596 31.2009466,21.1396621 30.6593143,21.2479901 C30.4139776,21.3021764 30.0889938,21.3563106 29.6811727,21.3563106 C29.3561888,21.3563106 29.2478683,21.4391553 29.2478683,21.5729739 C29.2478683,21.7641391 29.4390335,21.8469764 29.7895006,21.8469764 C30.8759702,21.8469764 32.5837267,21.7641391 33.2082037,21.7641391 C33.9410087,21.7641391 35.6487652,21.8469764 37.4393665,21.8469764 C37.735677,21.8469764 37.9523329,21.7641391 37.9523329,21.5729739 C37.9523329,21.4391553 37.8185143,21.3563106 37.5190137,21.3563106 C37.1111925,21.3563106 36.5153963,21.3021242 36.136241,21.2479901 C35.3237814,21.1396621 35.1326161,20.6521863 35.0529689,19.9193739 C34.9414509,18.7532571 34.9414509,16.6121888 34.9414509,13.9804621 L34.9414509,9.20765217 C34.9414509,5.08482484 34.9414509,4.32652919 34.9956373,3.45672298 C35.052954,2.50726211 35.2696472,2.04845963 35.9992696,1.91145093 C36.327436,1.8572646 36.5440919,1.83180373 36.8149118,1.83180373 C37.0857317,1.83180373 37.2482236,1.77761739 37.2482236,1.56098385 C37.2482236,1.39530932 37.0315677,1.34113789 36.6779106,1.34113789 C35.648795,1.34113789 34.049359,1.42398261 33.370718,1.42398261 C32.5837491,1.42398261 30.8759925,1.34113789 29.8436944,1.34113789 C29.4103826,1.34113789 29.1937267,1.39532422 29.1937267,1.56098385 C29.1937267,1.7776323 29.3562186,1.83180373 29.6270311,1.83180373 C29.9520149,1.83180373 30.3056795,1.85729441 30.6051801,1.94012422 C31.2009764,2.07394286 31.4717963,2.5359354 31.5259602,3.45672298 C31.5801466,4.32652919 31.5801466,5.08482484 31.5801466,9.20765217 L31.5801019,13.9804621 Z" id="path6759"></path>
            <path d="M44.2452447,9.20765217 C44.2452447,5.08482484 44.2452447,4.32652919 44.2994311,3.45672298 C44.3536174,2.50726211 44.5702509,2.04845963 45.3030634,1.91145093 C45.6280472,1.8572646 46.0613516,1.83180373 46.3608447,1.83180373 C46.6858286,1.83180373 46.8483205,1.77761739 46.8483205,1.58647453 C46.8483205,1.39530932 46.6603379,1.34113789 46.2780149,1.34113789 C45.2202186,1.34113789 43.2416422,1.42398261 42.5916745,1.42398261 C41.8588696,1.42398261 40.1511056,1.34113789 38.8766609,1.34113789 C38.4688398,1.34113789 38.2776745,1.39532422 38.2776745,1.58647453 C38.2776745,1.7776323 38.4401665,1.83180373 38.7396596,1.83180373 C39.0933168,1.83180373 39.4183006,1.85729441 39.634964,1.91145093 C40.5302534,2.10261615 40.7469168,2.5359354 40.8010733,3.45672298 C40.8552596,4.32652919 40.8552596,5.08482484 40.8552596,9.20765217 L40.8552596,13.9804621 C40.8552596,16.4751876 40.8552596,18.6194385 40.7182584,19.756882 C40.6099304,20.5438509 40.4761118,21.1396621 39.934472,21.2479901 C39.6891429,21.3021764 39.364159,21.3563106 38.9563379,21.3563106 C38.631354,21.3563106 38.5230261,21.4391553 38.5230261,21.5729739 C38.5230261,21.7641391 38.7141913,21.8469764 39.0646584,21.8469764 C40.151128,21.8469764 41.8588845,21.7641391 42.4833615,21.7641391 C44.6786012,21.7641391 46.469195,21.9266311 50.3753739,21.9266311 C51.7836373,21.9266311 51.9206385,21.7928124 52.0831304,21.1938186 C52.2997863,20.4068497 52.4909516,18.3741093 52.4909516,18.0746161 C52.4909516,17.7496323 52.4622559,17.6158137 52.2742957,17.6158137 C52.0544571,17.6158137 52.0002857,17.7783056 51.9748025,18.0204522 C51.9206161,18.5366012 51.5956547,19.2948969 51.2706708,19.6485615 C50.5920224,20.381359 49.534241,20.4068497 48.0973043,20.4068497 C45.9817193,20.4068497 45.274405,20.2188745 44.8156025,19.8110534 C44.2452894,19.3235776 44.2452894,17.4533217 44.2452894,13.9804621 L44.2452447,9.20765217 Z" id="path6755"></path>
            <path d="M54.6865193,13.9804621 C54.6865193,16.4751876 54.6865193,18.6194385 54.549518,19.756882 C54.4411901,20.5438509 54.3073789,21.1396621 53.7657317,21.2479901 C53.5204025,21.3021764 53.1954186,21.3563106 52.7875975,21.3563106 C52.4626137,21.3563106 52.3542857,21.4391553 52.3542857,21.5729739 C52.3542857,21.7641391 52.5454509,21.8469764 52.8959255,21.8469764 C53.982395,21.8469764 55.6901516,21.7641391 56.3146286,21.7641391 C57.9140571,21.7641391 59.7301416,21.9266311 63.8274857,21.9266311 C64.8566012,21.9266311 65.1019304,21.9266311 65.289913,21.2224994 C65.4269143,20.6808596 65.6435702,18.8360944 65.6435702,18.2116174 C65.6435702,17.9407975 65.6435702,17.7241416 65.4269143,17.7241416 C65.2357491,17.7241416 65.1815851,17.8324696 65.1274211,18.1287801 C64.9394385,19.2407329 64.611272,19.8110534 63.9071404,20.1360373 C63.2030087,20.4610211 62.0623826,20.4610211 61.3582435,20.4610211 C58.5927056,20.4610211 58.1593863,20.0563826 58.1020398,18.1829441 C58.0765491,17.3991578 58.1020398,14.9012422 58.1020398,13.9804621 L58.1020398,11.8393863 C58.1020398,11.6768944 58.1307354,11.5653839 58.2677143,11.5653839 C58.917682,11.5653839 61.6035801,11.5940795 62.1165391,11.6482211 C63.1201714,11.7565491 63.4993193,12.1643702 63.6363205,12.7060174 C63.7159752,13.0596745 63.7159752,13.4101416 63.7446484,13.6809689 C63.7446484,13.8179702 63.7988348,13.9262907 63.9899776,13.9262907 C64.2321242,13.9262907 64.2321242,13.6267975 64.2321242,13.4101416 C64.2321242,13.2221665 64.3149615,12.1356969 64.3404522,11.5940571 C64.4487801,10.2112845 64.5571081,9.77797267 64.5571081,9.61548075 C64.5571081,9.45298882 64.4774534,9.39882484 64.3691255,9.39882484 C64.2321242,9.39882484 64.1237963,9.53263602 63.9358137,9.74929938 C63.6904845,10.0201193 63.2826559,10.1029565 62.6326882,10.1571205 C62.0082186,10.2113068 58.8890161,10.2113068 58.293205,10.2113068 C58.130713,10.2113068 58.1020398,10.1029714 58.1020398,9.91180621 L58.1020398,3.05210683 C58.1020398,2.86093416 58.1593565,2.7812795 58.293205,2.7812795 C58.8348447,2.7812795 61.6832348,2.83546584 62.1452199,2.88961491 C63.4993193,3.05210683 63.7701317,3.37709068 63.9613043,3.86455901 C64.0983056,4.18954286 64.1237963,4.6515354 64.1237963,4.84270062 C64.1237963,5.08483975 64.1779826,5.22184099 64.3691255,5.22184099 C64.5571081,5.22184099 64.611272,5.05934907 64.6399453,4.92234783 C64.6941317,4.59736398 64.7482733,3.40257391 64.773764,3.13175404 C64.8566012,1.88598261 64.9936025,1.56099876 64.9936025,1.36983354 C64.9936025,1.2328323 64.9649068,1.12449689 64.827928,1.12449689 C64.6941093,1.12449689 64.5316174,1.20734161 64.3946161,1.2328323 C64.1779602,1.28701863 63.7446484,1.34116025 63.2284994,1.39532422 C62.7155329,1.42401988 57.3182534,1.42401988 56.4484398,1.42401988 C55.6901516,1.42401988 53.982395,1.34118261 52.5454509,1.34118261 C52.1376298,1.34118261 51.9464646,1.39536894 51.9464646,1.5865118 C51.9464646,1.77767702 52.1089565,1.83184099 52.4084497,1.83184099 C52.7875975,1.83184099 53.2495826,1.85733168 53.4662385,1.91149565 C54.3615354,2.10266087 54.5781913,2.53597267 54.6323627,3.45676025 C54.6865491,4.32657391 54.6865491,5.08486957 54.6865491,9.20769689 L54.6865193,13.9804621 Z" id="path6751"></path>
            <path d="M70.0635578,6.76709814 L70.146395,6.76709814 C70.6338634,7.28323975 73.6447453,10.6732696 76.5982733,13.6013068 C79.4211727,16.3955329 82.8908557,19.9480547 84.5986107,21.5729739 C84.8981046,21.8724671 85.2230884,22.1719602 85.5225816,22.1719602 C85.7647304,22.1719602 85.8730561,21.9266311 85.8730561,21.3308273 L86.1725501,4.21820124 C86.2012234,2.69842733 86.417883,2.12810683 87.1761771,1.91145093 C87.501161,1.83180373 87.7178191,1.83180373 87.9886368,1.83180373 C88.3168062,1.83180373 88.4792981,1.74896646 88.4792981,1.58647453 C88.4792981,1.36981863 88.2084798,1.34113789 87.8548204,1.34113789 C86.5262094,1.34113789 85.493912,1.42398261 85.1976037,1.42398261 C84.6272862,1.42398261 83.3241652,1.34113789 81.9159034,1.34113789 C81.5080785,1.34113789 81.2085846,1.36983354 81.2085846,1.58647453 C81.2085846,1.74896646 81.3169111,1.83180373 81.6450798,1.83180373 C82.0242298,1.83180373 82.6741975,1.83180373 83.0820231,1.99429565 C83.7319908,2.26510807 83.9773185,2.7812646 84.0028092,4.43485714 L84.2736268,16.6121888 L84.1398104,16.6121888 C83.6778246,16.178877 80.0169764,12.2727056 78.1722186,10.4279404 C74.2118758,6.49627081 70.0922311,2.07394286 69.7640646,1.72347578 C69.3052621,1.23281739 69.0599255,0.882342857 68.7604323,0.882342857 C68.4896124,0.882342857 68.4099578,1.26148323 68.4099578,1.80312298 L68.1646286,17.8579602 C68.1391379,20.2188745 68.0308174,21.0058435 67.3234957,21.2224994 C66.9443478,21.3308273 66.456872,21.3563106 66.1032075,21.3563106 C65.832395,21.3563106 65.6699031,21.4104969 65.6699031,21.5729739 C65.6699031,21.8183031 65.9152323,21.8469764 66.2657068,21.8469764 C67.6771528,21.8469764 68.9515975,21.7641391 69.1969342,21.7641391 C69.7098932,21.7641391 70.7963627,21.8469764 72.5582832,21.8469764 C72.9374311,21.8469764 73.1827602,21.7927901 73.1827602,21.5729739 C73.1827602,21.410482 73.0202683,21.3563106 72.7207752,21.3563106 C72.2874634,21.3563106 71.7713143,21.3308199 71.3125118,21.1683354 C70.767682,20.9771702 70.4172149,20.2730385 70.3630509,18.1574534 L70.0635578,6.76709814 Z" id="path6747"></path>
            <path d="M91.407287,13.9804621 C91.407287,16.6121888 91.407287,18.7532571 91.270285,19.8938907 C91.1906288,20.6808596 91.0281429,21.1396621 90.4865009,21.2479901 C90.2411672,21.3021764 89.9161834,21.3563106 89.5083637,21.3563106 C89.1833799,21.3563106 89.0750534,21.4391553 89.0750534,21.5729739 C89.0750534,21.7641391 89.2662209,21.8469764 89.6166902,21.8469764 C90.7031583,21.8469764 92.410914,21.7641391 93.0353911,21.7641391 C93.7682005,21.7641391 95.4759563,21.8469764 97.266553,21.8469764 C97.5628614,21.8469764 97.7795195,21.7641391 97.7795195,21.5729739 C97.7795195,21.4391553 97.6457031,21.3563106 97.3462032,21.3563106 C96.9383843,21.3563106 96.3425821,21.3021242 95.963432,21.2479901 C95.1509724,21.1396621 94.959805,20.6521863 94.880154,19.9193739 C94.7686375,18.7532571 94.7686375,16.6121888 94.7686375,13.9804621 L94.7686375,9.20765217 C94.7686375,5.08482484 94.7686375,4.32652919 94.8228015,3.45672298 C94.8801406,2.50726211 95.096804,2.04845963 95.8264286,1.91145093 C96.1545973,1.8572646 96.3712494,1.83180373 96.6420738,1.83180373 C96.9128914,1.83180373 97.0753834,1.77761739 97.0753834,1.56098385 C97.0753834,1.39530932 96.8587312,1.34113789 96.5050718,1.34113789 C95.475954,1.34113789 93.8765247,1.42398261 93.1978815,1.42398261 C92.4109118,1.42398261 90.7031568,1.34113789 89.6708534,1.34113789 C89.2375439,1.34113789 89.0208857,1.39532422 89.0208857,1.56098385 C89.0208857,1.7776323 89.1833776,1.83180373 89.454196,1.83180373 C89.7791799,1.83180373 90.1328393,1.85729441 90.4323324,1.94012422 C91.0281406,2.07394286 91.2989583,2.5359354 91.3531245,3.45672298 C91.4072884,4.32652919 91.4072884,5.08482484 91.4072884,9.20765217 L91.407287,13.9804621 Z" id="path6743"></path>
            <path d="M107.840451,22.2261242 C114.73202,22.2261242 119.068323,17.3163205 119.068323,11.1065814 C119.068323,4.89684224 114.865837,0.961990062 108.11446,0.961990062 C99.9771205,0.961990062 96.9120783,6.95507329 96.9120783,11.5940571 C96.9120783,16.3955329 100.059962,22.2261242 107.840451,22.2261242 Z M108.98108,20.8688348 C103.774972,20.8688348 100.655764,16.3955329 100.655764,10.7529242 C100.655764,4.00154534 104.208282,2.26510807 107.327484,2.26510807 C111.775304,2.26510807 115.273656,6.03428571 115.273656,12.1102137 C115.273656,19.9480547 110.880008,20.8688348 108.98108,20.8688348 Z" id="path6739" fill-rule="nonzero"></path>
        </g>
    </g>
</svg>