<?xml version="1.0" encoding="UTF-8"?>
<svg width="120px" height="48px" viewBox="0 0 120 48" version="1.1" xmlns="http://www.w3.org/2000/svg" xmlns:xlink="http://www.w3.org/1999/xlink">
    <!-- Generator: Sketch 52 (66869) - http://www.bohemiancoding.com/sketch -->
    <title>Radio</title>
    <desc>Created with Sketch.</desc>
    <g id="Radio" stroke="none" stroke-width="1" fill="none" fill-rule="evenodd">
        <g id="guadalajara" transform="translate(0.000000, 14.000000)">
            <path d="M6.35322305,18.4148317 C4.76319401,17.2840866 3.82089903,15.4519456 3.82589846,13.5008557 C3.82589846,8.4554478 8.70530519,7.74557901 9.00855676,7.20547633 L9.22555619,7.20547633 L9.22555619,11.7104392 C7.37729606,11.979806 5.95687393,13.5843697 5.95687393,15.5294923 C5.95687393,17.1723902 7.09389618,18.9094124 8.98083286,19.2383343 C9.16463206,19.2725613 9.22555619,19.3307473 9.22555619,19.4851112 L9.22555619,20.0649173 C9.22555619,20.2360525 9.11055334,20.2887621 8.85111238,20.2634341 C3.88819167,19.7890473 0.00171135197,15.5712493 0.00171135197,10.4358243 C0.00171135197,2.06252139 8.22783799,1.29720479 9.00102681,5.68434189e-14 L9.22555619,5.68434189e-14 L9.22555619,3.49492299 C9.22555619,4.53884769 8.84597832,4.69971477 8.0081004,5.03753565 C5.56292071,6.02738163 2.61426127,7.90370793 2.61426127,12.0684541 C2.6087917,14.7077917 4.04195797,17.1403959 6.35322305,18.4148317 M13.1904164,18.4148317 C14.7822507,17.2850517 15.7266127,15.4528617 15.7232173,13.5008557 C15.7232173,8.4554478 10.841757,7.74557901 10.5398745,7.20547633 L10.3218483,7.20547633 L10.3218483,11.7104392 C12.1701084,11.979806 13.5908728,13.5843697 13.5908728,15.5294923 C13.5908728,17.1723902 12.4528237,18.9094124 10.5679407,19.2383343 C10.3807188,19.2725613 10.3218483,19.3307473 10.3218483,19.4851112 L10.3218483,20.0649173 C10.3218483,20.2360525 10.4368511,20.2887621 10.6962921,20.2634341 C15.6592128,19.7890473 19.5450086,15.5712493 19.5450086,10.4358243 C19.5450086,2.06252139 11.3216201,1.29720479 10.5477467,5.68434189e-14 L10.3218483,5.68434189e-14 L10.3218483,3.49492299 C10.3218483,4.53884769 10.7007416,4.69971477 11.5396463,5.03753565 C13.9834569,6.02738163 16.9317741,7.90370793 16.9317741,12.0684541 C16.9363191,14.7081785 15.5022861,17.1406951 13.1904164,18.4148317" id="Shape" fill="#9B9EA3" fill-rule="nonzero"></path>
            <path d="M29.5016543,7.07712493 C29.5016543,8.60638905 28.3037079,9.6855676 26.2158585,9.6855676 C25.6049059,9.6855676 25.2065031,9.66434683 24.9792356,9.6427838 L24.9792356,4.67027952 C25.39749,4.63091843 25.7952082,4.61312037 26.2880776,4.61312037 C28.3416999,4.61312037 29.5016543,5.23844837 29.5016543,7.0774672 L29.5016543,7.07712493 Z M31.5751284,16.9006275 L27.5630348,11.979806 C27.2207644,11.5458072 26.7850542,11.035482 26.4044495,10.6059327 C28.8557901,10.5665716 30.7766115,9.29264119 30.7766115,6.86423274 C30.7766115,4.4358243 28.9523103,3.6092413 26.6320593,3.6092413 C25.2831717,3.6092413 24.5397604,3.6277239 23.7617798,3.67084997 L23.7617798,16.8989161 L24.9782088,16.8989161 L24.9782088,10.6432402 L25.0346834,10.6432402 L29.958243,16.8989161 L31.5751284,16.9006275 Z" id="Shape" fill="#B5B7C2" fill-rule="nonzero"></path>
            <path d="M37.3321164,12.4086708 C37.3321164,14.1929264 36.1536794,16.0339989 34.3680548,16.0339989 C33.3782088,16.0339989 32.7340559,15.4452938 32.7340559,14.4848831 C32.7340559,13.5244723 33.5524244,12.2710782 37.3321164,12.2710782 L37.3321164,12.4086708 Z M38.5663434,16.8989161 C38.5502567,16.0162008 38.5297205,14.8795208 38.5297205,13.8773531 L38.5297205,10.1359954 C38.5297205,8.33496863 37.8249857,7.0011409 35.316486,7.0011409 C34.1912707,6.99816829 33.0802223,7.25207873 32.0679977,7.74352539 L32.2001141,8.86206503 C33.0355961,8.29389618 34.1780947,8.00091272 35.0895608,8.00091272 C36.7814033,8.00091272 37.3317741,8.8808899 37.3317741,10.4700513 L37.3317741,11.3312037 C33.5305191,11.3312037 31.515231,12.7605248 31.515231,14.7422704 C31.515231,16.2876212 32.6200799,17.0525956 34.082259,17.0525956 C35.7361095,17.0525956 36.9706788,16.0162008 37.4289789,14.7422704 L37.4666286,14.7610953 C37.3718197,15.326526 37.3502567,16.1099829 37.3502567,16.8989161 L38.5663434,16.8989161 Z" id="Shape" fill="#B5B7C2" fill-rule="nonzero"></path>
            <path d="M46.3981746,11.8610382 C46.3981746,13.6066172 45.449401,16.0535083 43.4152881,16.0535083 C41.7614375,16.0535083 41.0002282,14.6601255 41.0002282,12.3487735 C41.0002282,9.29264119 42.3501426,8.01871078 44.4229321,8.01871078 C45.0899794,8.01972406 45.7541463,8.10622451 46.3992014,8.27609812 L46.3981746,11.8610382 Z M47.5961209,16.8989161 L47.5961209,3.5017684 L46.3981746,3.5017684 L46.3981746,7.1572162 C45.7805262,7.08104515 45.1588893,7.04172853 44.5365659,7.03947519 C41.646777,7.03947519 39.7300627,8.94078722 39.7300627,12.4675414 C39.7300627,15.3083856 40.8687963,17.0539646 43.2273816,17.0539646 C44.7470622,17.0539646 45.9997718,16.111352 46.5131774,14.6433542 L46.5535653,14.6614946 C46.4382202,15.2690245 46.3824301,16.2722191 46.3824301,16.9002852 L47.5961209,16.8989161 Z" id="Shape" fill="#B5B7C2" fill-rule="nonzero"></path>
            <path d="M49.5730747,5.29286937 C49.0980034,5.29286937 48.7191101,4.90507701 48.7191101,4.41460354 C48.7191101,3.92413006 49.0980034,3.53017684 49.5730747,3.53017684 C50.048146,3.53017684 50.4287507,3.90359384 50.4287507,4.41460354 C50.4287507,4.90507701 50.0498574,5.29286937 49.5730747,5.29286937 Z M48.9665716,16.8989161 L48.9665716,7.1572162 L50.1610953,7.1572162 L50.1610953,16.8989161 L48.9665716,16.8989161 Z" id="Shape" fill="#B5B7C2" fill-rule="nonzero"></path>
            <path d="M58.6206503,11.9387336 C58.6206503,14.7994295 57.175927,16.0339989 55.6168853,16.0339989 C53.6587564,16.0339989 52.5563035,14.5458072 52.5563035,11.9585853 C52.5563035,9.23377068 54.0400456,8.00091272 55.5973759,8.00091272 C57.5938391,8.00091272 58.6206503,9.48910439 58.6206503,11.9387336 M59.8552196,11.8798631 C59.8552196,8.25453508 57.9385054,7.0011409 55.7322305,7.0011409 C52.9009698,7.0011409 51.3011979,9.32857958 51.3011979,12.0551055 C51.3011979,15.4641187 52.9009698,17.0522533 55.4104963,17.0522533 C58.1828865,17.0522533 59.8552196,14.7203651 59.8552196,11.8795208" id="Shape" fill="#B5B7C2" fill-rule="nonzero"></path>
            <polygon id="Path" fill="#B5B7C2" points="63.041757 5.68716486 63.041757 8.83707929 65.8942384 8.83707929 65.8942384 11.1706788 63.041757 11.1706788 63.041757 16.7140901 60.5832288 16.7140901 60.5832288 3.53770679 68.1429549 3.53770679 68.1429549 5.68716486"></polygon>
            <path d="M73.4094695,11.8117513 C73.4094695,13.7852824 72.4997148,14.782316 71.3055334,14.782316 C69.9046207,14.782316 69.2043354,13.7647461 69.2043354,11.7761552 C69.2043354,9.78756418 70.2636623,8.92470051 71.3445522,8.92470051 C72.7615516,8.92470051 73.4094695,9.93953223 73.4094695,11.8117513 M75.9080434,11.6779236 C75.9080434,8.34010268 74.1857387,6.81426127 71.512607,6.81426127 C68.6577296,6.81426127 66.7047347,9.00308043 66.7047347,12.0280662 C66.7047347,15.4849971 68.4260125,16.9095265 71.097433,16.9095265 C73.921506,16.9095265 75.9080434,14.7224187 75.9080434,11.6779236" id="Shape" fill="#B5B7C2" fill-rule="nonzero"></path>
            <path d="M81.9535653,9.2567028 C80.215174,8.88499715 79.3413577,10.0596691 79.3413577,12.7512835 L79.3413577,16.7137479 L76.9204792,16.7137479 L76.9204792,7.00901312 L79.2102681,7.00901312 C79.2018935,7.66323573 79.1457257,8.31597196 79.0422133,8.96200799 L79.0788363,8.96200799 C79.5326868,7.73359954 80.4410724,6.66058186 82.0699373,6.79646321 L81.9535653,9.2567028 Z" id="Path" fill="#B5B7C2"></path>
            <path d="M94.6370793,16.7137479 L94.6370793,10.5631489 C94.6370793,9.53188819 94.4108386,8.88602396 93.5212778,8.88602396 C92.4602396,8.88602396 91.3629207,10.1760411 91.3629207,12.0691386 L91.3629207,16.7137479 L88.9776383,16.7137479 L88.9776383,10.5631489 C88.9776383,9.60889903 88.787336,8.88602396 87.8597832,8.88602396 C86.740559,8.88602396 85.7034797,10.2520251 85.7034797,12.0691386 L85.7034797,16.7137479 L83.2771249,16.7137479 L83.2771249,7.00901312 L85.5686252,7.00901312 C85.5686252,7.46115231 85.5320023,8.18471192 85.4337707,8.75014261 L85.4738163,8.75014261 C86.0402738,7.55938391 87.1776383,6.79646321 88.5785511,6.79646321 C90.2436965,6.79646321 90.9467199,7.81232173 91.1729606,8.75014261 C91.6086708,7.79178551 92.6505419,6.79646321 94.2434683,6.79646321 C96.0575014,6.79646321 97.0637764,7.8335425 97.0637764,10.0357102 L97.0637764,16.7137479 L94.6370793,16.7137479 Z" id="Path" fill="#B5B7C2"></path>
            <path d="M104.431831,16.7137479 C104.431831,16.2643468 104.450656,15.5051911 104.547176,14.9976041 L104.525956,14.9763833 C103.957787,16.1294923 102.87587,16.9273246 101.327439,16.9273246 C99.2053622,16.9273246 98.5249287,15.524016 98.5249287,13.8246435 L98.5249287,7.00901312 L100.931774,7.00901312 L100.931774,13.2198517 C100.931774,14.2374216 101.193611,14.8387906 102.101997,14.8387906 C103.332116,14.8387906 104.279179,13.3930405 104.279179,11.6994866 L104.279179,7.0103822 L106.703822,7.0103822 L106.703822,16.7137479 L104.431831,16.7137479 Z" id="Path" fill="#B5B7C2"></path>
            <rect id="Rectangle" fill="#B5B7C2" x="108.558585" y="3.5606389" width="2.42532801" height="13.153109"></rect>
            <path d="M117.503137,12.6533942 C117.503137,13.8246435 116.689218,14.9976041 115.495722,14.9976041 C114.799544,14.9976041 114.379578,14.584826 114.379578,13.959498 C114.379578,13.1815174 114.944324,12.4192812 117.503137,12.4192812 L117.503137,12.6533942 Z M119.98494,16.7137479 C119.945579,15.9124929 119.927781,14.9976041 119.927781,14.2131204 L119.927781,10.1743297 C119.927781,8.06491728 119.077239,6.79543639 116.04575,6.79543639 C114.895888,6.80273898 113.75584,7.00766289 112.675414,7.40125499 L112.88591,9.4925271 C113.678266,9.01985168 114.813234,8.72789504 115.667199,8.72789504 C117.029435,8.72789504 117.503137,9.25601825 117.503137,10.2705077 L117.503137,10.7979464 C114.301198,10.7979464 112.07028,12.0270394 112.07028,14.3496863 C112.07028,15.9114661 113.052938,16.9067884 114.760525,16.9067884 C116.160411,16.9067884 117.316258,16.1472904 117.769082,15.0530519 L117.788933,15.0735881 C117.711922,15.5791215 117.69344,16.1472904 117.69344,16.712721 L119.98494,16.7137479 Z" id="Shape" fill="#B5B7C2" fill-rule="nonzero"></path>
            <polygon id="Path" fill="#B5B7C2" points="75.1451226 4.86160867 71.9647461 6.35253851 71.4397034 5.6601255 74.1806047 3.58836281"></polygon>
        </g>
    </g>
</svg>