<?xml version="1.0" encoding="UTF-8"?>
<svg width="120px" height="48px" viewBox="0 0 120 48" version="1.1" xmlns="http://www.w3.org/2000/svg" xmlns:xlink="http://www.w3.org/1999/xlink">
    <!-- Generator: Sketch 52 (66869) - http://www.bohemiancoding.com/sketch -->
    <title>uni</title>
    <desc>Created with Sketch.</desc>
    <g id="uni" stroke="none" stroke-width="1" fill="none" fill-rule="evenodd">
        <g id="El-Universal-Mexico" transform="translate(0.000000, 19.000000)" fill="#B5B7C2">
            <polygon id="Path" points="9.01472995 11.3322422 0.137479542 11.3322422 0.137479542 10.4680851 1.41407529 10.4680851 1.41407529 1.15875614 0.137479542 1.15875614 0.137479542 0.294599018 8.85761047 0.294599018 8.85761047 3.14238953 7.77741408 3.14238953 7.77741408 1.49263502 4.39934534 1.49263502 4.39934534 5.18494272 5.83306056 5.18494272 5.83306056 4.02618658 6.83469722 4.02618658 6.83469722 7.22749591 5.83306056 7.22749591 5.83306056 6.06873977 4.39934534 6.06873977 4.39934534 10.1734861 7.93453355 10.1734861 7.93453355 8.26841244 9.01472995 8.26841244"></polygon>
            <polygon id="Path" points="18.8543372 11.3322422 10.1145663 11.3322422 10.1145663 10.4680851 11.3715221 10.4680851 11.3715221 1.15875614 10.1145663 1.15875614 10.1145663 0.294599018 15.888707 0.294599018 15.888707 1.15875614 14.3764321 1.15875614 14.3764321 10.1734861 17.7545008 10.1734861 17.7545008 8.26841244 18.8543372 8.26841244"></polygon>
            <path d="M33.8788871,1.15875614 L32.9754501,1.15875614 L32.9754501,7.44353519 C32.9754501,10.487725 31.1096563,11.5482815 28.2618658,11.5482815 C25.1391162,11.5482815 23.5482815,10.2324059 23.5482815,7.91489362 L23.5482815,1.15875614 L22.5270049,1.15875614 L22.5270049,0.294599018 L27.8101473,0.294599018 L27.8101473,1.15875614 L26.5531915,1.15875614 L26.5531915,7.40425532 C26.5531915,9.81996727 27.5155483,10.3895254 29.2635025,10.3895254 C31.1096563,10.3895254 31.7774141,9.40752864 31.7774141,7.40425532 L31.7774141,1.17839607 L30.3829787,1.17839607 L30.3829787,0.294599018 L33.898527,0.294599018 L33.8788871,1.15875614 Z" id="Path"></path>
            <path d="M37.8657938,10.4680851 L39.3191489,10.4680851 L39.3191489,11.3322422 L35.3715221,11.3322422 L35.3715221,10.4680851 L36.6481178,10.4680851 L36.6481178,1.6497545 C36.6481178,1.63011457 36.294599,1.15875614 36.294599,1.15875614 L35.0180033,1.15875614 L35.0180033,0.294599018 L39.2405892,0.294599018 L44.5826514,7.63993453 L44.5826514,1.15875614 L42.9328969,1.15875614 L42.9328969,0.294599018 L47.0180033,0.294599018 L47.0180033,1.15875614 L45.8199673,1.15875614 L45.8199673,11.5286416 L43.8952537,11.5286416 L37.8854337,3.31914894 L37.8657938,10.4680851 Z" id="Path"></path>
            <polygon id="Path" points="53.9116203 11.3322422 48.1963993 11.3322422 48.1963993 10.4680851 49.5515548 10.4680851 49.5515548 1.15875614 48.1963993 1.15875614 48.1963993 0.294599018 53.9116203 0.294599018 53.9116203 1.15875614 52.5368249 1.15875614 52.5368249 10.4680851 53.9116203 10.4680851"></polygon>
            <polygon id="Path" points="61.806874 11.6268412 60.0785597 11.6268412 55.9934534 1.15875614 55.0703764 1.15875614 55.0703764 0.294599018 60.6873977 0.294599018 60.6873977 1.15875614 59.0572831 1.15875614 61.8461538 8.48445172 64.6743044 1.15875614 63.4369885 1.15875614 63.4369885 0.294599018 66.7757774 0.294599018 66.7757774 1.15875614 65.8919804 1.15875614"></polygon>
            <polygon id="Path" points="76.7135843 11.3322422 67.9738134 11.3322422 67.9738134 10.4680851 68.9361702 10.4680851 68.9361702 1.15875614 67.9738134 1.15875614 67.9738134 0.294599018 76.5368249 0.294599018 76.5368249 3.14238953 75.4762684 3.14238953 75.4762684 1.49263502 71.9214403 1.49263502 71.9214403 5.18494272 73.512275 5.18494272 73.512275 4.02618658 74.5139116 4.02618658 74.5139116 7.22749591 73.512275 7.22749591 73.512275 6.06873977 71.9214403 6.06873977 71.9214403 10.1734861 75.613748 10.1734861 75.613748 8.26841244 76.7135843 8.26841244"></polygon>
            <path d="M83.9607201,6.24549918 C86.8674304,5.9705401 87.4369885,4.69394435 87.4369885,3.43698854 C87.4369885,1.43371522 86.1603928,0.294599018 83.410802,0.294599018 L77.8330606,0.294599018 L77.8330606,1.15875614 L79.2471358,1.15875614 L79.2471358,10.4680851 L77.8330606,10.4680851 L77.8330606,11.3322422 L83.410802,11.3322422 L83.410802,10.4680851 L82.2324059,10.4680851 L82.2324059,7.01145663 L82.6644845,7.01145663 L85.2176759,11.3518822 L88.8510638,11.3518822 L88.8510638,10.487725 L88.0458265,10.487725 L86.5139116,8.01309329 C85.7479542,6.77577741 85.4337152,6.46153846 83.9607201,6.34369885 L83.9607201,6.24549918 Z M82.2324059,1.41407529 L82.3698854,1.41407529 C84.0196399,1.41407529 84.3338789,2.08183306 84.3338789,3.49590835 C84.3338789,4.92962357 84.1178396,5.91162029 82.3109656,5.91162029 L82.2520458,5.91162029 L82.2324059,1.41407529 Z" id="Shape" fill-rule="nonzero"></path>
            <path d="M91.1489362,11.4893617 L89.99018,11.4893617 L89.99018,8.26841244 L91.1489362,8.26841244 L91.1489362,10.0556465 C91.9541735,10.2913257 92.6415712,10.3502455 93.6235679,10.3502455 C95.0180033,10.3502455 95.5286416,9.95744681 95.5286416,8.99509002 C95.5286416,8.22913257 94.8608838,7.87561375 93.309329,7.12929624 C90.8739771,5.95090016 90.0687398,5.16530278 90.0687398,3.16202946 C90.0687398,1.0801964 91.6202946,0.0981996727 93.7021277,0.0981996727 C94.3502455,0.0981996727 95.8232406,0.333878887 96.3535188,0.707037643 L96.3535188,0.0392798691 L97.4337152,0.0392798691 L97.4337152,3.14238953 L96.3535188,3.14238953 L96.3535188,1.53191489 C95.7250409,1.35515548 95.0376432,1.33551555 94.4091653,1.33551555 C93.2700491,1.33551555 92.7201309,1.68903437 92.7201309,2.51391162 C92.7201309,3.51554828 93.3878887,3.8101473 94.801964,4.49754501 C96.7070376,5.42062193 98.1407529,6.14729951 98.1407529,8.38625205 C98.1407529,10.507365 96.5106383,11.5482815 94.2913257,11.5482815 C93.309329,11.5482815 91.9541735,11.3518822 91.188216,10.9001637 L91.1489362,11.4893617 Z" id="Path"></path>
            <path d="M101.636661,8.2487725 L105.643208,8.2487725 L106.487725,10.4680851 L105.13257,10.4680851 L105.13257,11.3322422 L110.435352,11.3322422 L110.435352,10.4680851 L109.472995,10.4680851 L105.387889,0 L103.639935,0 L99.5548282,10.4680851 L98.5139116,10.4680851 L98.5139116,11.3322422 L101.91162,11.3322422 L101.91162,10.4680851 L100.772504,10.4680851 L101.636661,8.2487725 Z M105.289689,7.32569558 L101.99018,7.32569558 C102.00982,7.32569558 103.639935,3.06382979 103.639935,3.06382979 L105.289689,7.32569558 Z" id="Shape" fill-rule="nonzero"></path>
            <polygon id="Path" points="119.96072 11.3322422 111.574468 11.3322422 111.574468 10.4680851 112.497545 10.4680851 112.497545 1.15875614 111.574468 1.15875614 111.574468 0.294599018 116.680851 0.294599018 116.680851 1.15875614 115.502455 1.15875614 115.502455 10.1734861 118.880524 10.1734861 118.880524 8.26841244 119.96072 8.26841244"></polygon>
        </g>
    </g>
</svg>