<svg width="256" height="256" viewBox="0 0 256 256" fill="none" xmlns="http://www.w3.org/2000/svg">
<rect width="256" height="256" fill="white"/>
<path d="M159.497 102.627L130.069 104.395C129.307 100.721 127.262 97.5667 123.934 94.9324C120.606 92.2288 116.135 90.8769 110.52 90.8769C105.528 90.8769 101.334 91.9168 97.9375 93.9965C94.6099 96.0763 92.9461 98.8492 92.9461 102.315C92.9461 105.088 94.0207 107.48 96.1697 109.49C98.3881 111.432 102.166 112.957 107.504 114.066L128.613 118.225C139.913 120.513 148.336 124.222 153.882 129.352C159.428 134.482 162.201 141.241 162.201 149.629C162.201 157.324 159.983 164.049 155.546 169.802C151.109 175.487 145.009 179.958 137.244 183.217C129.48 186.406 120.572 188 110.52 188C95.1299 188 82.8595 184.776 73.7087 178.329C64.6273 171.882 59.324 163.147 57.7988 152.125L89.3066 150.461C90.3465 155.175 92.7035 158.745 96.3777 161.172C100.052 163.598 104.766 164.811 110.52 164.811C116.135 164.811 120.676 163.702 124.142 161.484C127.678 159.265 129.445 156.458 129.445 153.061C129.445 147.307 124.454 143.425 114.471 141.414L94.4019 137.255C83.1021 134.967 74.6792 131.05 69.1333 125.504C63.5874 119.958 60.8144 112.853 60.8144 104.187C60.8144 96.7002 62.8595 90.253 66.9496 84.8458C71.0397 79.4385 76.759 75.279 84.1073 72.3674C91.525 69.4558 100.191 68 110.104 68C124.801 68 136.343 71.1196 144.731 77.3588C153.189 83.5286 158.111 91.9515 159.497 102.627Z" fill="#030712"/>
<path d="M198.201 172C198.201 180.837 191.037 188 182.201 188C173.364 188 166.201 180.837 166.201 172C166.201 163.163 173.364 156 182.201 156C191.037 156 198.201 163.163 198.201 172Z" fill="#AEB2BA"/>
</svg>
